<svg xmlns="http://www.w3.org/2000/svg" xmlns:xlink="http://www.w3.org/1999/xlink" width="1335" height="513.835" viewBox="0 0 1335 513.835">
  <defs>
    <clipPath id="clip-path">
      <path id="Rectangle_652" data-name="Rectangle 652" d="M1299.213,0H20.787C9.307,0,0,8.4,0,18.772V488.063c0,10.367,9.307,18.772,20.787,18.772H1299.213c11.48,0,20.787-8.4,20.787-18.772V18.772C1320,8.4,1310.693,0,1299.213,0Z" transform="translate(140 70)" fill="#88e0ef"/>
    </clipPath>
    <linearGradient id="linear-gradient" x1="3.647" y1="-4.533" x2="-4.17" y2="8.206" gradientUnits="objectBoundingBox">
      <stop offset="0" stop-color="#88e0ef" stop-opacity="0"/>
      <stop offset="0.516" stop-color="#88e0ef" stop-opacity="0.51"/>
      <stop offset="1" stop-color="#88e0ef"/>
    </linearGradient>
    <linearGradient id="linear-gradient-2" x1="0.985" y1="-0.545" x2="-0.314" y2="2.256" xlink:href="#linear-gradient"/>
    <linearGradient id="linear-gradient-3" x1="5.309" y1="-15.983" x2="-4.346" y2="17.477" xlink:href="#linear-gradient"/>
    <linearGradient id="linear-gradient-4" x1="8.629" y1="-11.618" x2="-9.617" y2="15.62" xlink:href="#linear-gradient"/>
    <linearGradient id="linear-gradient-5" x1="1.866" y1="-1.467" x2="-1.061" y2="2.749" xlink:href="#linear-gradient"/>
    <linearGradient id="linear-gradient-6" x1="6.841" y1="-11.717" x2="-10.045" y2="20.816" xlink:href="#linear-gradient"/>
    <linearGradient id="linear-gradient-7" x1="0.984" y1="-0.081" x2="0.124" y2="0.939" gradientUnits="objectBoundingBox">
      <stop offset="0.002" stop-color="#a050ff"/>
      <stop offset="0.256" stop-color="#6888f7"/>
      <stop offset="0.496" stop-color="#3cb7f1"/>
      <stop offset="0.707" stop-color="#1bd8ed"/>
      <stop offset="0.882" stop-color="#08ecea"/>
      <stop offset="1" stop-color="#01f4ea"/>
    </linearGradient>
    <filter id="Path_113156" x="695.468" y="0" width="639.532" height="486.371" filterUnits="userSpaceOnUse">
      <feOffset dy="8" input="SourceAlpha"/>
      <feGaussianBlur stdDeviation="5" result="blur"/>
      <feFlood flood-opacity="0.302"/>
      <feComposite operator="in" in2="blur"/>
      <feComposite in="SourceGraphic"/>
    </filter>
  </defs>
  <g id="Group_124946" data-name="Group 124946" transform="translate(-140 -63)">
    <g id="Group_124945" data-name="Group 124945">
      <path id="Rectangle_652-2" data-name="Rectangle 652" d="M1299.213,0H20.787C9.307,0,0,8.4,0,18.772V488.063c0,10.367,9.307,18.772,20.787,18.772H1299.213c11.48,0,20.787-8.4,20.787-18.772V18.772C1320,8.4,1310.693,0,1299.213,0Z" transform="translate(140 70)" fill="#88e0ef"/>
      <g id="Mask_Group_44" data-name="Mask Group 44" clip-path="url(#clip-path)">
        <g id="Group_81527" data-name="Group 81527" transform="translate(1031.369 677.664) rotate(180)" opacity="0.38">
          <g id="Group_81527-2" data-name="Group 81527" transform="translate(-135.309 -86)" style="mix-blend-mode: multiply;isolation: isolate">
            <path id="Path_113159" data-name="Path 113159" d="M323.925,422.631c-20.962-3.172-41.312-15.436-55.8-32.285-19.448-22.616-28.329-53.492-13.943-81.723,13.8-27.09,47.1-42.35,76.362-35,9.581,2.407,18.842,7.14,25.191,14.779s9.383,18.441,6.369,27.94c-4.05,12.761-18.124,22.635-16.045,35.87,1.911,12.162,16.114,17.637,23.224,27.64a27.029,27.029,0,0,1,2.13,27.023C363.388,423.094,339.579,425,323.925,422.631Z" transform="translate(143.805 93.949)" fill="url(#linear-gradient)"/>
            <path id="Path_113160" data-name="Path 113160" d="M-113.88,80.688c23.317-12.423,49.386-23.821,75.257-18.721,59.2,11.668,31.378,81.514,39.968,122.4,10.487,49.913,45.73,90.978,90.274,113.712,13.571,6.927,27.828,12.33,42.043,17.724,7.566,2.871,15.132,5.746,22.622,8.817,6.968,2.856,14.214,5.54,20.311,10.093,20.683,15.443,22.632,44.5,27.255,67.924a201.391,201.391,0,0,0,30.136,72.908c13.764,20.379,31.867,37.063,52.112,50.706a355.361,355.361,0,0,0,35.259,20.614c5.95,3.083,12.057,5.858,17.644,9.6a90.678,90.678,0,0,1,15.992,13.768,117.65,117.65,0,0,1,23.079,37.43h84.721c-18.922-18.639-32.5-42.5-30.725-70.182,1.708-26.607,22.952-56.679,51.237-55.888,30.379.849,58.775,20.055,76.932,43.709,18.578,24.2,29.113,52.89,38,82.361h34.548c-5.277-36.906-21.388-71.629-45.157-100.114C559.462,473.8,525.9,455.6,482.326,451.894c-21.462-1.823-43.087-.3-64.5,1.513-19.183,1.625-38.5,4.035-57.779,3.588-34.771-.807-73.483-9.244-97.954-36.047-11.916-13.053-19.791-29.263-25.255-46.012-3.383-10.367-5.044-21.328-9.066-31.465a63.49,63.49,0,0,0-16.055-23.67c-13.359-12.182-31.144-17.642-48.013-22.8-18.265-5.58-36.481-11.183-52.857-21.347-34.586-21.465-64.481-52.545-68.566-94.9C37.865,134.941,66.942,86.52,69.4,39.353,71.673-4.407,61.075-50.672,31.478-82.7c-1.56-1.688-3.405-3.3-3.405-3.3H-135.309V94.69A128.165,128.165,0,0,1-113.88,80.688Z" transform="translate(135.309 86)" fill="url(#linear-gradient-2)"/>
            <path id="Path_113161" data-name="Path 113161" d="M233.918,555.169c4.374-14.115,19-21.375,32.88-18.284,15.8,3.517,29.926,14.557,41.58,25.4,9.669,9,19.805,19.611,26.584,31.558H239.534C233.863,582.04,229.991,567.839,233.918,555.169Z" transform="translate(143.477 99.823)" fill="url(#linear-gradient-3)"/>
            <path id="Path_113162" data-name="Path 113162" d="M137.213,381.223c3.183-3.976,6.041-8.786,5.482-13.87-.536-4.872-4.166-9.477-2.9-14.21a9.091,9.091,0,0,1,6.343-6,17.6,17.6,0,0,1,8.977.138,36.032,36.032,0,0,1,25.5,23.729,36.555,36.555,0,0,1-7.005,34.31c-6.753,7.8-18.441,13.428-28.816,12.016-9.976-1.358-19.828-13.078-16.164-23.559C130.32,388.956,134.029,385.2,137.213,381.223Z" transform="translate(141.156 95.612)" fill="url(#linear-gradient-4)"/>
            <path id="Path_113163" data-name="Path 113163" d="M-135.309,602.56H204.148q.159-5.394-.053-10.8c-.975-24.162-6.684-48.151-14.708-70.863a167.511,167.511,0,0,0-15.348-32.348c-5.806-9.374-12.83-19.1-21.565-25.9-13.673-10.642-33.422-17.523-40.729-34.6-3.376-7.891-3.549-16.178-2.084-24.542,1.423-8.13,4.344-16.014,5.124-24.255.872-9.205-2.681-16.626-10.472-21.6C94.825,351.6,83.46,348.7,72.441,347.247c-20.994-2.773-42.778-1.138-62.721-9.523-19.469-8.186-33.806-24.659-40.714-44.623-6.978-20.166-7.259-41.917-10.161-62.88a85.532,85.532,0,0,0-24.892-49.866c-13.831-13.647-31.307-23.092-49.245-30-6.4-2.467-13.4-4.689-20.017-6.624Z" transform="translate(135.309 91.104)" fill="url(#linear-gradient-5)"/>
            <ellipse id="Ellipse_4052" data-name="Ellipse 4052" cx="29.371" cy="29.68" rx="29.371" ry="29.68" transform="translate(243.807 266.101)" fill="url(#linear-gradient-6)"/>
          </g>
        </g>
        <path id="Path_113157" data-name="Path 113157" d="M1068.719,485.2v223.99c-2.74.648-5.462,1.3-8.2,1.929-36.436,8.382-75.72,13.251-110.355-.813-74.114-30.107-94.83-130.6-163.79-171.128-70.078-41.158-170.821-9.175-231.994-62.667-68.454-59.873-40.853-187.786-114.176-241.6-25.888-19-59.62-24.231-86.754-41.43-29.639-18.785-48.767-50.047-65.534-80.877-12.2-22.428-24.032-45.612-39.627-65.625H634.932c6.833,13.431,14.837,26,25.528,36.724,44.963,45.108,120.09,41.377,173.257,76.46,53.941,35.606,74.945,103.034,95.3,164.385,20.354,61.334,49.579,127.986,109.417,152.414A132.257,132.257,0,0,0,1068.719,485.2Z" transform="translate(391.281 23.019)" fill="url(#linear-gradient-7)"/>
        <path id="Path_113158" data-name="Path 113158" d="M1068.719,485.2v223.99c-2.74.648-5.462,1.3-8.2,1.929-36.436,8.382-75.72,13.251-110.355-.813-74.114-30.107-94.83-130.6-163.79-171.128-70.078-41.158-170.821-9.175-231.994-62.667-68.454-59.873-40.853-187.786-114.176-241.6-25.888-19-59.62-24.231-86.754-41.43-29.639-18.785-48.767-50.047-65.534-80.877-12.2-22.428-24.032-45.612-39.627-65.625H634.932c6.833,13.431,14.837,26,25.528,36.724,44.963,45.108,120.09,41.377,173.257,76.46,53.941,35.606,74.945,103.034,95.3,164.385,20.354,61.334,49.579,127.986,109.417,152.414A132.257,132.257,0,0,0,1068.719,485.2Z" transform="translate(-503.247 423.932)" fill="url(#linear-gradient-7)"/>
      </g>
      <g transform="matrix(1, 0, 0, 1, 140, 63)" filter="url(#Path_113156)">
        <path id="Path_113156-2" data-name="Path 113156" d="M671.3,36.36a84.357,84.357,0,0,0,0,84.356L816.262,371.8a84.356,84.356,0,0,0,73.054,42.177h380.216V-42.4H716.772Z" transform="translate(50.47 49.4)" fill="#592fe6"/>
      </g>
      <g id="Ellipse_4054" data-name="Ellipse 4054" transform="translate(168.333 125)" fill="none" stroke="#ff5151" stroke-width="2">
        <circle cx="17.5" cy="17.5" r="17.5" stroke="none"/>
        <circle cx="17.5" cy="17.5" r="16.5" fill="none"/>
      </g>
      <g id="Ellipse_4055" data-name="Ellipse 4055" transform="translate(1401.333 90)" fill="none" stroke="#ff5151" stroke-width="2">
        <circle cx="17.5" cy="17.5" r="17.5" stroke="none"/>
        <circle cx="17.5" cy="17.5" r="16.5" fill="none"/>
      </g>
      <g id="Ellipse_4058" data-name="Ellipse 4058" transform="translate(1428.333 158)" fill="none" stroke="#ff5151" stroke-width="2">
        <circle cx="8.5" cy="8.5" r="8.5" stroke="none"/>
        <circle cx="8.5" cy="8.5" r="7.5" fill="none"/>
      </g>
      <g id="Ellipse_4059" data-name="Ellipse 4059" transform="translate(783.333 152)" fill="none" stroke="#ff5151" stroke-width="2">
        <circle cx="8.5" cy="8.5" r="8.5" stroke="none"/>
        <circle cx="8.5" cy="8.5" r="7.5" fill="none"/>
      </g>
    </g>
    <g id="Ellipse_4060" data-name="Ellipse 4060" transform="translate(243.333 539)" fill="none" stroke="#ff5151" stroke-width="2">
      <circle cx="8.5" cy="8.5" r="8.5" stroke="none"/>
      <circle cx="8.5" cy="8.5" r="7.5" fill="none"/>
    </g>
  </g>
</svg>
