<svg id="Grupo_124893" data-name="Grupo 124893" xmlns="http://www.w3.org/2000/svg" xmlns:xlink="http://www.w3.org/1999/xlink" width="323.233" height="202.172" viewBox="0 0 323.233 202.172">
  <defs>
    <clipPath id="clip-path">
      <rect id="Rectángulo_38482" data-name="Rectángulo 38482" width="323.233" height="202.172" fill="none"/>
    </clipPath>
  </defs>
  <g id="Grupo_124892" data-name="Grupo 124892" clip-path="url(#clip-path)">
    <path id="Trazado_187695" data-name="Trazado 187695" d="M54.854,288s1.079-7.071,14.848-8.973,26.573-17.155,49.281-14.941,41.55,16.1,67.4,11.848,42.033,1.169,47.83,5.447,29.792-1,31.565,6.835Z" transform="translate(-17.888 -86.046)" fill="#3a4ace"/>
    <path id="Trazado_187696" data-name="Trazado 187696" d="M134.146,49.659s-15.541-.76-7.3,46.6c0,0,5.546,16.077-1.456,26.44H228.458V49.659Z" transform="translate(-40.579 -16.193)" fill="#d9f9fc"/>
    <path id="Trazado_187697" data-name="Trazado 187697" d="M152.938,223.96s-7.2-8.4-.444-13.736c0,0,4.935-2.988,8.959-2.745,0,0-5.7,9.561-3.857,10.513s5.585-11.113,5.585-11.113,11.23-1.089,14.843.648c0,0-9.6,7.856-7.579,8.324s12.392-7.244,12.392-7.244,10.452,1.779,9.895,8.155-4.159,8.346-5.742,8.176-10.843-3.7-11.045-2.407,5.372,5.536,9.276,5.734c0,0-7.369,8.127-12.267,5.781s-5.316-6.064-8.369-7.458-5.659-1.391-4.4.031,6.786,2.8,8.532,5.893,3.312,5.171-1.755,4.408-13.3-4.47-13.665-8.716Z" transform="translate(-48.784 -67.352)" fill="#3566c9"/>
    <path id="Trazado_187698" data-name="Trazado 187698" d="M186.154,221.939s-28.39-1.094-34.659,7.025a20.531,20.531,0,0,1-5.653,7.935l-.665,1.812s4.92-5.187,6.68-5.5c0,0-2.753-10.059,34.3-11.27" transform="translate(-47.341 -72.357)" fill="#3566c9"/>
    <path id="Trazado_187699" data-name="Trazado 187699" d="M143.01,243.815a17.827,17.827,0,0,0-6.517,12.559l1.106.1s1.946-8.325,5.464-11.582-.053-1.076-.053-1.076" transform="translate(-44.51 -79.274)" fill="#3566c9"/>
    <path id="Trazado_187700" data-name="Trazado 187700" d="M96.867,202.36s11.454-6.414,6.108-15.119c0,0-4.276-5.345-8.857-6.719,0,0,2.444,12.981,0,13.287s-1.68-14.661-1.68-14.661-12.064-5.8-16.8-5.345c0,0,7.483,12.675,5.039,12.37s-10.843-13.134-10.843-13.134-12.37-2.291-14.355,5.04,1.222,11,3.054,11.454,13.591.305,13.286,1.832-8.247,3.971-12.675,2.6c0,0,4.887,12.065,11.3,11.454s8.4-4.581,12.37-4.887,6.872.764,4.886,1.832-8.7.35-11.912,3.077-5.8,4.406.153,5.628,16.646.458,18.784-4.123Z" transform="translate(-17.888 -56.316)" fill="#6d89d0"/>
    <path id="Trazado_187701" data-name="Trazado 187701" d="M64.168,184.079s32.07,10.386,35.736,21.992a24.361,24.361,0,0,0,3.054,11.148v2.291s-3.36-7.789-5.192-8.858c0,0,7.178-10.079-33.6-26.573" transform="translate(-20.925 -60.027)" fill="#6d89d0"/>
    <path id="Trazado_187702" data-name="Trazado 187702" d="M120.986,232.565a21.153,21.153,0,0,1,2.126,16.653l-1.272-.342s1.235-10.07-1.353-15.134.5-1.177.5-1.177" transform="translate(-38.953 -75.373)" fill="#6d89d0"/>
    <path id="Trazado_187703" data-name="Trazado 187703" d="M139.432,184.667s-15.1-8.455-8.052-19.929c0,0,5.637-7.046,11.676-8.858,0,0-3.221,17.111,0,17.514s2.214-19.326,2.214-19.326,15.9-7.65,22.144-7.046c0,0-9.864,16.709-6.643,16.306s14.293-17.313,14.293-17.313,16.306-3.02,18.923,6.643-1.611,14.494-4.026,15.1-17.916.4-17.514,2.416,10.871,5.234,16.709,3.422c0,0-6.442,15.9-14.9,15.1s-11.072-6.039-16.306-6.442-9.059,1.007-6.442,2.416,11.475.462,15.7,4.056,7.65,5.808-.2,7.419-21.943.6-24.761-5.436Z" transform="translate(-42.231 -47.469)" fill="#3a4ace"/>
    <path id="Trazado_187704" data-name="Trazado 187704" d="M189.393,160.57s-42.275,13.689-47.106,28.989a32.119,32.119,0,0,1-4.027,14.7v3.02s4.429-10.267,6.845-11.676c0,0-9.462-13.286,44.288-35.028" transform="translate(-45.086 -52.361)" fill="#6d89d0"/>
    <path id="Trazado_187705" data-name="Trazado 187705" d="M136.351,224.483s-6.519,9.9-2.8,21.951l1.677-.45s-1.628-13.274,1.782-19.95-.657-1.551-.657-1.551" transform="translate(-43.176 -72.59)" fill="#6d89d0"/>
    <path id="Trazado_187706" data-name="Trazado 187706" d="M129.169,282.434a29.575,29.575,0,0,0,29.575-29.575H99.594a29.575,29.575,0,0,0,29.575,29.575" transform="translate(-32.477 -82.456)" fill="#fb7369"/>
    <path id="Trazado_187707" data-name="Trazado 187707" d="M138.191,282.208a29.594,29.594,0,0,1-33.248-29.349h7.348a29.579,29.579,0,0,0,25.9,29.349" transform="translate(-34.221 -82.456)" fill="#f2564b"/>
    <path id="Trazado_187708" data-name="Trazado 187708" d="M158.955,297.212H98.988a3.649,3.649,0,0,1,3.649-3.649h52.669a3.649,3.649,0,0,1,3.649,3.649" transform="translate(-32.279 -95.729)" fill="#fb7369"/>
    <rect id="Rectángulo_38478" data-name="Rectángulo 38478" width="60.795" height="0.907" transform="translate(66.145 170.403)" fill="#f2564b"/>
    <path id="Trazado_187709" data-name="Trazado 187709" d="M301.465,78.943s-5.181-9.776,2.582-13.5c0,0,5.471-1.832,9.343-.712,0,0-7.662,8.077-6.071,9.409s7.888-9.615,7.888-9.615,11.2,1.4,14.339,3.89c0,0-11.091,5.558-9.221,6.458S334,70.528,334,70.528s9.807,4.03,7.864,10.128-5.889,7.229-7.4,6.716-9.766-5.994-10.247-4.773,4.026,6.58,7.79,7.63c0,0-8.973,6.311-13.236,2.948s-3.855-7.082-6.527-9.113-5.216-2.6-4.3-.935,6.005,4.225,7.03,7.621,2.1,5.772-2.679,3.916-12-7.282-11.419-11.5Z" transform="translate(-97.754 -20.991)" fill="#3566c9"/>
    <path id="Trazado_187710" data-name="Trazado 187710" d="M333.622,85.429s-27.457-7.3-35.356-.754a20.529,20.529,0,0,1-7.257,6.5L289.962,92.8s5.938-3.981,7.725-3.9c0,0-.478-10.418,35.935-3.468" transform="translate(-94.555 -26.723)" fill="#3566c9"/>
    <path id="Trazado_187711" data-name="Trazado 187711" d="M287.106,95.458a17.828,17.828,0,0,0-9.115,10.822l1.057.339s3.726-7.7,7.873-10.1.185-1.061.185-1.061" transform="translate(-90.651 -31.006)" fill="#3566c9"/>
    <path id="Trazado_187712" data-name="Trazado 187712" d="M246.662,40.32s-15.344-8-8.642-19.681c0,0,5.424-7.211,11.407-9.2,0,0-2.71,17.2.522,17.506S251.587,9.56,251.587,9.56s15.669-8.12,21.925-7.7c0,0-9.363,17-6.155,16.5S281.127.624,281.127.624s16.209-3.5,19.113,6.077-1.178,14.535-3.575,15.211-17.9.935-17.434,2.936,11.022,4.908,16.8,2.923c0,0-5.965,16.088-14.441,15.535S270.346,37.6,265.1,37.354s-9.025,1.276-6.367,2.607,11.483.12,15.816,3.586,7.819,5.579.02,7.422-21.915,1.257-24.912-4.7Z" transform="translate(-77.065 0)" fill="#3a4ace"/>
    <path id="Trazado_187713" data-name="Trazado 187713" d="M296.151,14.753S254.3,29.694,249.929,45.131a32.117,32.117,0,0,1-3.587,14.809l.09,3.018s4.121-10.394,6.494-11.874c0,0-9.853-13,43.226-36.331" transform="translate(-80.331 -4.811)" fill="#6d89d0"/>
    <path id="Trazado_187714" data-name="Trazado 187714" d="M244.632,80.868s-6.222,10.09-2.148,22.025l1.664-.5s-2.023-13.219,1.187-19.993-.7-1.531-.7-1.531" transform="translate(-78.622 -25.74)" fill="#6d89d0"/>
    <rect id="Rectángulo_38479" data-name="Rectángulo 38479" width="107.602" height="140.327" transform="translate(100.103 61.501)" fill="#2ed4e5"/>
    <rect id="Rectángulo_38480" data-name="Rectángulo 38480" width="105.793" height="140.327" transform="translate(103.62 61.501)" fill="#f8fbff"/>
    <path id="Trazado_187715" data-name="Trazado 187715" d="M410.959,287.53H389.64c-1.142-.969.79-3.169,2.81-3.318a12.474,12.474,0,0,1,3.254.385c.293-3.9,1.969-21.413,8.282-20.708,7.1.788,0,7.714-2.007,11.814a97.487,97.487,0,0,0-3.772,9.448c.577.125,1.173.247,1.782.359.941-2.889,4.442-12.607,8.895-12.041,5.227.663,3.126,4.56-.579,6.872-2.719,1.7-6.056,4.118-7.643,5.286a22.638,22.638,0,0,0,4.169.334c3.652-.087,5.434.989,6.125,1.568" transform="translate(-126.948 -86.046)" fill="#3a4ace"/>
    <path id="Trazado_187716" data-name="Trazado 187716" d="M255.153,77.692H149.358c.585-8-.3-13.809-1.71-17.987-2.713-8.033-7.389-10.048-7.389-10.048h99.773c8.515,0,15.118,5.13,16.916,11.939.067.257.129.511.183.766,1.707,7.791-1.909,15.186-1.979,15.328" transform="translate(-45.738 -16.194)" fill="#f8fbff"/>
    <path id="Trazado_187717" data-name="Trazado 187717" d="M258.728,82.554H152.934c.585-8-.3-13.809-1.71-17.987,10.811,1.979,37.589,6.2,66.251,5.488,18.542-.46,33.195-1.7,43.232-2.83,1.707,7.791-1.909,15.186-1.979,15.328" transform="translate(-49.313 -21.056)" fill="#f8fbff"/>
    <path id="Trazado_187718" data-name="Trazado 187718" d="M242.435,138H184.707a.236.236,0,0,1-.235-.235V135.6a.235.235,0,0,1,.235-.235h57.728a.236.236,0,0,1,.235.235v2.162a.236.236,0,0,1-.235.235" transform="translate(-60.155 -44.143)" fill="#88e0ef"/>
    <path id="Trazado_187719" data-name="Trazado 187719" d="M220.5,144.572H184.707a.236.236,0,0,1-.235-.235v-2.162a.235.235,0,0,1,.235-.235H220.5a.235.235,0,0,1,.235.235v2.162a.236.236,0,0,1-.235.235" transform="translate(-60.155 -46.286)" fill="#88e0ef"/>
    <path id="Trazado_187720" data-name="Trazado 187720" d="M175.7,142v-5.375h-.71q-.645,0-.645-.538,0-.387.505-.549a3.725,3.725,0,0,1,.822-.129q.564-.043.908-.043t.419.135a1.6,1.6,0,0,1,.086.682V142h.731q.71,0,.71.613,0,.645-.71.646h-2.946a.81.81,0,0,1-.521-.167.564.564,0,0,1-.21-.468q0-.623.72-.623Z" transform="translate(-56.786 -44.143)" fill="#88e0ef"/>
    <path id="Trazado_187721" data-name="Trazado 187721" d="M242.435,179.127H184.707a.236.236,0,0,1-.235-.235V176.73a.235.235,0,0,1,.235-.235h57.728a.236.236,0,0,1,.235.235v2.161a.236.236,0,0,1-.235.235" transform="translate(-60.155 -57.554)" fill="#88e0ef"/>
    <path id="Trazado_187722" data-name="Trazado 187722" d="M220.5,185.7H184.707a.236.236,0,0,1-.235-.235V183.3a.235.235,0,0,1,.235-.235H220.5a.235.235,0,0,1,.235.235v2.161a.236.236,0,0,1-.235.235" transform="translate(-60.155 -59.696)" fill="#88e0ef"/>
    <path id="Trazado_187723" data-name="Trazado 187723" d="M178.616,183.017q0,.538-.751.537H174.75q-.675,0-.675-.542a.684.684,0,0,1,.181-.4q.266-.3.779-.912.778-.98,1.3-1.692.181-.238.514-.722a1.75,1.75,0,0,0,.275-.817.84.84,0,0,0-.237-.613.814.814,0,0,0-.608-.242.931.931,0,0,0-.627.228,1.077,1.077,0,0,0-.285.57,6.323,6.323,0,0,1-.171.627.481.481,0,0,1-.465.3.533.533,0,0,1-.447-.209.714.714,0,0,1-.152-.475,2.286,2.286,0,0,1,.105-.675,2.024,2.024,0,0,1,.807-1.121,2.347,2.347,0,0,1,1.34-.37,2.078,2.078,0,0,1,1.444.523,1.832,1.832,0,0,1,.6,1.408A2.451,2.451,0,0,1,178,179.74q-.238.371-.979,1.313-.38.485-1.2,1.408h2.052q.741,0,.741.556" transform="translate(-56.765 -57.554)" fill="#88e0ef"/>
    <path id="Trazado_187724" data-name="Trazado 187724" d="M242.435,213.433H184.707a.235.235,0,0,1-.235-.235v-2.161a.236.236,0,0,1,.235-.235h57.728a.236.236,0,0,1,.235.235V213.2a.236.236,0,0,1-.235.235" transform="translate(-60.155 -68.741)" fill="#88e0ef"/>
    <path id="Trazado_187725" data-name="Trazado 187725" d="M220.5,220H184.707a.235.235,0,0,1-.235-.235v-2.161a.236.236,0,0,1,.235-.235H220.5a.236.236,0,0,1,.235.235v2.161a.235.235,0,0,1-.235.235" transform="translate(-60.155 -70.883)" fill="#88e0ef"/>
    <path id="Trazado_187726" data-name="Trazado 187726" d="M178.558,215.514a2.038,2.038,0,0,1-.709,1.622,2.5,2.5,0,0,1-1.7.582,2.378,2.378,0,0,1-1.36-.379,1.73,1.73,0,0,1-.893-1.447.61.61,0,0,1,.155-.418.511.511,0,0,1,.4-.175.608.608,0,0,1,.476.34,7.293,7.293,0,0,0,.418.622,1.084,1.084,0,0,0,.826.34,1.032,1.032,0,0,0,.971-.5,1.349,1.349,0,0,0,.136-.642q0-.951-1.117-1.058-.631-.059-.631-.534a.508.508,0,0,1,.366-.5q.685-.252.695-.262a.938.938,0,0,0,.367-.845.759.759,0,0,0-.213-.568.782.782,0,0,0-.571-.208,1.044,1.044,0,0,0-.7.213,1.4,1.4,0,0,0-.359.631.441.441,0,0,1-.445.34.457.457,0,0,1-.383-.2.74.74,0,0,1-.15-.447,1.239,1.239,0,0,1,.165-.6,1.864,1.864,0,0,1,.835-.786,2.45,2.45,0,0,1,1.127-.262,1.966,1.966,0,0,1,1.374.5,1.7,1.7,0,0,1,.549,1.316,1.8,1.8,0,0,1-.815,1.554,1.76,1.76,0,0,1,1.185,1.777" transform="translate(-56.707 -68.599)" fill="#88e0ef"/>
    <path id="Trazado_187727" data-name="Trazado 187727" d="M242.958,103.611h-36.58a.274.274,0,0,1-.273-.273v-2.512a.274.274,0,0,1,.273-.273h36.58a.274.274,0,0,1,.273.274v2.511a.274.274,0,0,1-.273.273" transform="translate(-67.21 -32.79)" fill="#88e0ef"/>
    <path id="Trazado_187728" data-name="Trazado 187728" d="M247.788,110.605h-55.3a.273.273,0,0,1-.273-.272v-2.512a.274.274,0,0,1,.273-.273h55.3a.275.275,0,0,1,.273.274v2.511a.274.274,0,0,1-.273.273" transform="translate(-62.68 -35.071)" fill="#88e0ef"/>
    <path id="Trazado_187729" data-name="Trazado 187729" d="M206.62,147.194a129.518,129.518,0,0,1-30.614-3.513c-8.237-2.088-12.674-5.5-12.674-8.528,0-2.744,3.616-5.268,10.457-7.3-6.556,1.946-10.062,4.8-10.062,7.3,0,2.768,4.545,5.507,12.469,7.517,8.125,2.06,18.929,3.194,30.425,3.194s22.3-1.134,30.425-3.194c7.924-2.01,12.469-4.749,12.469-7.517,0-2.931-4.786-6.575-12.489-9.508-8.759-3.336-19.557-4.573-30.4-4.573-20.364,0-28.747,2.378-36.021,5.356,7.305-2.991,15.585-6.383,36.021-6.383a88.1,88.1,0,0,1,30.535,5.2c7.866,3,12.753,6.793,12.753,9.912,0,3.027-4.537,5.844-12.774,7.933a126.256,126.256,0,0,1-30.514,4.109" transform="translate(-53.262 -39.146)" fill="#fb7369"/>
    <path id="Trazado_187730" data-name="Trazado 187730" d="M329.168,200.056a22.9,22.9,0,0,1-.8,4.387,15.712,15.712,0,0,1-2.944,3.365c-.755.437.461-2.938.307-3.6s-.622,1.2-.955,1.243-.247-1.627-.259-2.235,1.619-2.108,2.195-3.4,2.452.237,2.452.237" transform="translate(-105.824 -64.99)" fill="#fccec3"/>
    <path id="Trazado_187731" data-name="Trazado 187731" d="M261.163,146.838l-.848-1.6s.421-2.851-3.151-4.654a1.743,1.743,0,0,0-2.043.533c-.679.981,1.293.8,1.187,2.481a3.086,3.086,0,0,0,1.8,3.209l.917,1.061Z" transform="translate(-83.147 -45.8)" fill="#fccec3"/>
    <path id="Trazado_187732" data-name="Trazado 187732" d="M296.253,143.986A28.3,28.3,0,0,1,276.3,163.962c-5.27,1.536-17.242-15.814-17.242-15.814s.421-1.6,3.058-1.232c0,0,11.657,7.718,13.124,8.556,1.3.743,9.866-9.563,13.77-11.225a9.966,9.966,0,0,1,7.239-.261" transform="translate(-84.479 -46.773)" fill="#f2564b"/>
    <rect id="Rectángulo_38481" data-name="Rectángulo 38481" width="3.153" height="15.861" transform="matrix(0.152, -0.988, 0.988, 0.152, 166.375, 97.369)" fill="#fb7369"/>
    <path id="Trazado_187733" data-name="Trazado 187733" d="M241.828,140.857l3.405,2.118.478-3.117Z" transform="translate(-78.859 -45.607)" fill="#fc9490"/>
    <path id="Trazado_187734" data-name="Trazado 187734" d="M272.286,144.745l-.151.985a1.111,1.111,0,0,1-1.266.929l-.725-.111.478-3.116.788.121a1.046,1.046,0,0,1,.875,1.193" transform="translate(-88.092 -46.772)" fill="#fc9490"/>
    <path id="Trazado_187735" data-name="Trazado 187735" d="M340.485,284.265s2.095,1.911,1.685,3.269-2.3,2.264-2.554,3.923-1.276,2.566-2.2,2.566h-4.383s-.677-1.168.958-1.52,2.251-2.3,2.148-4.113a31.952,31.952,0,0,1,.154-4.225l3.473-.8Z" transform="translate(-108.556 -92.402)" fill="#293eb7"/>
    <path id="Trazado_187736" data-name="Trazado 187736" d="M300.074,291.223s.376,4.349-.544,4.8L287.764,296s0-1.358,1.89-1.66,5.21-1.408,5.772-3.872,4.648.754,4.648.754" transform="translate(-93.838 -94.417)" fill="#293eb7"/>
    <path id="Trazado_187737" data-name="Trazado 187737" d="M291.29,200.356s.621,7.624,1.35,16.789c.991,12.45,2.183,27.742,2.3,30.639.2,5.03,1.022,13.077,1.022,13.077s1.94,1.912,5.823,1.106a129.877,129.877,0,0,0,4.448-23.641c.016-.2.03-.4.046-.6.92-12.373,2.349-38.426,2.349-38.426Z" transform="translate(-94.988 -64.991)" fill="#3a4ace"/>
    <path id="Trazado_187738" data-name="Trazado 187738" d="M291.29,200.356s.621,7.624,1.35,16.789l13.6,21.182c.016-.2.03-.4.046-.6.92-12.373,2.349-38.426,2.349-38.426Z" transform="translate(-94.988 -64.991)" fill="#293eb7"/>
    <path id="Trazado_187739" data-name="Trazado 187739" d="M295.495,199.8s11.186,27.612,18.542,40.588,9.654,16.6,9.654,16.6,4.214-1.66,4.6-2.791c0,0-2.813-25.051-7.738-31.158-2.784-3.45-6.053-13.806-6.207-17.427s-1-10.789-1-10.789Z" transform="translate(-96.359 -63.53)" fill="#3a4ace"/>
    <path id="Trazado_187740" data-name="Trazado 187740" d="M311.561,134.629s-7.569,3.652-11.932,2.3a10.3,10.3,0,0,1,2.954-2.363c-.151-.876-.268-1.636-.336-2.28a21.132,21.132,0,0,1-.184-2.33l2.92-2.3,2.769-2.2a11.158,11.158,0,0,0,3.81,9.171" transform="translate(-97.707 -40.911)" fill="#fccec3"/>
    <path id="Trazado_187741" data-name="Trazado 187741" d="M312.526,177.224c.017.462-.974.991-1.41,1.189a30.915,30.915,0,0,1-9.683,2.743c-4.045.413-8.827-.5-10.472-.463a.683.683,0,0,1-.454-.181c-.117-.083-.2-4.958-.117-11.088,0-.248,0-.5.017-.743V168.6c.034-2.4.117-4.907.234-7.42.235-5.519.671-10.84,1.41-13.781a14.939,14.939,0,0,1,4.733-7.437l1.51-1.322a7.252,7.252,0,0,0,4.7-.561c1.745-.843,3.625-1.751,3.927-1.52,2.283,1.669,3.826,5.42,4.649,10.212a53.072,53.072,0,0,1,.688,9.088c0,1.19-.034,2.413-.1,3.62a114.023,114.023,0,0,0,.235,15.516c.067.959.117,1.7.134,2.231" transform="translate(-94.684 -44.518)" fill="#fb7369"/>
    <path id="Trazado_187742" data-name="Trazado 187742" d="M316.669,181.883c-26.5-.053-4.889-28.76-4.889-28.76l4.294-1.395a83.417,83.417,0,0,1,.5,9.71c0,1.272-.024,2.578-.073,3.866-.291,6.992,0,13.065.17,16.578" transform="translate(-98.961 -49.478)" fill="#f2564b"/>
    <path id="Trazado_187743" data-name="Trazado 187743" d="M308.98,128.885a10.032,10.032,0,0,1-5.555,4.462,21.061,21.061,0,0,1-.185-2.33l2.92-2.3Z" transform="translate(-98.885 -41.975)" fill="#f48484"/>
    <path id="Trazado_187744" data-name="Trazado 187744" d="M300.582,126.287s7.22,1.181,7.9-3.258,2.066-7.276-2.515-8.218-5.738.619-6.33,2.047-.914,9.007.947,9.429" transform="translate(-97.559 -37.346)" fill="#fccec3"/>
    <path id="Trazado_187745" data-name="Trazado 187745" d="M309.975,112.976c.065-.075.217-.135.553-.154a1.372,1.372,0,0,0-.629-.177,1.692,1.692,0,0,0-1.124-1.5,1.009,1.009,0,0,1,.489.728c-.933-.958-2.931-1.655-8.465-1.218-7.293.576-4.889,5.244-3.945,5.8s3.321-.969,5.08-.83,2.093,2.681,2.69,3.031.362-.268,1.169-.633.884.973.651,1.843.876,2.018.876,2.018l1.121-1.208c1.121-1.208,2.177-6.321,1.668-7.412-.045-.1-.09-.194-.135-.292" transform="translate(-96.429 -36.041)"/>
    <path id="Trazado_187746" data-name="Trazado 187746" d="M313.258,136.52s4.568,2.163,6.759,5.489c3.4,5.159,7.336,23.96,7.409,25.7s-2.875,14.033-2.875,14.033-2.989-.2-3.76-1.706c0,0,.6-12.629.218-13.441s-12.461-16.941-11.1-20.382,3.351-9.693,3.351-9.693" transform="translate(-101.024 -44.518)" fill="#fb7369"/>
    <path id="Trazado_187747" data-name="Trazado 187747" d="M261.8,146.03s.249-.981-.433-1.423-1.307-1.64-1.594-1.478c-.594.336.325,1.384.157,2.689-.059.458,1.005,1.655,1.869.212" transform="translate(-84.643 -46.669)" fill="#fccec3"/>
    <path id="Trazado_187748" data-name="Trazado 187748" d="M88.651,273.935s-10.731-27.479-18.257-23.1,18.257,23.1,18.257,23.1" transform="translate(-22.506 -81.641)" fill="#3a4ace"/>
    <path id="Trazado_187749" data-name="Trazado 187749" d="M79.8,280.379S65.625,268.128,59.149,270.4,79.8,280.379,79.8,280.379" transform="translate(-18.962 -88.085)" fill="#3a4ace"/>
    <path id="Trazado_187750" data-name="Trazado 187750" d="M313.02,286.315s3.267-11.359,7.1-10.019-7.1,10.019-7.1,10.019" transform="translate(-102.074 -90.063)" fill="#3a4ace"/>
    <path id="Trazado_187751" data-name="Trazado 187751" d="M317.444,288.31s8.34-5.474,10.172-3.782-10.172,3.782-10.172,3.782" transform="translate(-103.517 -92.677)" fill="#3a4ace"/>
    <path id="Trazado_187752" data-name="Trazado 187752" d="M243.29,253.439H178.236a.792.792,0,0,1,0-1.583H243.29a.792.792,0,1,1,0,1.583" transform="translate(-57.864 -82.129)" fill="#88e0ef"/>
    <path id="Trazado_187753" data-name="Trazado 187753" d="M243.29,258.141H178.236a.792.792,0,0,1,0-1.584H243.29a.792.792,0,0,1,0,1.584" transform="translate(-57.864 -83.662)" fill="#88e0ef"/>
    <path id="Trazado_187754" data-name="Trazado 187754" d="M243.29,263.352H178.236a.792.792,0,0,1,0-1.584H243.29a.792.792,0,0,1,0,1.584" transform="translate(-57.864 -85.361)" fill="#88e0ef"/>
    <path id="Trazado_187755" data-name="Trazado 187755" d="M235.348,268.563H177.587a.142.142,0,0,1-.142-.142v-1.3a.142.142,0,0,1,.142-.142h57.761a.142.142,0,0,1,.142.142v1.3a.142.142,0,0,1-.142.142" transform="translate(-57.864 -87.06)" fill="#88e0ef"/>
    <path id="Trazado_187756" data-name="Trazado 187756" d="M323.171,299.667H.062A.062.062,0,0,1,0,299.606v-.565a.062.062,0,0,1,.062-.061h323.11a.06.06,0,0,1,.061.061v.565a.062.062,0,0,1-.062.062" transform="translate(0 -97.496)" fill="#1c468a"/>
  </g>
</svg>
