<svg xmlns="http://www.w3.org/2000/svg" width="228" height="277" viewBox="0 0 228 277">
  <rect id="Rectángulo_35533" data-name="Rectángulo 35533" width="228" height="277" rx="10" fill="#88e0ef"/>
  <g id="Grupo_89573" data-name="Grupo 89573" transform="translate(-686 -1056)">
    <g id="Trazado_137460" data-name="Trazado 137460" transform="translate(755 1150)" fill="#88e0ef">
      <path d="M 45 85 C 39.59783172607422 85 34.35990142822266 83.94309997558594 29.43173408508301 81.85865020751953 C 24.66914939880371 79.84425354003906 20.39086723327637 76.95941925048828 16.71573257446289 73.28426361083984 C 13.04058361053467 69.609130859375 10.1557502746582 65.33084869384766 8.141349792480469 60.56826782226562 C 6.056900024414062 55.64009857177734 5 50.40216827392578 5 45 C 5 39.59783172607422 6.056900024414062 34.35990142822266 8.141349792480469 29.43173408508301 C 10.1557502746582 24.66914939880371 13.04058361053467 20.39086723327637 16.71573257446289 16.71573257446289 C 20.39086723327637 13.04058361053467 24.66914939880371 10.1557502746582 29.43173408508301 8.141349792480469 C 34.35990142822266 6.056900024414062 39.59783172607422 5 45 5 C 50.40216827392578 5 55.64009857177734 6.056900024414062 60.56826782226562 8.141349792480469 C 65.33084869384766 10.1557502746582 69.609130859375 13.04058361053467 73.28426361083984 16.71573257446289 C 76.95941925048828 20.39086723327637 79.84425354003906 24.66914939880371 81.85865020751953 29.43173408508301 C 83.94309997558594 34.35990142822266 85 39.59783172607422 85 45 C 85 50.40216827392578 83.94309997558594 55.64009857177734 81.85865020751953 60.56826782226562 C 79.84425354003906 65.33084869384766 76.95941925048828 69.609130859375 73.28426361083984 73.28426361083984 C 69.609130859375 76.95941925048828 65.33084869384766 79.84425354003906 60.56826782226562 81.85865020751953 C 55.64009857177734 83.94309997558594 50.40216827392578 85 45 85 Z" stroke="none"/>
      <path d="M 45 10 C 25.70093536376953 10 10 25.70093536376953 10 45 C 10 64.29906463623047 25.70093536376953 80 45 80 C 64.29906463623047 80 80 64.29906463623047 80 45 C 80 25.70093536376953 64.29906463623047 10 45 10 M 45 0 C 69.85280609130859 0 90 20.14719390869141 90 45 C 90 69.85280609130859 69.85280609130859 90 45 90 C 20.14719390869141 90 0 69.85280609130859 0 45 C 0 20.14719390869141 20.14719390869141 0 45 0 Z" stroke="none" fill="#fff"/>
    </g>
    <path id="Trazado_187811" data-name="Trazado 187811" d="M8.142-17.821H11.4q3.876,0,3.876-3.794a3.281,3.281,0,0,0-.923-2.41,3.5,3.5,0,0,0-2.6-.933,3.746,3.746,0,0,0-2.389.8,2.44,2.44,0,0,0-1.015,1.989H1.436a7.075,7.075,0,0,1,1.313-4.2,8.667,8.667,0,0,1,3.64-2.881A12.446,12.446,0,0,1,11.5-30.29q4.983,0,7.834,2.276a7.567,7.567,0,0,1,2.851,6.255,6.307,6.307,0,0,1-1.179,3.64,8.4,8.4,0,0,1-3.435,2.779,8.028,8.028,0,0,1,3.732,2.615,6.886,6.886,0,0,1,1.354,4.337,7.7,7.7,0,0,1-3.076,6.4A12.769,12.769,0,0,1,11.5.41,13.242,13.242,0,0,1,6.06-.708a8.531,8.531,0,0,1-3.8-3.1,8.051,8.051,0,0,1-1.292-4.5H7.916A3.112,3.112,0,0,0,9.023-5.927a3.91,3.91,0,0,0,2.728,1,4.1,4.1,0,0,0,2.912-1.015A3.393,3.393,0,0,0,15.75-8.531a3.967,3.967,0,0,0-1.128-3.2,4.715,4.715,0,0,0-3.117-.943H8.142Z" transform="translate(788 1211.5)" fill="#fff"/>
  </g>
</svg>

