<svg id="Group_123991" data-name="Group 123991" xmlns="http://www.w3.org/2000/svg" xmlns:xlink="http://www.w3.org/1999/xlink" width="59.992" height="60" viewBox="0 0 59.992 60">
  <defs>
    <clipPath id="clip-path">
      <rect id="Rectangle_37848" data-name="Rectangle 37848" width="59.993" height="60" fill="#fff"/>
    </clipPath>
  </defs>
  <g id="Group_95962" data-name="Group 95962" clip-path="url(#clip-path)">
    <path id="Path_139496" data-name="Path 139496" d="M14.01,4.609c0-1.229,0-2.265,0-3.3,0-.949.338-1.3,1.26-1.3q21.74,0,43.479,0c.893,0,1.24.354,1.24,1.257q0,26.836,0,53.673A4.964,4.964,0,0,1,54.9,59.994q-19.895.014-39.792,0a4.979,4.979,0,0,1-5.1-5.1c-.012-2.708,0-5.417-.017-8.124a.779.779,0,0,0-.3-.617c-.159-.064-.472.094-.641.243-.453.4-.852.858-1.295,1.267a.969.969,0,0,1-1.5-.006Q4.3,45.73,2.376,43.77a.983.983,0,0,1,0-1.542c.444-.468.923-.9,1.358-1.38a.6.6,0,0,0,.144-.507.683.683,0,0,0-.486-.326c-.749-.035-1.5,0-2.249-.018A1,1,0,0,1,.021,38.878Q0,36.005.02,33.13a1,1,0,0,1,1.118-1.125c.75-.013,1.5.016,2.248-.018a.687.687,0,0,0,.492-.318.588.588,0,0,0-.138-.509c-.434-.477-.914-.912-1.358-1.38a.983.983,0,0,1-.01-1.542q1.926-1.96,3.886-3.886a.983.983,0,0,1,1.541.027c.38.355.721.753,1.115,1.092.222.192.325.609.793.421.495-.2.278-.591.3-.906.033-.518.007-1.041.009-1.562,0-1.135.291-1.42,1.452-1.42.324,0,.648,0,1.093,0-.24-.258-.385-.423-.54-.578Q6.85,16.255,1.682,11.088C-.556,8.848-.561,6.169,1.667,3.942c.84-.84,1.673-1.687,2.52-2.517a4.6,4.6,0,0,1,6.656,0c1.026,1,2.025,2.034,3.168,3.185M44,27.982v-.788q0-9.936,0-19.871c0-.986.328-1.316,1.3-1.317q3.686,0,7.373,0c.982,0,1.315.331,1.317,1.306q0,8.685,0,17.372c0,.982-.333,1.315-1.306,1.317q-3,0-6,0H46c0,.918,0,1.749,0,2.58C46,29.7,45.7,30,44.6,30c-4.269,0-8.538-.047-12.807.021a16.994,16.994,0,0,1-5.768-.789c-.276-.093-.564-.147-.84-.239-3.084-1.024-6.5-1.177-9.142-3.521V47.955H31c0-.9,0-1.747,0-2.6,0-1.031.318-1.351,1.33-1.354,1.2,0,2.4,0,3.667,0,0-1.241-.019-2.423.011-3.6a.851.851,0,0,0-.476-.818,9.141,9.141,0,0,1-1.206-1.225c-.118-.123-.243-.328-.373-.336C33.321,37.984,32.684,38,32,38c0,.967,0,1.86,0,2.751S31.647,42,30.747,42Q26,42,21.252,42c-.892,0-1.241-.353-1.242-1.254q-.007-3.717,0-7.436c0-.978.333-1.3,1.317-1.3q4.655,0,9.309,0c1.059,0,1.367.314,1.368,1.38,0,.866,0,1.731,0,2.619.676,0,1.258.021,1.839-.014a.681.681,0,0,0,.457-.3,2.991,2.991,0,0,1,5.385-.016c.074.127.211.3.326.307.655.03,1.313.015,1.989.015,0-.969,0-1.842,0-2.717,0-.939.34-1.278,1.281-1.278Q48,32,52.715,32c.938,0,1.278.34,1.279,1.281q0,3.717,0,7.435c0,.938-.343,1.278-1.282,1.28Q48,42,43.278,42C42.341,42,42,41.658,42,40.717c0-.888,0-1.778,0-2.715-.669,0-1.271-.022-1.868.015-.156.009-.315.189-.447.317-.456.443-.9.9-1.347,1.344-.11.109-.317.213-.318.321-.022,1.323-.014,2.647-.014,4,1.289,0,2.494,0,3.7,0,.944,0,1.287.34,1.292,1.269,0,.891,0,1.78,0,2.708.178.009.3.021.417.021h7.248c1.011,0,1.329.326,1.33,1.354,0,1.875-.009,3.75,0,5.625a3,3,0,1,0,5.993-.225q0-26.055,0-52.111c0-.2-.018-.4-.027-.587H16.01c0,1.339.018,2.631-.009,3.921a1.286,1.286,0,0,0,.418,1.036q3,2.963,5.97,5.959c.542.544,1.061,1.113,1.407,1.477a7.735,7.735,0,0,1,1.542-.427c1.164-.052,2.331-.024,3.5-.015.724,0,1.176.41,1.162,1.016a1.014,1.014,0,0,1-1.14.978c-.9.01-1.791,0-2.687,0h-.68a18.584,18.584,0,0,1,1.059,1.543.805.805,0,0,0,.834.465C31.092,18,34.8,18,38.505,18.006a3.457,3.457,0,0,1,.624.017.991.991,0,0,1-.012,1.966,3.036,3.036,0,0,1-.561.015q-5.123,0-10.245,0H27.6c.167.627.292,1.173.468,1.7a.585.585,0,0,0,.382.285,2.607,2.607,0,0,0,.623.014q4.871,0,9.745,0c.734,0,1.182.393,1.181,1s-.45.984-1.185,1c-.146,0-.291,0-.436,0h-9.69l1.08,3.978Zm6,22.062H12.012c0,1.606,0,3.167,0,4.727A3.012,3.012,0,0,0,15.26,58q17.557,0,35.111,0c.172,0,.345-.024.6-.044a5.787,5.787,0,0,1-.977-3.744c.035-1.373.008-2.745.008-4.164M46.01,23.952h5.943V8.056H46.01Zm-34,.083c0,.792-.007,1.538,0,2.283a1.087,1.087,0,0,1-.792,1.132,10.846,10.846,0,0,0-1.319.557,1.134,1.134,0,0,1-1.56-.26c-.405-.466-.8-.94-1.122-1.315-.992.992-1.824,1.823-2.7,2.7.395.382.839.819,1.287,1.25a1.106,1.106,0,0,1,.23,1.464,8.162,8.162,0,0,0-.534,1.26,1.183,1.183,0,0,1-1.31.9C3.477,33.981,2.759,34,2.048,34v4c.756,0,1.479.02,2.2,0A1.157,1.157,0,0,1,5.5,38.89a11.76,11.76,0,0,0,.5,1.206A1.1,1.1,0,0,1,5.726,41.7c-.423.422-.863.827-1.23,1.176.913.913,1.746,1.744,2.648,2.647.383-.407.81-.856,1.235-1.309a1.1,1.1,0,0,1,1.459-.249A7.871,7.871,0,0,0,11.1,44.5a1.18,1.18,0,0,1,.922,1.3c-.028.718-.006,1.44-.006,2.151h1.966v-3.9a8.105,8.105,0,0,1-7.95-7.516,7.783,7.783,0,0,1,1.512-5.227,8.032,8.032,0,0,1,6.44-3.334v-3.94ZM29.976,34.045H22.058v5.922h7.918Zm21.986,0H44.043v5.932h7.918ZM18.036,24.466a10.655,10.655,0,0,0,4.2,1.636c.137.037.371-.135.507-.265q.988-.954,1.944-1.94c.489-.5,1.216-.958,1.366-1.554a3.971,3.971,0,0,0-.469-2.025c-.29-.8-.675-1.56-1.035-2.372-2.241,2.241-4.357,4.358-6.517,6.519m2.394-5.384L10.473,9.117c-.451.426-.96.907-1.42,1.341q5.013,5.008,10.02,10.016l1.358-1.39M13.988,40.03c-2.328-.278-3.844-1.728-3.966-3.755a3.948,3.948,0,0,1,.771-2.64,4.155,4.155,0,0,1,3.169-1.665V30.027a5.989,5.989,0,0,0-5.936,6.387c.188,3.107,3.212,5.913,5.961,5.508ZM9.516,2.968a2.527,2.527,0,0,0-3.665-.34c-1.119,1.024-2.2,2.1-3.219,3.22a2.453,2.453,0,0,0,.381,3.637c2.16-2.166,4.316-4.326,6.5-6.517m3.523,3.6-.94.867c3.344,3.343,6.677,6.679,9.951,9.956L23,16.515,13.04,6.564m4.406,15.572L7.518,12.18l-.924.717L16.611,22.92l.834-.785m23.5,23.907h-7.9v1.945h7.9ZM11.15,4.555,4.571,11.14l.359.336L11.511,4.9l-.361-.34m2.838,29.49a1.949,1.949,0,1,0,0,3.9Zm13.591-6.472c-.286-1.044-.532-1.932-.759-2.757l-2.016,2,2.775.756M37.031,36A1,1,0,1,0,38,37.015,1.007,1.007,0,0,0,37.031,36" transform="translate(0 0)" fill="#fff"/>
    <path id="Path_139497" data-name="Path 139497" d="M23.993,6.672h6.621a2.49,2.49,0,0,1,.561.022.992.992,0,0,1,.012,1.949,1.951,1.951,0,0,1-.5.025H17.322c-.063,0-.126,0-.187,0-.687-.024-1.122-.406-1.126-.993a1,1,0,0,1,1.113-1c1.437-.012,2.874,0,4.311,0h2.561" transform="translate(8.004 3.334)" fill="#fff"/>
    <path id="Path_139498" data-name="Path 139498" d="M25.332,11.337c-.937,0-1.873.006-2.811,0-.735-.006-1.182-.392-1.182-1s.442-.994,1.18-1q2.813-.011,5.622,0c.735,0,1.184.39,1.184,1s-.45.993-1.182,1c-.937.007-1.874,0-2.811,0" transform="translate(10.67 4.668)" fill="#fff"/>
    <path id="Path_139499" data-name="Path 139499" d="M20.347,4.006c.6,0,1.208-.006,1.812,0,.728.01,1.177.405,1.169,1.011A1.01,1.01,0,0,1,22.194,6q-1.874.016-3.747,0a1,1,0,0,1-1.105-1.01,1.011,1.011,0,0,1,1.132-.983c.624-.012,1.25,0,1.873,0" transform="translate(8.67 2.001)" fill="#fff"/>
    <path id="Path_139500" data-name="Path 139500" d="M25.668,4.008c.645,0,1.292-.013,1.936,0A1,1,0,1,1,27.6,6q-1.935.025-3.871,0a1,1,0,1,1,0-1.988c.645-.018,1.292,0,1.937,0" transform="translate(11.336 2.001)" fill="#fff"/>
  </g>
</svg>
