<svg xmlns="http://www.w3.org/2000/svg" xmlns:xlink="http://www.w3.org/1999/xlink" width="89.867" height="90" viewBox="0 0 89.867 90">
  <defs>
    <clipPath id="clip-path">
      <rect id="Rectangle_35103" data-name="Rectangle 35103" width="89.867" height="90" fill="none"/>
    </clipPath>
  </defs>
  <g id="Group_86813" data-name="Group 86813" clip-path="url(#clip-path)">
    <path id="Path_123187" data-name="Path 123187" d="M89.858,90H8.674c.114-1.757.217-3.514.345-5.27a20.67,20.67,0,0,1,7.41-14.764c1.191-1.019,2.545-1.847,3.843-2.776Q8.51,60.272,8.678,46.462c-1.113,0-2.163.038-3.209-.007a5.788,5.788,0,0,1-5.31-6.966,5.983,5.983,0,0,1,3.094-4.016L1.726,31.889A19.961,19.961,0,0,1,.308,20.34,20.664,20.664,0,0,1,21.124,2.954c5.107,0,10.214.044,15.32-.024a26.463,26.463,0,0,0,5.673-.539C44.666,1.79,47.131.835,49.733,0,58.612,7.532,62.72,17.051,60.062,29.095H89.823c.02.274.043.449.043.623q0,30.141-.008,60.282M52.333,34.858c.531,0,1.113-.034,1.689.01a.875.875,0,0,0,1.044-.669c.27-.773.641-1.51.958-2.268a24.391,24.391,0,0,0,1.489-14.4A25.081,25.081,0,0,0,49.305,3.605a1.029,1.029,0,0,0-.9-.074,30.159,30.159,0,0,1-12,2.355c-5.135,0-10.27-.011-15.4.009a23.653,23.653,0,0,0-3.068.2C9.072,7.3,2.242,15.92,2.947,24.822c.277,3.493,1.718,6.551,3.068,9.667a.707.707,0,0,0,.51.35c.694.041,1.392.017,2.187.017,0-.549-.009-1.011,0-1.473A13.181,13.181,0,0,1,27.327,21.559c1.039.472,2.062,1.375,3.088,1.368,1.062-.006,2.114-.888,3.177-1.371A13.117,13.117,0,0,1,51.827,30.6a40.235,40.235,0,0,1,.506,4.258m5.352.607c2.416,1.459,3.64,3.565,3.063,6.363-.607,2.947-2.678,4.4-5.64,4.717V55.31c0,2.759-.011,5.519.016,8.279,0,.287.174.771.366.828a16.305,16.305,0,0,1,7.032,4.811,1.864,1.864,0,0,0,1.222.458q8.007.047,16.015.012a4.614,4.614,0,0,1,3.467,1.432c1.05,1.066,2.112,2.121,3.175,3.175a5.419,5.419,0,0,0,.543.417V31.984H82.35q-11.22,0-22.439.016c-.316,0-.806.143-.917.367-.491.992-.873,2.038-1.309,3.1m-28.679-.572v1.025c0,2.849,0,5.7,0,8.546C29,47.685,27.281,49.392,24.043,49.4q-5.634.008-11.266,0H11.746A18.837,18.837,0,0,0,32.111,66.732C40.954,66.086,49.866,57.1,49.1,49.4h-.933c-3.844,0-7.687.015-11.53,0a4.376,4.376,0,0,1-4.717-4.729q-.008-4.406,0-8.81v-.961ZM84.9,76.882c-1.172-1.164-2.32-2.258-3.411-3.406a2.752,2.752,0,0,0-2.175-.91c-4.724.032-9.454-.131-14.169.074A6.532,6.532,0,0,1,59.3,70.207a10.108,10.108,0,0,0-8.505-3.433c-6.631.209-11.4,6.068-9.948,12.3,2.115,9.072,12.792,9.858,17.512,5.54,1-.911,1.909-1.912,2.909-2.817a1.924,1.924,0,0,1,1.138-.474c1.935-.047,3.874.011,5.808-.046a2.148,2.148,0,0,0,1.289-.531c1.009-.934,1.94-1.953,2.972-3.013,1.058,1.076,2.035,2.081,3.029,3.07.2.2.46.464.7.47,1.348.032,2.7.01,4.045-.036a1.152,1.152,0,0,0,.693-.337c1.307-1.3,2.592-2.625,3.962-4.02M30.324,71.629l-4.658,4.749c-1.138-2.266-2.264-4.508-3.386-6.744A18.092,18.092,0,0,0,11.893,87.021H17.43c0-1.842-.018-3.6.006-5.362.019-1.337,0-2.651-.844-3.493l1.886-2.211a6.3,6.3,0,0,1,1.82,4.336c.02,1.938.006,3.877.011,5.815,0,.309.027.617.041.933H42.461A13.291,13.291,0,0,1,37.89,79.07,13.137,13.137,0,0,1,39.64,70.1l-.993-.485c-1.151,2.295-2.279,4.542-3.474,6.923l-4.849-4.908M49.111,31.937c-.017-.164-.02-.279-.041-.39a10.241,10.241,0,0,0-14.359-7.31c-1.2.551-2.37,1.156-3.537,1.768a1.292,1.292,0,0,1-1.375.023c-1.208-.659-2.444-1.272-3.7-1.838a10.246,10.246,0,0,0-13.873,5.941c-.2.565-.306,1.162-.471,1.806ZM34.862,34.909c-.025.272-.064.5-.064.727,0,3-.01,5.992,0,8.988.005,1.367.5,1.847,1.873,1.848q5.9.008,11.8,0c.255,0,.509-.033.791-.052V34.909ZM11.679,46.47c4.383,0,8.662.011,12.941-.008.977-.005,1.481-.607,1.486-1.68.01-2.377,0-4.755,0-7.132V34.913H11.679ZM86.916,87.049V78.966c-1.334,1.37-2.5,2.563-3.659,3.76a4.506,4.506,0,0,1-3.54,1.466,10.186,10.186,0,0,0-1.582.006,5.4,5.4,0,0,1-5.492-2.133c-.031-.043-.1-.06-.342-.205-.214.282-.454.617-.714.936a3.743,3.743,0,0,1-3.329,1.411c-1.55-.08-3.107-.027-4.661-.01a1.287,1.287,0,0,0-.811.193c-.872.845-1.7,1.742-2.572,2.659ZM41.457,67.8a11.131,11.131,0,0,1,4.9-3.111c1.867-.509,3.817-.716,5.777-1.064V50.5a22.285,22.285,0,0,1-11.61,16.731l.934.564M52.221,43.493a28.281,28.281,0,0,0,3.507-.03A2.716,2.716,0,0,0,57.984,40.8a2.678,2.678,0,0,0-2.031-2.838,23.419,23.419,0,0,0-3.732-.043ZM8.656,37.8c-1.043,0-2.007-.03-2.967.006a2.855,2.855,0,0,0-2.76,2.676,2.769,2.769,0,0,0,2.288,2.987,26.372,26.372,0,0,0,3.439.03ZM32.688,69.6l1.784,1.857,1.193-2.378-2.977.521m-7.433-.515,1.119,2.233,1.76-1.736-2.879-.5" fill="#602207"/>
    <path id="Path_123188" data-name="Path 123188" d="M76.965,5.307l2.672,1.121L72.389,23.821l-2.675-1.113c2.422-5.811,4.815-11.555,7.251-17.4" fill="#602207"/>
    <path id="Path_123189" data-name="Path 123189" d="M87.387,14.65l-5.2,5.181-1.853-2.093,3.152-2.958-3.371-3.307L82.19,9.441l5.2,5.209" fill="#602207"/>
    <path id="Path_123190" data-name="Path 123190" d="M69.119,17.75l-1.987,2-5.165-5.178,5.174-5.182,1.917,1.92-3.385,3.164,3.446,3.274" fill="#602207"/>
    <rect id="Rectangle_35096" data-name="Rectangle 35096" width="17.275" height="2.822" transform="translate(63.87 61.045)" fill="#602207"/>
    <rect id="Rectangle_35097" data-name="Rectangle 35097" width="17.3" height="2.782" transform="translate(58.033 55.233)" fill="#602207"/>
    <rect id="Rectangle_35098" data-name="Rectangle 35098" width="17.298" height="2.763" transform="translate(63.849 43.663)" fill="#602207"/>
    <rect id="Rectangle_35099" data-name="Rectangle 35099" width="11.503" height="2.744" transform="translate(72.514 37.868)" fill="#602207"/>
    <rect id="Rectangle_35100" data-name="Rectangle 35100" width="8.574" height="2.766" transform="translate(63.821 49.467)" fill="#602207"/>
    <rect id="Rectangle_35101" data-name="Rectangle 35101" width="5.709" height="2.754" transform="translate(78.301 55.265)" fill="#602207"/>
    <rect id="Rectangle_35102" data-name="Rectangle 35102" width="5.719" height="2.756" transform="translate(63.842 37.852)" fill="#602207"/>
    <path id="Path_123191" data-name="Path 123191" d="M26.138,60.917V58.088c.98,0,1.936-.039,2.888.008,2.845.141,5.492-.318,7.6-2.449l2.03,2.022c-3.485,3.709-7.973,3.428-12.517,3.248" fill="#602207"/>
    <path id="Path_123192" data-name="Path 123192" d="M43.521,76.939a7.232,7.232,0,1,1,7.2,7.249,7.2,7.2,0,0,1-7.2-7.249m11.576.033A4.353,4.353,0,1,0,50.7,81.3a4.394,4.394,0,0,0,4.4-4.329" fill="#602207"/>
  </g>
</svg>
