<svg xmlns="http://www.w3.org/2000/svg" xmlns:xlink="http://www.w3.org/1999/xlink" width="620" height="317" viewBox="0 0 620 317">
  <defs>
    <clipPath id="clip-path">
      <rect id="Rectangle_37889" data-name="Rectangle 37889" width="150.152" height="150" fill="#fff"/>
    </clipPath>
  </defs>
  <g id="Group_124000" data-name="Group 124000" transform="translate(1558 9254)">
    <rect id="Rectangle_37884" data-name="Rectangle 37884" width="620" height="317" transform="translate(-1558 -9254)" fill="#ff5151" opacity="0.7"/>
    <g id="Group_123999" data-name="Group 123999" transform="translate(-1323 -9169.836)">
      <g id="Group_123999-2" data-name="Group 123999" clip-path="url(#clip-path)">
        <path id="Path_187125" data-name="Path 187125" d="M150.151,116.884A4.629,4.629,0,0,0,146.925,112c-3.369-1.362-6.774-2.84-10.068-4.27q-1.728-.751-3.466-1.5V95.356c0-3.521-1.068-4.594-4.566-4.594H121.3c-12.505,0-25.437,0-38.157.016h-.012c-.508,0-.68-.06-1.046-.581a13.521,13.521,0,0,0-2.167-2.26c-.336-.3-.654-.584-.956-.88-.083-.082-.179-.166-.276-.251-.062-.054-.146-.127-.206-.185-.048-1.024-.04-2.055-.032-3.143,0-.092,0-.184,0-.276H86.6q11.786,0,23.575-.012a34.265,34.265,0,0,0,4.136-.254c13.021-1.616,22.56-11.834,23.735-25.425,1.042-12.047-7.147-23.9-19.048-27.566a1.771,1.771,0,0,1-1.381-1.371,24.649,24.649,0,0,0-28.327-16.1c-.561.119-.769.07-1.273-.523C79.858,2.343,69.666-1.5,57.721.525A31.583,31.583,0,0,0,39.552,10.19a32.956,32.956,0,0,0-8.359,18.932c-.075.683-.185.812-.909,1.061a27.249,27.249,0,0,0,8.76,53.006c7.4.037,14.919.028,22.193.02,3.252,0,6.521,0,9.757-.007h.7c0,.1,0,.208,0,.311a25.39,25.39,0,0,1-.051,2.784c-.01.066-.09.278-.622.831-.3.312-.64.607-1,.92A9.4,9.4,0,0,0,68.1,90.093a1.133,1.133,0,0,1-1.234.685h-.009c-14.705-.022-29.656-.019-44.115-.014H20.876c-2.89,0-4.126,1.234-4.132,4.124q0,1.265-.012,2.528c-.014,2.555-.03,5.2.043,7.8.026.913-.111,1.131-.914,1.456-2.524,1.022-5.062,2.117-7.516,3.175-1.854.8-3.772,1.628-5.665,2.415A3.91,3.91,0,0,0,0,116.256c.044,7.164.043,13.751,0,20.138a4.292,4.292,0,0,0,2.413,4.1c5.532,3.1,10.522,5.952,15.254,8.728a4.45,4.45,0,0,0,4.89.03c5.045-2.942,10.178-5.877,15.258-8.724a4.414,4.414,0,0,0,2.443-4.246c-.064-7.2-.086-13.257.015-19.38a4.628,4.628,0,0,0-3.208-4.893c-3.375-1.364-6.771-2.838-10.055-4.264q-1.7-.74-3.4-1.472V97.533l10.071,0c10.634,0,21.631,0,32.447-.025,1.471,0,1.811.073,2.1.906a3.519,3.519,0,0,0,1.843,2.022c1.656.655,1.834,1.738,1.62,4.076a4.635,4.635,0,0,0,.011,1.138c.064.409.093.6-.646.9-2.181.9-4.381,1.85-6.508,2.767-2.224.958-4.524,1.949-6.8,2.885a4.1,4.1,0,0,0-2.811,4.213c.06,7.057.059,13.545,0,19.835a4.467,4.467,0,0,0,2.553,4.332c5.248,2.928,10.338,5.836,15.129,8.644a4.453,4.453,0,0,0,4.89.019c5.054-2.949,10.188-5.884,15.258-8.724a4.416,4.416,0,0,0,2.433-4.252c-.051-5.83-.1-12.616.016-19.379a4.629,4.629,0,0,0-3.218-4.887c-3.363-1.359-6.763-2.836-10.052-4.263q-1.739-.754-3.487-1.51c0-.234,0-.468,0-.7.009-1.045.018-2.125-.024-3.192-.026-.653.032-.855.631-1.195a8.581,8.581,0,0,0,2.957-2.916,1.143,1.143,0,0,1,1.216-.717c10.66.022,21.5.023,31.978.023h10.866c.173,0,.348.006.534.015q0,.82,0,1.633c-.008,2.231-.015,4.339.029,6.492.011.543-.033.611-.526.816-2.14.889-4.3,1.822-6.392,2.723-2.305.994-4.689,2.022-7.045,2.993a4.1,4.1,0,0,0-2.8,4.218c.054,6.488.054,13.162,0,19.837a4.406,4.406,0,0,0,2.429,4.245c4.657,2.6,9.69,5.478,15.387,8.8a4.232,4.232,0,0,0,4.626.008c5.971-3.464,10.862-6.259,15.39-8.8a4.415,4.415,0,0,0,2.427-4.255c-.051-5.859-.1-12.671.016-19.38M126.619,139.23v1.62c-.27-.148-.532-.293-.793-.442l-1.669-.951c-2.291-1.3-4.66-2.653-6.961-4.02a1.547,1.547,0,0,1-.481-.475c-.052-4.053-.048-8.061-.045-12.3l0-1.872,1.037.443c3.043,1.3,5.919,2.521,8.8,3.788a.644.644,0,0,1,.086.155c.03,4.637.028,9.213.027,14.057m6.749-13.6c0-.55.034-.611.523-.809,2.171-.879,4.351-1.825,6.459-2.739q1.436-.623,2.872-1.241l.115-.048v1.489c0,4.408,0,8.571-.025,12.811a1.223,1.223,0,0,1-.063.111c-2.927,1.708-5.826,3.366-8.9,5.122l-.96.549q0-2.206,0-4.414c0-3.549.006-7.219-.027-10.831m4.771-9.976-.2.088c-2.374,1.028-4.829,2.091-7.259,3.086a1.67,1.67,0,0,1-.908.143c-2.4-.971-4.805-2.006-7.353-3.1l-.511-.22.118-.05c2.76-1.186,5.369-2.307,7.962-3.39a1.5,1.5,0,0,1,.305.1c2.475,1.045,4.944,2.1,7.52,3.208Zm-66.459,23.6v1.6l-.529-.3-1.948-1.11c-2.286-1.3-4.649-2.645-6.946-4.005a1.539,1.539,0,0,1-.482-.474c-.052-4.057-.048-8.071-.044-12.319v-1.857l1.079.46c3.029,1.29,5.89,2.509,8.755,3.77a.616.616,0,0,1,.087.155c.03,4.64.029,9.223.027,14.075m3.379-43.719h0a1.4,1.4,0,0,1-1.374-1.45,1.425,1.425,0,0,1,1.381-1.317h.045a1.383,1.383,0,0,1-.05,2.766m.2,16.753c2.452,1,4.9,2.059,7.5,3.178l.435.188-.131.057c-2.74,1.177-5.329,2.289-7.882,3.362a.552.552,0,0,1-.238-.028c-2.525-1.061-5.025-2.133-7.671-3.269l-.305-.13c2.464-1.065,5.008-2.162,7.524-3.2a1.7,1.7,0,0,1,.77-.159m13.119,22.307a1.537,1.537,0,0,1-.174.659c-2.815,1.673-5.641,3.284-8.631,4.988l-1.116.637v-1.529c0-4.881,0-9.493.028-14.155a.587.587,0,0,1,.084-.152c2.874-1.266,5.745-2.491,8.784-3.786L88.4,120.8l0,3.807c0,3.272.007,6.656-.029,9.98M83.686,76.432l-8.48,0q-5.458,0-10.918,0c-8.163.006-16.605.012-24.906-.013a20.5,20.5,0,0,1-5.031-40.4c2.767-.674,3.455-1.546,3.5-4.44A25.157,25.157,0,0,1,55.5,7.883a25.584,25.584,0,0,1,7.6-1.159A25.264,25.264,0,0,1,83.734,17.368c1.782,2.51,2.511,2.761,5.554,1.926a18.113,18.113,0,0,1,14.052,1.829,17.768,17.768,0,0,1,8.338,11.122,4.473,4.473,0,0,0,3.806,3.659,20.192,20.192,0,0,1,16.3,20.065,20.409,20.409,0,0,1-16.37,20.025,21.389,21.389,0,0,1-4.386.417c-9.115.026-18.384.024-27.345.021M16.7,138.255c.014.848.028,1.714.037,2.587l-.852-.483c-1.766-1-3.466-1.963-5.159-2.938-.458-.264-.952-.5-1.43-.721a5.652,5.652,0,0,1-2.385-1.582,5.7,5.7,0,0,1-.192-2.869c.041-.526.084-1.071.082-1.6-.009-2.625-.007-5.249-.005-7.956v-1.88c.391.178.778.357,1.158.533a38.743,38.743,0,0,0,5.686,2.281c2.635.748,3.411,1.946,3.192,4.933-.235,3.2-.184,6.357-.132,9.7m11.485-22.611-.24.1a54.242,54.242,0,0,0-4.984,2.24,5.233,5.233,0,0,1-5.567.026,47.815,47.815,0,0,0-5-2.259l-.281-.114.46-.192c1.95-.814,3.793-1.583,5.586-2.473a3.98,3.98,0,0,1,3.979,0c1.8.894,3.643,1.667,5.595,2.486l.455.192m-4.67,15.923c0-2.021-.008-4.112.027-6.162a1.074,1.074,0,0,1,.09-.354c2.874-1.279,5.743-2.5,8.777-3.8l1.057-.452v2.97q0,1.452,0,2.9c-.006,2.57-.012,5.228.026,7.845.008.578-.077.736-.538.991-2.64,1.462-5.223,2.943-7.958,4.51l-1.474.845v-7.276q0-1.01,0-2.021" fill="#fff"/>
        <path id="Path_187126" data-name="Path 187126" d="M96.354,44.9a4.3,4.3,0,0,0,.951-3.564,55.676,55.676,0,0,0-2.41-6.043l-.352-.791a3.508,3.508,0,0,0-3.622-2.092,2.052,2.052,0,0,1-1.432-.324,1.958,1.958,0,0,1-.327-1.375,3.636,3.636,0,0,0-2.138-3.741c-2.231-1.037-4.443-2-6.573-2.857a3.518,3.518,0,0,0-4.05.994,1.949,1.949,0,0,1-1.279.713h0a1.993,1.993,0,0,1-1.3-.724,3.445,3.445,0,0,0-3.9-1.032,65.988,65.988,0,0,0-6.9,2.986,4.443,4.443,0,0,0-1.63,1.874c-.152.263-.3.512-.444.717l-.245.341.072.413a2.143,2.143,0,0,1-.126,1.6,1.675,1.675,0,0,1-1.254.284,3.643,3.643,0,0,0-3.74,2.136c-.967,2.069-1.913,4.231-2.813,6.427a3.609,3.609,0,0,0,1.1,4.322,1.821,1.821,0,0,1,.7,1.151,1.881,1.881,0,0,1-.721,1.185,3.548,3.548,0,0,0-1.131,4.17c.8,2.033,1.71,4.191,2.8,6.6a3.468,3.468,0,0,0,3.628,2.075,2.038,2.038,0,0,1,1.421.317,2,2,0,0,1,.327,1.391,3.636,3.636,0,0,0,2.145,3.737c2.2,1.022,4.413,1.982,6.574,2.854a3.518,3.518,0,0,0,4.046-1,1.955,1.955,0,0,1,1.273-.713h0a2.028,2.028,0,0,1,1.312.736,3.928,3.928,0,0,0,2.8,1.27,3.819,3.819,0,0,0,1.4-.276c2.417-.954,4.784-2.044,6.576-2.887a3.4,3.4,0,0,0,1.939-3.537,2.061,2.061,0,0,1,.326-1.434,1.866,1.866,0,0,1,1.377-.329,3.52,3.52,0,0,0,3.657-2.007c1.131-2.412,2.1-4.654,2.977-6.854a3.4,3.4,0,0,0-1.057-3.914c-1.195-1.107-1.079-1.465.042-2.8M59.813,51.254a8.108,8.108,0,0,0,.032-9.705,3.575,3.575,0,0,1,1.029-2.575A8.237,8.237,0,0,0,67.7,32.1a3.888,3.888,0,0,1,2.537-.958,8.443,8.443,0,0,0,9.694-.027,3.822,3.822,0,0,1,2.546,1.149c.777,3.507,2.975,5.742,6.718,6.832.253.074.721.944.972,1.411.112.208.225.42.344.626l-.006.011c-.166.277-.292.484-.419.689a8.012,8.012,0,0,0-.015,9.061,2.466,2.466,0,0,1-1.2,2.967,8.142,8.142,0,0,0-6.413,6.592,2.258,2.258,0,0,1-1.233.928,2.188,2.188,0,0,1-1.472.2,8.069,8.069,0,0,0-9.465-.009,2.112,2.112,0,0,1-1.463-.185,2.188,2.188,0,0,1-1.246-.951,8.242,8.242,0,0,0-6.712-6.64,3.571,3.571,0,0,1-1.056-2.541" fill="#fff"/>
        <path id="Path_187127" data-name="Path 187127" d="M64.042,16.142V9.721l-.958-.038A21.4,21.4,0,0,0,46.891,16.52C42.656,20.951,40.4,26.786,40.85,32.127l.077.913h6.391l.03-.967c.224-7.389,5.186-15.162,15.763-15.869Z" fill="#fff"/>
        <path id="Path_187128" data-name="Path 187128" d="M75.078,56.925h.033a10.6,10.6,0,1,0-.033,0M71.293,46.447A3.792,3.792,0,0,1,75.059,42.6h.022a3.773,3.773,0,0,1,.031,7.546h-.03a3.793,3.793,0,0,1-3.789-3.7" fill="#fff"/>
      </g>
    </g>
  </g>
</svg>
