<svg xmlns="http://www.w3.org/2000/svg" width="229" height="277" viewBox="0 0 229 277">
  <g id="Group_124955" data-name="Group 124955" transform="translate(-180 -1146)">
    <rect id="Rectangle_35531" data-name="Rectangle 35531" width="229" height="277" rx="10" transform="translate(180 1146)" fill="#88e0ef"/>
    <g id="Group_89571" data-name="Group 89571" transform="translate(0.5 90)">
      <g id="Path_137458" data-name="Path 137458" transform="translate(249.5 1150)" fill="#88e0ef">
        <path d="M 45 85 C 39.59783172607422 85 34.35990142822266 83.94309997558594 29.43173408508301 81.85865020751953 C 24.66914939880371 79.84425354003906 20.39086723327637 76.95941925048828 16.71573257446289 73.28426361083984 C 13.04058361053467 69.609130859375 10.1557502746582 65.33084869384766 8.141349792480469 60.56826782226562 C 6.056900024414062 55.64009857177734 5 50.40216827392578 5 45 C 5 39.59783172607422 6.056900024414062 34.35990142822266 8.141349792480469 29.43173408508301 C 10.1557502746582 24.66914939880371 13.04058361053467 20.39086723327637 16.71573257446289 16.71573257446289 C 20.39086723327637 13.04058361053467 24.66914939880371 10.1557502746582 29.43173408508301 8.141349792480469 C 34.35990142822266 6.056900024414062 39.59783172607422 5 45 5 C 50.40216827392578 5 55.64009857177734 6.056900024414062 60.56826782226562 8.141349792480469 C 65.33084869384766 10.1557502746582 69.609130859375 13.04058361053467 73.28426361083984 16.71573257446289 C 76.95941925048828 20.39086723327637 79.84425354003906 24.66914939880371 81.85865020751953 29.43173408508301 C 83.94309997558594 34.35990142822266 85 39.59783172607422 85 45 C 85 50.40216827392578 83.94309997558594 55.64009857177734 81.85865020751953 60.56826782226562 C 79.84425354003906 65.33084869384766 76.95941925048828 69.609130859375 73.28426361083984 73.28426361083984 C 69.609130859375 76.95941925048828 65.33084869384766 79.84425354003906 60.56826782226562 81.85865020751953 C 55.64009857177734 83.94309997558594 50.40216827392578 85 45 85 Z" stroke="none"/>
        <path d="M 45 10 C 25.70093536376953 10 10 25.70093536376953 10 45 C 10 64.29906463623047 25.70093536376953 80 45 80 C 64.29906463623047 80 80 64.29906463623047 80 45 C 80 25.70093536376953 64.29906463623047 10 45 10 M 45 0 C 69.85280609130859 0 90 20.14719390869141 90 45 C 90 69.85280609130859 69.85280609130859 90 45 90 C 20.14719390869141 90 0 69.85280609130859 0 45 C 0 20.14719390869141 20.14719390869141 0 45 0 Z" stroke="none" fill="#fff"/>
      </g>
      <text id="_1" data-name="1" transform="translate(282.5 1211.5)" fill="#fff" font-size="42" font-family="Roboto-Black, Roboto" font-weight="800"><tspan x="0" y="0">1</tspan></text>
    </g>
  </g>
</svg>
