<svg xmlns="http://www.w3.org/2000/svg" width="229" height="277" viewBox="0 0 229 277">
  <rect id="Rectángulo_35545" data-name="Rectángulo 35545" width="229" height="277" rx="10" fill="#88e0ef"/>
  <g id="Grupo_89576" data-name="Grupo 89576" transform="translate(-179.5 -1056)">
    <g id="Trazado_137458" data-name="Trazado 137458" transform="translate(249.5 1150)" fill="#88e0ef">
      <path d="M 45 85 C 39.59783172607422 85 34.35990142822266 83.94309997558594 29.43173408508301 81.85865020751953 C 24.66914939880371 79.84425354003906 20.39086723327637 76.95941925048828 16.71573257446289 73.28426361083984 C 13.04058361053467 69.609130859375 10.1557502746582 65.33084869384766 8.141349792480469 60.56826782226562 C 6.056900024414062 55.64009857177734 5 50.40216827392578 5 45 C 5 39.59783172607422 6.056900024414062 34.35990142822266 8.141349792480469 29.43173408508301 C 10.1557502746582 24.66914939880371 13.04058361053467 20.39086723327637 16.71573257446289 16.71573257446289 C 20.39086723327637 13.04058361053467 24.66914939880371 10.1557502746582 29.43173408508301 8.141349792480469 C 34.35990142822266 6.056900024414062 39.59783172607422 5 45 5 C 50.40216827392578 5 55.64009857177734 6.056900024414062 60.56826782226562 8.141349792480469 C 65.33084869384766 10.1557502746582 69.609130859375 13.04058361053467 73.28426361083984 16.71573257446289 C 76.95941925048828 20.39086723327637 79.84425354003906 24.66914939880371 81.85865020751953 29.43173408508301 C 83.94309997558594 34.35990142822266 85 39.59783172607422 85 45 C 85 50.40216827392578 83.94309997558594 55.64009857177734 81.85865020751953 60.56826782226562 C 79.84425354003906 65.33084869384766 76.95941925048828 69.609130859375 73.28426361083984 73.28426361083984 C 69.609130859375 76.95941925048828 65.33084869384766 79.84425354003906 60.56826782226562 81.85865020751953 C 55.64009857177734 83.94309997558594 50.40216827392578 85 45 85 Z" stroke="none"/>
      <path d="M 45 10 C 25.70093536376953 10 10 25.70093536376953 10 45 C 10 64.29906463623047 25.70093536376953 80 45 80 C 64.29906463623047 80 80 64.29906463623047 80 45 C 80 25.70093536376953 64.29906463623047 10 45 10 M 45 0 C 69.85280609130859 0 90 20.14719390869141 90 45 C 90 69.85280609130859 69.85280609130859 90 45 90 C 20.14719390869141 90 0 69.85280609130859 0 45 C 0 20.14719390869141 20.14719390869141 0 45 0 Z" stroke="none" fill="#fff"/>
    </g>
    <path id="Trazado_187814" data-name="Trazado 187814" d="M18.519-30.29v5.435h-.308A10.376,10.376,0,0,0,11.843-23a7.836,7.836,0,0,0-3.066,5.158,8.082,8.082,0,0,1,5.906-2.3,7.538,7.538,0,0,1,6.173,2.83,11.415,11.415,0,0,1,2.3,7.424A10.453,10.453,0,0,1,21.81-4.655,9.585,9.585,0,0,1,18.057-.933,10.784,10.784,0,0,1,12.715.41,11.145,11.145,0,0,1,7.034-1.036a9.94,9.94,0,0,1-3.9-4.132A13.607,13.607,0,0,1,1.7-11.361V-14.13a17.237,17.237,0,0,1,1.979-8.3A14.347,14.347,0,0,1,9.331-28.2a16.153,16.153,0,0,1,8.142-2.092ZM12.284-14.848a3.954,3.954,0,0,0-2.3.636,4.036,4.036,0,0,0-1.374,1.559v2.071q0,5.66,3.917,5.66a3.178,3.178,0,0,0,2.635-1.415,5.767,5.767,0,0,0,1.056-3.548,5.661,5.661,0,0,0-1.077-3.579A3.444,3.444,0,0,0,12.284-14.848Z" transform="translate(282.5 1211.5)" fill="#fff"/>
  </g>
</svg>

