<svg id="Group_89466" data-name="Group 89466" xmlns="http://www.w3.org/2000/svg" xmlns:xlink="http://www.w3.org/1999/xlink" width="89.985" height="90" viewBox="0 0 89.985 90">
  <defs>
    <clipPath id="clip-path">
      <rect id="Rectangle_35111" data-name="Rectangle 35111" width="89.985" height="90" fill="#602207"/>
    </clipPath>
  </defs>
  <g id="Group_89465" data-name="Group 89465" clip-path="url(#clip-path)">
    <path id="Path_123199" data-name="Path 123199" d="M89.985,53.087A2.671,2.671,0,0,1,87.88,54.1c-3.583.335-7.164.7-10.876,1.072-.1-.955-.2-1.9-.322-2.97l10.259-1.046v-12.3c-2.341-.237-4.664-.47-6.986-.706-1.077-.109-2.154-.223-3.231-.334a1.548,1.548,0,0,1-1.341-1.093q-1.508-3.687-3.068-7.35a1.714,1.714,0,0,1,.333-1.938c1.846-2.235,3.676-4.484,5.511-6.728.275-.335.545-.675.777-.965l-8.695-8.686c-1.21.987-2.5,2.036-3.782,3.087s-2.6,2.1-3.868,3.18a1.887,1.887,0,0,1-2.254.21q-3.311-1.488-6.7-2.793a1.947,1.947,0,0,1-1.5-1.794c-.3-3.29-.659-6.575-1-9.9H38.853c-.3,2.939-.592,5.845-.885,8.752-.012.116-.013.234-.023.351-.174,2.052-.263,2.053-2.159,2.765-2.047.768-4.05,1.659-6.042,2.566-1.139.52-1.468.548-2.457-.26-2.516-2.055-5.03-4.111-7.469-6.1L11.131,19.85c.876,1.074,1.888,2.318,2.9,3.56q1.611,1.973,3.225,3.945c.75.921.71,1.293.221,2.391-.961,2.158-1.887,4.336-2.715,6.548a2.051,2.051,0,0,1-1.913,1.6c-3.119.277-6.232.625-9.347.946-.141.014-.281.036-.462.06V51.139L13.29,52.184c-.1,1.018-.195,1.961-.3,2.968-2.515-.248-4.954-.485-7.391-.729-1.369-.137-2.738-.272-4.1-.433a1.489,1.489,0,0,1-1.494-1.7Q-.006,45,.006,37.706c0-1.08.469-1.584,1.583-1.7,3.231-.344,6.462-.679,9.7-.987a.929.929,0,0,0,.938-.694c.634-1.664,1.323-3.309,2.049-4.936a.933.933,0,0,0-.152-1.156c-2.039-2.455-4.05-4.934-6.066-7.409-.863-1.059-.831-1.674.148-2.655q5-5.007,10-10A1.6,1.6,0,0,1,20.8,8.036c2.476,2.014,4.954,4.027,7.407,6.068a.987.987,0,0,0,1.233.152c1.6-.72,3.218-1.387,4.852-2.019a.931.931,0,0,0,.717-.922c.3-3.235.632-6.468.98-9.7C36.116.413,36.61,0,37.841,0Q45,0,52.162,0C53.371,0,53.867.434,54,1.64q.519,4.846.988,9.7a.864.864,0,0,0,.655.866c1.662.64,3.309,1.324,4.929,2.065a.979.979,0,0,0,1.227-.17c2.409-2,4.843-3.976,7.269-5.959,1.166-.952,1.752-.936,2.793.1q4.974,4.968,9.94,9.942c.963.965.989,1.6.121,2.663-2.016,2.474-4.027,4.953-6.07,7.405a.93.93,0,0,0-.127,1.158q1.083,2.444,2.054,4.935a.87.87,0,0,0,.865.66c3.205.3,6.4.665,9.611.961a1.94,1.94,0,0,1,1.734,1.124Z" fill="#602207"/>
    <path id="Path_123200" data-name="Path 123200" d="M37.085,90a1.954,1.954,0,0,1-1.125-1.734c-.293-3.207-.654-6.407-.956-9.613a.877.877,0,0,0-.663-.866c-1.686-.659-3.362-1.348-5.013-2.09a.87.87,0,0,0-1.079.171q-3.687,3.051-7.406,6.067c-1.071.872-1.685.839-2.658-.125-1.393-1.38-2.783-2.763-4.131-4.1l2.088-2.1,3.351,3.515c.428-.33.7-.531.963-.745,2.312-1.891,4.633-3.771,6.926-5.685a1.9,1.9,0,0,1,2.251-.241c2.263,1.012,4.556,1.959,6.865,2.862a1.788,1.788,0,0,1,1.339,1.626c.32,3.32.674,6.638,1.021,10.007H51.14q.354-3.532.708-7.056c.1-1.019.224-2.037.315-3.057a1.624,1.624,0,0,1,1.177-1.464q3.614-1.451,7.188-3a1.754,1.754,0,0,1,2.019.28q3.354,2.768,6.728,5.509c.336.275.678.543,1.059.848l3.429-3.567c.756.81,1.4,1.5,2.029,2.177-1.431,1.477-2.932,3.106-4.529,4.636-.613.588-1.358.306-1.987-.211-2.488-2.045-5-4.065-7.466-6.133a1.045,1.045,0,0,0-1.311-.146q-2.394,1.083-4.85,2.026a.864.864,0,0,0-.665.858c-.3,3.205-.665,6.4-.957,9.612A1.957,1.957,0,0,1,52.9,90Z" fill="#602207"/>
    <path id="Path_123201" data-name="Path 123201" d="M17.976,42.1c-1.3-.54-1.415-.791-1.476-2.138-.133-2.926.754-5.408,3.24-7.07a6.89,6.89,0,0,1,3.132-1.222,22.887,22.887,0,0,1,6.1.18,7.114,7.114,0,0,1,5.5,6.88c.014.41.013.82.012,1.231,0,1.37-.157,1.6-1.542,2.17a30.011,30.011,0,0,1-.025,3.694,7.257,7.257,0,0,1-5.363,6.386,2.956,2.956,0,0,0-.644.283,11.286,11.286,0,0,1,8.307,2.473A11.445,11.445,0,0,1,43.6,52.495c-5.332-1.551-6.547-5.5-6.055-10.436-1.594-.279-1.548-1.411-1.539-2.575.029-3.68,1.826-6.536,5.047-7.528a13.238,13.238,0,0,1,7.957.023,7.255,7.255,0,0,1,4.964,6.783c.011.381-.018.764.015,1.142a1.771,1.771,0,0,1-1.548,2.169,32.568,32.568,0,0,1-.022,3.7,7.276,7.276,0,0,1-5.32,6.426c-.229.077-.455.161-.855.3,4.488.076,4.821.171,8.589,2.421A11.208,11.208,0,0,1,63.113,52.5c-5.315-1.545-6.574-5.452-6.069-10.44-1.769-.276-1.547-1.586-1.537-2.792.03-3.741,2.186-6.709,5.66-7.5a14.546,14.546,0,0,1,6.792.038,7.347,7.347,0,0,1,5.511,7,5.641,5.641,0,0,1-.028,1.66,2.357,2.357,0,0,1-.89,1.351.973.973,0,0,0-.559,1.019,21.239,21.239,0,0,1-.21,3.76,7.252,7.252,0,0,1-5.149,5.6c-.193.064-.387.126-.579.195-.047.017-.084.062-.023.015a31.14,31.14,0,0,1,4.053.465,10.342,10.342,0,0,1,7.907,10.054c.038,1.406.017,2.813.009,4.219a3.048,3.048,0,0,1-3.39,3.357q-26.976,0-53.951,0c-1.816,0-3.632.009-5.448,0A2.979,2.979,0,0,1,12,67.325a39.659,39.659,0,0,1,.226-6.309,10.252,10.252,0,0,1,9.915-8.483c.639-.021,1.28,0,1.948-.059a8.2,8.2,0,0,1-5.18-3.894c-1.145-2.028-.876-4.253-.931-6.483m51.842,13.76c-1.156,2.7-2.222,5.321-3.4,7.89a8.5,8.5,0,0,0-.407,3.711h8.9a51.632,51.632,0,0,0-.034-5.443c-.328-3.043-2.151-5.007-5.055-6.158M20.191,55.9A7.279,7.279,0,0,0,15.8,59.638c-1.281,2.511-.686,5.191-.807,7.826h8.926a8.451,8.451,0,0,0-.047-2.8c-1.119-2.947-2.428-5.821-3.683-8.766m19.484-.022c-2.47.906-4.271,2.484-4.8,4.954a48.549,48.549,0,0,0-.539,6.612H43.4a8.639,8.639,0,0,0-.047-2.831c-1.109-2.92-2.411-5.766-3.68-8.735M55.362,67.467a42.734,42.734,0,0,0-.05-5.837c-.4-2.861-2.231-4.717-4.966-5.753-.146.306-.28.561-.393.826-1.021,2.388-1.995,4.8-3.073,7.159a8.277,8.277,0,0,0-.346,3.605Zm-14.8-25.376a33.2,33.2,0,0,0,.023,3.578,4.449,4.449,0,0,0,8.695.559,29.7,29.7,0,0,0,.3-4.222c-1.33,0-2.474.064-3.606-.021a7.634,7.634,0,0,1-2.341-.524c-.829-.346-1.54-.835-2.239.2-.156.23-.552.3-.828.434m28.351-.042c-.18-.016-.324-.036-.469-.041-2.163-.065-4.408.4-6.367-1.014-.11-.079-.43.035-.594.146-.5.335-.961.712-1.554,1.16a33.327,33.327,0,0,0,.192,3.626,4.454,4.454,0,0,0,8.77-.207,35.75,35.75,0,0,0,.022-3.67M21.055,42.1c0,1.2-.088,2.351.018,3.48a4.456,4.456,0,0,0,8.739.573,31.518,31.518,0,0,0,.264-4.147c-1.316,0-2.457.068-3.586-.022a6.907,6.907,0,0,1-2.418-.558c-.845-.41-1.5-.674-2.168.226-.17.228-.552.3-.849.448M70.408,39a4.147,4.147,0,0,0-3.395-4.332,19.768,19.768,0,0,0-5.057,0A4.067,4.067,0,0,0,58.6,38.939c.757.319,1.1-.287,1.522-.7a1.675,1.675,0,0,1,2.42-.4,8.152,8.152,0,0,0,2.453,1.107c1.792.172,3.611.053,5.414.053m-50.8.261a9.582,9.582,0,0,0,1.372-.885c1.116-1.054,1.387-1.109,2.781-.429a7.33,7.33,0,0,0,2.3,1.01c1.766.153,3.554.048,5.323.048a4.1,4.1,0,0,0-3.433-4.353,19.805,19.805,0,0,0-4.884,0A4.221,4.221,0,0,0,19.6,39.264m19.508-.1a5.172,5.172,0,0,0,1.183-.61c1.4-1.3,1.481-1.328,3.206-.475a6.013,6.013,0,0,0,1.981.883c1.8.125,3.613.043,5.413.043a4.128,4.128,0,0,0-3.458-4.348,19.814,19.814,0,0,0-4.885,0,4.156,4.156,0,0,0-3.44,4.508M30.849,55.8c-1.148,2.682-2.189,5.257-3.355,7.774a8.178,8.178,0,0,0-.446,3.857h4.427c.079-3.521-.467-7.089,1.826-10.28L30.849,55.8M62.961,67.472a7.86,7.86,0,0,0-.554-4.091c-.557-1.022-.942-2.138-1.4-3.212L59.132,55.8l-2.445,1.391C59.013,60.4,58.4,64,58.522,67.472ZM25.5,60.681c.781-1.832,1.463-3.429,2.179-5.108H23.315c.72,1.683,1.4,3.277,2.184,5.108m38.989,0c.786-1.839,1.474-3.448,2.193-5.128H62.305c.715,1.68,1.4,3.278,2.183,5.128M42.806,55.564c.731,1.707,1.418,3.309,2.191,5.112.783-1.835,1.464-3.431,2.182-5.112Z" fill="#602207"/>
    <path id="Path_123202" data-name="Path 123202" d="M29.555,30.676l-2.1-1.942c9.013-10.158,25.8-10.378,35.077,0l-2.09,1.94a21.271,21.271,0,0,0-30.89.005" fill="#602207"/>
    <rect id="Rectangle_35110" data-name="Rectangle 35110" width="2.907" height="2.888" transform="translate(49.544 61.571)" fill="#602207"/>
  </g>
</svg>
