<svg id="Group_89558" data-name="Group 89558" xmlns="http://www.w3.org/2000/svg" xmlns:xlink="http://www.w3.org/1999/xlink" width="49.991" height="50" viewBox="0 0 49.991 50">
  <defs>
    <clipPath id="clip-path">
      <rect id="Rectangle_35453" data-name="Rectangle 35453" width="49.991" height="50" fill="#ff5151"/>
    </clipPath>
  </defs>
  <g id="Group_89556" data-name="Group 89556" clip-path="url(#clip-path)">
    <path id="Path_137411" data-name="Path 137411" d="M0,37.795a1.022,1.022,0,0,1,1.022-.5q2.2.03,4.392,0a1.379,1.379,0,0,0,.662-.217c.983-.6,1.944-1.241,2.93-1.838.5-.3.916-.2,1.137.2s.051.774-.434,1.08c-1.042.66-2.065,1.351-3.113,2a1.667,1.667,0,0,1-.813.238c-1.414.023-2.829.011-4.28.011v8.223c.157,0,.328,0,.5,0a97.736,97.736,0,0,1,12.067.729c3.013.26,6.023.573,9.039.788a14.3,14.3,0,0,0,7.048-1.454c2.6-1.207,5.13-2.589,7.69-3.9a4.519,4.519,0,0,1,.434-.219.669.669,0,0,1,.874.322.678.678,0,0,1-.135.887.849.849,0,0,1-.2.143,65.58,65.58,0,0,1-9.245,4.583,17.765,17.765,0,0,1-4.5,1.05A1.554,1.554,0,0,0,24.8,50H22.653c-.546-.065-1.09-.142-1.636-.192-3.1-.283-6.207-.572-9.313-.833a70.875,70.875,0,0,0-8.4-.517c-.779.027-1.559-.012-2.338.01A.95.95,0,0,1,0,47.95Z" fill="#ff5151"/>
    <path id="Path_137412" data-name="Path 137412" d="M34.146,15.171H29.8c-.1,1.085-.841,1.466-1.8,1.51a1.127,1.127,0,0,0-1.255,1.008,7.036,7.036,0,0,1-.73,1.693.526.526,0,0,0,.039.691,9.17,9.17,0,0,1,.692.943,1.4,1.4,0,0,1-.141,1.835c-.353.383-.722.752-1.106,1.1a1.418,1.418,0,0,1-1.8.142c-.448-.291-.859-.808-1.322-.852-.441-.042-.919.418-1.4.622-.387.166-.805.26-1.19.43a.66.66,0,0,0-.337.382c-.1.393-.12.8-.2,1.2a1.412,1.412,0,0,1-1.413,1.238,13.637,13.637,0,0,1-1.513,0,1.414,1.414,0,0,1-1.413-1.238c-.08-.4-.1-.809-.2-1.2a.665.665,0,0,0-.338-.384C13.6,23.944,12.8,23.616,12,23.3a.589.589,0,0,0-.459.028c-.345.213-.655.481-.99.711A1.443,1.443,0,0,1,8.6,23.889c-.354-.336-.7-.678-1.033-1.038a1.4,1.4,0,0,1-.14-1.834,11.366,11.366,0,0,1,.722-.982.493.493,0,0,0,.035-.61c-.34-.753-.63-1.528-.965-2.283a.649.649,0,0,0-.373-.337c-.393-.1-.8-.131-1.2-.2a1.439,1.439,0,0,1-1.25-1.456c-.012-.471-.01-.944,0-1.415a1.448,1.448,0,0,1,1.263-1.5c.478-.09,1.081-.014,1.407-.281s.35-.873.534-1.32a8.7,8.7,0,0,1,.567-1.184.512.512,0,0,0-.053-.69,10.482,10.482,0,0,1-.692-.944,1.384,1.384,0,0,1,.126-1.8A15.664,15.664,0,0,1,8.683,4.881a1.389,1.389,0,0,1,1.8-.126c.434.286.831.8,1.277.843s.921-.407,1.4-.608a9.426,9.426,0,0,1,1.2-.408.47.47,0,0,0,.391-.47,11.984,11.984,0,0,1,.2-1.252,1.354,1.354,0,0,1,1.3-1.113c.552-.026,1.107-.026,1.659,0A1.37,1.37,0,0,1,19.239,2.88a6.275,6.275,0,0,1,.171,1.057c.017.4.182.566.57.694a16.507,16.507,0,0,1,2.1.886.505.505,0,0,0,.641-.054c.3-.247.619-.476.944-.692a1.4,1.4,0,0,1,1.835.123c.385.349.754.719,1.1,1.1a1.405,1.405,0,0,1,.134,1.837c-.284.433-.78.834-.825,1.285-.042.426.4.891.594,1.352a7.546,7.546,0,0,1,.412,1.2.448.448,0,0,0,.457.4c.274.028.545.085.819.127,1.052.161,1.37.446,1.62,1.464h4.326V4.713c0-1.479.6-2.08,2.059-2.081.764,0,1.53-.016,2.294.007a.535.535,0,0,0,.624-.426A3.318,3.318,0,0,1,42.7.036,3.349,3.349,0,0,1,43.089,6.6,3.3,3.3,0,0,1,39.144,4.55a.6.6,0,0,0-.7-.462c-.8.028-1.594.017-2.391.005-.306-.005-.442.1-.442.419q.012,4.491.009,8.982a1.066,1.066,0,0,0,.046.19c1.03,0,2.067.012,3.1-.017.115,0,.27-.23.328-.382a3.352,3.352,0,1,1,6.285,2.334,3.385,3.385,0,0,1-3.143,2.155,3.276,3.276,0,0,1-3.085-2.143.623.623,0,0,0-.731-.489c-.908.025-1.817.008-2.775.008-.012.182-.032.337-.032.492,0,2.831.008,5.662-.01,8.493,0,.459.115.641.6.618.763-.036,1.529-.024,2.293,0a.543.543,0,0,0,.631-.423,3.31,3.31,0,0,1,3.687-2.146A3.369,3.369,0,0,1,45.6,25.327a3.341,3.341,0,0,1-6.48,1.293.515.515,0,0,0-.591-.41c-.845.023-1.692.019-2.538.005a1.7,1.7,0,0,1-1.84-1.864q-.009-4.271,0-8.542ZM9.715,22.839c.448-.331.92-.65,1.359-1.009a1,1,0,0,1,1.284-.062A7.794,7.794,0,0,0,14.652,22.8a1.673,1.673,0,0,1,1.565,1.822c.07,1.073.125,1.06,1.2,1.052.293,0,.443-.064.468-.393.036-.468.141-.931.2-1.4a.906.906,0,0,1,.8-.9,7.97,7.97,0,0,0,3-1.238.878.878,0,0,1,1.156.039c.482.378.985.727,1.352,1l1.156-.938c-.389-.527-.737-1.017-1.1-1.492a.857.857,0,0,1-.039-1.116,8.269,8.269,0,0,0,1.263-3.04.867.867,0,0,1,.858-.77c.593-.069,1.181-.181,1.776-.274V13.692c-.612-.1-1.2-.207-1.8-.276a.87.87,0,0,1-.843-.787,8.169,8.169,0,0,0-1.243-3,.877.877,0,0,1,.037-1.156c.376-.48.727-.981,1.027-1.389L24.5,5.975c-.507.374-.986.71-1.444,1.074a.961.961,0,0,1-1.2.048,8.659,8.659,0,0,0-2.385-1.062,1.637,1.637,0,0,1-1.506-1.767c-.086-1.132-.137-1.128-1.269-1.07-.016,0-.038-.007-.048,0-.113.1-.3.187-.322.307-.106.508-.17,1.026-.238,1.541a.866.866,0,0,1-.776.809,7.907,7.907,0,0,0-3,1.238.9.9,0,0,1-1.2-.054c-.466-.372-.957-.712-1.382-1.025l-1.09.993c.376.512.722,1,1.09,1.477A.856.856,0,0,1,9.781,9.6,8.438,8.438,0,0,0,8.5,12.688a.8.8,0,0,1-.743.713c-.624.086-1.245.195-1.883.3v1.452c.624.1,1.232.2,1.843.28a.827.827,0,0,1,.785.731,8.454,8.454,0,0,0,1.279,3.086.834.834,0,0,1-.029,1.075c-.373.49-.733.991-1.114,1.51l1.074,1.006M42.229,1.476a1.884,1.884,0,1,0,1.9,1.869,1.885,1.885,0,0,0-1.9-1.869m1.9,12.93a1.88,1.88,0,1,0-1.876,1.9,1.9,1.9,0,0,0,1.876-1.9M42.241,27.358a1.872,1.872,0,1,0-1.867-1.9,1.873,1.873,0,0,0,1.867,1.9" fill="#ff5151"/>
    <path id="Path_137413" data-name="Path 137413" d="M35.683,31.382c.382-.206.749-.407,1.119-.6a2.5,2.5,0,0,1,3.83,1.8,1.131,1.131,0,0,0,.073.169c.469-.244.947-.448,1.379-.724a2.592,2.592,0,0,1,4.044,1.83,7.671,7.671,0,0,1,1.284-.1,2.8,2.8,0,0,1,1.123,5.24c-1.473.828-2.965,1.624-4.449,2.433-.827.452-1.653.907-2.483,1.353-.511.275-.9.19-1.124-.227s-.078-.783.436-1.064c2.238-1.225,4.483-2.439,6.714-3.676a2.032,2.032,0,0,0,.708-.635,1.247,1.247,0,0,0-.2-1.569,1.308,1.308,0,0,0-1.615-.222c-1.015.548-2.012,1.131-3.029,1.675-1.948,1.041-3.857,2.174-5.869,3.072A22.829,22.829,0,0,1,25.613,41.92c-1.794-.2-3.586-.415-5.378-.627-.558-.066-.858-.332-.865-.751s.285-.7.843-.769q5.589-.7,11.179-1.4c.307-.038.614-.072.919-.123a1.271,1.271,0,1,0-.174-2.535c-.146,0-.293,0-.439,0-2.946,0-5.891,0-8.836-.007a2.791,2.791,0,0,1-.9-.154,14.392,14.392,0,0,0-9.334-.285c-.581.183-.987.023-1.115-.423s.094-.782.7-.975a15.494,15.494,0,0,1,9.778.145,1,1,0,0,0,.865-.057c2.844-1.5,5.736-2.923,8.531-4.514a2.727,2.727,0,0,1,4.3,1.94m-9.161,9.08c0,.02,0,.039,0,.059.218.019.435.047.654.057a21.175,21.175,0,0,0,10.109-1.9C39.544,37.617,41.7,36.34,43.9,35.15A1.087,1.087,0,1,0,42.9,33.259q-3.8,2-7.587,4.006a.946.946,0,0,0-.414.477,2.68,2.68,0,0,1-2.286,1.933c-2.028.277-4.059.526-6.089.787m-.9-6.278a.937.937,0,0,0,.19.06q2.192,0,4.384,0a.713.713,0,0,0,.328-.068c1.057-.568,2.121-1.125,3.159-1.727a1.111,1.111,0,0,0-.5-2.027,1.786,1.786,0,0,0-.871.231c-2.1,1.086-4.2,2.191-6.294,3.292-.121.063-.234.139-.4.239m9.287,1.625c1.132-.6,2.337-1.228,3.539-1.867.69-.366.922-.943.62-1.513a1.071,1.071,0,0,0-1.59-.345q-1.948,1.049-3.891,2.11a1.426,1.426,0,0,0-.206.144l1.528,1.471" fill="#ff5151"/>
    <path id="Path_137414" data-name="Path 137414" d="M11.564,14.421A5.52,5.52,0,0,1,21.1,10.639a5.473,5.473,0,0,1,.95,6.161,1.381,1.381,0,0,1-.669.625.71.71,0,0,1-.649-.266,1.1,1.1,0,0,1-.037-.849,4.281,4.281,0,0,0,.305-2.9A4.049,4.049,0,1,0,18.5,18.221c.122-.046.239-.105.362-.143a.728.728,0,1,1,.555,1.347,5.335,5.335,0,0,1-3.57.373,5.532,5.532,0,0,1-4.278-5.377" fill="#ff5151"/>
  </g>
</svg>
