<svg xmlns="http://www.w3.org/2000/svg" xmlns:xlink="http://www.w3.org/1999/xlink" width="620" height="317" viewBox="0 0 620 317">
  <defs>
    <clipPath id="clip-path">
      <rect id="Rectangle_38497" data-name="Rectangle 38497" width="150.022" height="150" fill="#fff"/>
    </clipPath>
  </defs>
  <g id="Group_124971" data-name="Group 124971" transform="translate(-7673 9599)">
    <rect id="Rectangle_37884" data-name="Rectangle 37884" width="620" height="317" transform="translate(7673 -9599)" fill="#ff5151" opacity="0.7"/>
    <g id="Group_124902" data-name="Group 124902" transform="translate(8058.022 -9365) rotate(180)">
      <g id="Group_124901" data-name="Group 124901" clip-path="url(#clip-path)">
        <path id="Path_187766" data-name="Path 187766" d="M0,63.28v-.293C3.173,60.1,6.362,57.232,9.493,54.3a1.79,1.79,0,0,0,.286-1.413c-.772-4.108-1.6-8.206-2.426-12.359,3.765-1.735,7.417-3.466,11.116-5.091a2.194,2.194,0,0,0,1.454-2.076c.363-3.64.835-7.27,1.213-10.909.094-.9.489-1.235,1.362-1.326,3.59-.378,7.17-.858,10.764-1.2a2.4,2.4,0,0,0,2.259-1.643c1.6-3.654,3.316-7.255,5.02-10.946,4.094.806,8.114,1.55,12.107,2.419a1.929,1.929,0,0,0,2.138-.7C57.532,6.025,60.333,3.036,63.142,0,66.617,1.946,70.055,3.792,73.4,5.789a2.806,2.806,0,0,0,3.3-.034C80.048,3.768,83.475,1.927,86.9.009c2.558,2.766,5.152,5.361,7.483,8.174a3.742,3.742,0,0,0,4.38,1.339C102.3,8.657,105.9,8.065,109.5,7.356c1.71,3.7,3.416,7.263,4.99,10.88a2.486,2.486,0,0,0,2.369,1.706c3.6.324,7.174.815,10.764,1.2a1.209,1.209,0,0,1,1.263,1.259c.382,3.589.872,7.168,1.2,10.763a2.478,2.478,0,0,0,1.705,2.367c3.654,1.589,7.248,3.314,10.892,5-.7,3.517-1.187,6.957-2.1,10.281a4.359,4.359,0,0,0,1.691,5.224c2.714,2.2,5.176,4.706,7.753,7.089-2.019,3.611-3.928,7.125-5.949,10.573a2.27,2.27,0,0,0,.028,2.651c2.013,3.453,3.925,6.964,5.922,10.537-3.027,2.8-6.018,5.6-9.051,8.346a1.932,1.932,0,0,0-.72,2.134c.873,3.991,1.614,8.011,2.421,12.113-3.807,1.761-7.577,3.463-11.295,5.27a2.415,2.415,0,0,0-1.175,1.565c-.5,3.622-.92,7.259-1.27,10.9-.107,1.122-.48,1.589-1.65,1.7-3.643.34-7.271.83-10.91,1.2a1.9,1.9,0,0,0-1.718,1.3c-1.349,3.027-2.757,6.029-4.146,9.038-.341.739-.695,1.473-1.042,2.206-4.205-.84-8.264-1.67-12.334-2.439a1.785,1.785,0,0,0-1.411.3c-2.933,3.13-5.8,6.316-8.693,9.487h-.293c-3.681-2.094-7.353-4.2-11.058-6.256a1.59,1.59,0,0,0-1.319.012C70.652,145.8,66.977,147.91,63.293,150H63c-2.885-3.17-5.754-6.357-8.684-9.486a1.79,1.79,0,0,0-1.411-.279c-4.109.771-8.206,1.6-12.367,2.424-1.733-3.765-3.457-7.418-5.088-11.112a2.2,2.2,0,0,0-2.07-1.467c-3.64-.357-7.267-.833-10.905-1.211a1.275,1.275,0,0,1-1.341-1.347c-.272-2.766-.645-5.522-.923-8.287-.406-4.034-.386-4.035-4.021-5.7q-2.99-1.371-5.976-2.751c-.959-.444-1.912-.9-2.859-1.35.834-4.2,1.659-8.259,2.424-12.328a1.787,1.787,0,0,0-.29-1.41C6.359,92.763,3.172,89.9,0,87.011v-.293c2.092-3.682,4.2-7.356,6.251-11.06a1.6,1.6,0,0,0,0-1.318C4.2,70.635,2.092,66.962,0,63.28m115.27,47.137V54.985H86.442c0-5.376.018-10.594-.005-15.813A11.545,11.545,0,0,0,74.513,27.248c-4-.019-8.007-.006-12.011,0-.419,0-.839.052-1.313.084,0,6.188-.3,12.26.1,18.285.29,4.337-.848,7.62-4.228,10.279a3.43,3.43,0,0,1-2.305.919C48.6,56.782,42.452,56.8,36.3,56.8c-.514,0-1.029.047-1.525.071v53.545Z" fill="#fff"/>
        <path id="Path_187768" data-name="Path 187768" d="M0,63.28c2.092,3.682,4.2,7.355,6.251,11.059a1.594,1.594,0,0,1,0,1.319C4.2,79.362,2.092,83.036,0,86.718V63.28" fill="#fff"/>
        <path id="Path_187769" data-name="Path 187769" d="M63.293,150c3.684-2.09,7.359-4.2,11.065-6.245a1.6,1.6,0,0,1,1.319-.012c3.7,2.053,7.377,4.163,11.058,6.257Z" fill="#fff"/>
        <path id="Path_187770" data-name="Path 187770" d="M106.514,63.766v37.8H62.489c-.022-.474-.064-.945-.064-1.417,0-11.959-.02-23.919.036-35.879A3.777,3.777,0,0,1,63.375,62c1.846-2.079,3.868-4,5.719-6.077a3.6,3.6,0,0,0,.852-2.16c.071-5.32.038-10.642.038-15.963V36.075c1.849,0,3.6-.11,5.327.033,1.524.126,2.331,1.352,2.333,3.2q.015,11.349.005,22.7v1.762Z" fill="#fff"/>
        <rect id="Rectangle_38496" data-name="Rectangle 38496" width="9.976" height="35.93" transform="translate(43.555 65.635)" fill="#fff"/>
      </g>
    </g>
  </g>
</svg>
