<svg xmlns="http://www.w3.org/2000/svg" xmlns:xlink="http://www.w3.org/1999/xlink" width="60.01" height="60" viewBox="0 0 60.01 60">
  <defs>
    <clipPath id="clip-path">
      <rect id="Rectangle_38593" data-name="Rectangle 38593" width="60.01" height="60" fill="#fff"/>
    </clipPath>
  </defs>
  <g id="Group_124964" data-name="Group 124964" clip-path="url(#clip-path)">
    <path id="Path_187808" data-name="Path 187808" d="M31.1,70.9v2H52.627c1.143,0,1.431.291,1.432,1.442,0,.829,0,1.657,0,2.556h4.4c1.363,0,1.6.232,1.6,1.591,0,1.708,0,3.415,0,5.123,0,.939-.342,1.282-1.279,1.282q-5.715,0-11.431,0c-.94,0-1.278-.341-1.28-1.28q-.006-2.718,0-5.435c0-.94.339-1.278,1.279-1.28,1.54,0,3.08,0,4.668,0V74.936H31.1v1.958h.587c1.4,0,2.79-.006,4.185,0,.819,0,1.186.366,1.189,1.181q.012,2.811,0,5.623c0,.817-.369,1.187-1.182,1.189q-5.809.008-11.619,0c-.817,0-1.184-.368-1.187-1.183q-.011-2.811,0-5.623c0-.819.366-1.182,1.182-1.186,1.579-.008,3.157,0,4.774,0V74.926H8.127v1.969h3.916c.333,0,.667-.012,1,0a.974.974,0,0,1,1.029,1.021q.025,2.967,0,5.935c-.007.692-.429,1.034-1.206,1.035q-4.779.007-9.557,0c-.708,0-1.416.011-2.124,0A.992.992,0,0,1,.092,83.8q-.019-2.905,0-5.81c0-.726.394-1.089,1.147-1.094,1.582-.009,3.164,0,4.845,0,0-.841,0-1.664,0-2.487,0-1.245.262-1.512,1.486-1.512h21.46v-2c-.606,0-1.2.008-1.8,0a1.026,1.026,0,0,1-1.154-1.154,6.524,6.524,0,0,1,0-.874.762.762,0,0,0-.571-.922c-.462-.184-.758-.192-1.068.212a5.349,5.349,0,0,1-.7.711.977.977,0,0,1-1.451.008q-2.117-2.079-4.191-4.2a.963.963,0,0,1-.018-1.4,5.742,5.742,0,0,1,.736-.763.758.758,0,0,0,.214-1.016.832.832,0,0,0-.961-.609c-1.9.024-1.99-.083-1.99-2.009q0-2.218,0-4.436c0-1.313.233-1.542,1.572-1.542h1.1a2.762,2.762,0,0,1,.138-.265,1.032,1.032,0,0,0-.316-1.622,2.456,2.456,0,0,1-.4-.395,1.022,1.022,0,0,1-.006-1.591c.446-.467.892-.936,1.373-1.365a1.555,1.555,0,0,0,.553-1.295c-.028-3.019-.006-6.039-.02-9.059,0-.634.1-1.17.859-1.415L18.08,32.467l-2.84,3.407c.792.266.851.873.847,1.56-.019,3.123-.008,6.246-.008,9.421H14.1V37.91c-.289,0-.511-.009-.733,0a1.051,1.051,0,0,1-.884-1.849c1.431-1.707,2.851-3.423,4.281-5.132,1.167-1.4,1.466-1.4,2.619-.018C20.8,32.607,22.2,34.308,23.62,36c.336.4.616.8.343,1.348a1.126,1.126,0,0,1-1.216.565c-.2-.009-.406,0-.64,0v7.1c1-.855,1.615-.147,2.251.516.276.288.483.6,1.036.366a.972.972,0,0,0,.694-1.1c-.041-1.781.1-1.893,1.9-1.893q2.374,0,4.747,0c1.012,0,1.327.326,1.331,1.355a2.046,2.046,0,0,1,0,.436.919.919,0,0,0,.839,1.224.9.9,0,0,0,.584-.1,3.14,3.14,0,0,0,.539-.516c.832-.832,1.005-.863,2.012-.348V37.909a2.991,2.991,0,0,1-.921-.019A1.665,1.665,0,0,1,36.2,37.3a1.139,1.139,0,0,1,.123-1.017c1.633-2.026,3.3-4.021,4.986-6.006a.938.938,0,0,1,1.523.015c1.681,1.987,3.353,3.981,4.994,6a.974.974,0,0,1-.772,1.615c-.307.021-.616,0-.969,0v8.948H44.064V46.21c0-2.957.01-5.914-.007-8.871,0-.656.091-1.213.855-1.454l-2.845-3.418-2.833,3.4a1.33,1.33,0,0,1,.841,1.471c-.022,3.061,0,6.122-.02,9.183a1.254,1.254,0,0,0,.435,1.03c.507.463.985.959,1.461,1.453a1.037,1.037,0,0,1,.007,1.639,7.311,7.311,0,0,1-.7.713c-.308.254-.3.493-.179.862.188.575.507.716,1.087.7,1.783-.042,1.9.1,1.9,1.9q0,2.374,0,4.748c0,.984-.335,1.321-1.3,1.33a4.145,4.145,0,0,1-.686-.006.791.791,0,0,0-1,.643c-.128.383-.175.651.176.918a5.552,5.552,0,0,1,.576.571c.694.71.7,1.173.021,1.863q-1.891,1.908-3.794,3.8c-.67.667-1.143.669-1.819.024a2.158,2.158,0,0,1-.35-.355.958.958,0,0,0-1.517-.262.706.706,0,0,0-.29.45c-.042.391-.008.79-.016,1.185A1.03,1.03,0,0,1,32.922,70.9c-.291.008-.583,0-.875,0H31.1m-10.83-7.1,2.821,2.924c.246-.264.5-.533.753-.812a1.134,1.134,0,0,1,1.51-.264,16.489,16.489,0,0,0,1.838.762,1.149,1.149,0,0,1,.884,1.257c-.02.4,0,.81,0,1.2h3.969c0-.4.017-.766,0-1.133a1.147,1.147,0,0,1,.936-1.274,14.628,14.628,0,0,0,1.833-.774,1.045,1.045,0,0,1,1.358.208c.29.319.546.67.728.9l2.941-2.955c-.2-.18-.455-.422-.721-.654a1.162,1.162,0,0,1-.261-1.565,15.652,15.652,0,0,0,.716-1.723c.272-.759.519-.963,1.315-.97.385,0,.77,0,1.146,0v-4c-.407,0-.777-.012-1.147,0a1.106,1.106,0,0,1-1.2-.859,16.346,16.346,0,0,0-.783-1.9,1.063,1.063,0,0,1,.223-1.406c.309-.274.648-.514.887-.7l-2.938-2.941c-.2.209-.442.467-.694.715a1.136,1.136,0,0,1-1.612.258,16.109,16.109,0,0,0-1.73-.7,1.165,1.165,0,0,1-.93-1.229c.008-.407,0-.815,0-1.23h-4c0,.4-.019.771,0,1.139a1.154,1.154,0,0,1-.917,1.291,13.858,13.858,0,0,0-1.783.73A1.1,1.1,0,0,1,23.94,47.9c-.276-.309-.523-.645-.725-.9l-2.942,2.95c.259.243.565.524.863.813a1.06,1.06,0,0,1,.219,1.309q-.451,1.025-.851,2.072a1.058,1.058,0,0,1-1.086.762c-.431,0-.861,0-1.3,0v4c.434,0,.827.008,1.219,0a1.092,1.092,0,0,1,1.155.839c.234.664.515,1.314.81,1.953a1.065,1.065,0,0,1-.17,1.318c-.308.309-.643.59-.863.789M2.114,82.848H12.03V78.927H2.114Zm23,0h9.919V78.923H25.117Zm32.911-3.908H48.112V82.86h9.916Z" transform="translate(-0.069 -24.896)" fill="#fff"/>
    <path id="Path_187809" data-name="Path 187809" d="M281.847,166.168h-5.953v-2.012h2.356c1.416,0,2.832.018,4.247-.008a1.263,1.263,0,0,1,1.383.837l3.4-2.824-3.4-2.845c-.262.768-.837.859-1.515.852-2.142-.024-4.285-.009-6.471-.009v-2h5.954a3.531,3.531,0,0,1,.018-.983,1.532,1.532,0,0,1,.553-.878,1.15,1.15,0,0,1,1.023.08c2.042,1.646,4.053,3.331,6.05,5.031a.939.939,0,0,1-.037,1.524c-1.971,1.667-3.948,3.327-5.961,4.943a1.208,1.208,0,0,1-1.071.119c-.277-.139-.442-.588-.559-.935a3.056,3.056,0,0,1-.017-.9" transform="translate(-229.856 -130.149)" fill="#fff"/>
    <path id="Path_187810" data-name="Path 187810" d="M13.981,164.222v1.984H8.012c0,.365.018.69,0,1.012a.974.974,0,0,1-1.616.766c-2.019-1.639-4.011-3.311-6-4.991a.955.955,0,0,1,.027-1.567c1.955-1.651,3.914-3.3,5.908-4.9a1.2,1.2,0,0,1,1.063-.163c.294.153.468.611.6.97a2.772,2.772,0,0,1,.017.869h5.957v2.024H7.482c-.958,0-1.007-.027-1.546-.812l-3.351,2.809,3.4,2.848c.262-.887.949-.858,1.656-.853,2.1.016,4.2.006,6.339.006" transform="translate(0 -130.216)" fill="#fff"/>
    <path id="Path_187811" data-name="Path 187811" d="M154.251,8.014v3.958h-1.994c0-1.71-.036-3.411.031-5.108.013-.331.424-.646.686-1.017l-2.728-3.286-2.831,3.411a1.321,1.321,0,0,1,.841,1.471c-.032,1.5-.01,2.991-.01,4.529h-1.977V8.015A3.255,3.255,0,0,1,145.327,8c-.346-.114-.792-.289-.929-.568a1.21,1.21,0,0,1,.128-1.068C146.142,4.35,147.8,2.374,149.468.4a.952.952,0,0,1,1.566.011c1.665,1.971,3.323,3.949,4.941,5.958a1.15,1.15,0,0,1,.137,1.016,1.678,1.678,0,0,1-.907.606,3.12,3.12,0,0,1-.954.019" transform="translate(-120.242 0)" fill="#fff"/>
    <rect id="Rectangle_38589" data-name="Rectangle 38589" width="1.942" height="1.911" transform="translate(26.017 14.058)" fill="#fff"/>
    <rect id="Rectangle_38590" data-name="Rectangle 38590" width="1.913" height="1.943" transform="translate(32.039 14.041)" fill="#fff"/>
    <rect id="Rectangle_38591" data-name="Rectangle 38591" width="1.942" height="1.898" transform="translate(14.024 24.054)" fill="#fff"/>
    <rect id="Rectangle_38592" data-name="Rectangle 38592" width="1.915" height="1.943" transform="translate(44.043 24.03)" fill="#fff"/>
    <path id="Path_187812" data-name="Path 187812" d="M137.876,156.866a6.995,6.995,0,1,1,6.972,7,7,7,0,0,1-6.972-7m2,.016a5,5,0,1,0,5-5,5,5,0,0,0-5,5" transform="translate(-114.869 -124.868)" fill="#fff"/>
  </g>
</svg>
