<svg xmlns="http://www.w3.org/2000/svg" xmlns:xlink="http://www.w3.org/1999/xlink" width="60" height="50.637" viewBox="0 0 60 50.637">
  <defs>
    <clipPath id="clip-path">
      <rect id="Rectangle_37842" data-name="Rectangle 37842" width="60" height="50.637" fill="#fff"/>
    </clipPath>
  </defs>
  <g id="Group_95956" data-name="Group 95956" clip-path="url(#clip-path)">
    <path id="Path_139477" data-name="Path 139477" d="M0,3.992a1.064,1.064,0,0,1,1.162-.6.762.762,0,0,0,.812-.423C2.412,2.3,2.9,1.663,3.347,1a2.186,2.186,0,0,1,1.936-1q18.632.006,37.264,0c.722,0,1.145.34,1.136.892s-.423.864-1.162.864q-18.251,0-36.5-.019a1.6,1.6,0,0,0-1.688.9,5.971,5.971,0,0,1-.468.692H56.137c-.361-.506-.677-1-1.055-1.45-.1-.123-.394-.12-.6-.121-2.656-.007-5.313.012-7.968-.026a1.36,1.36,0,0,1-.957-.49A.826.826,0,0,1,46.312.018c.6-.033,1.21-.01,1.816-.01,2.168,0,4.336.013,6.5-.006a2.279,2.279,0,0,1,2.076,1.074c.42.634.889,1.237,1.305,1.873a.884.884,0,0,0,.858.455C59.709,3.38,60,3.685,60,4.517q0,22.5,0,45c0,.832-.311,1.117-1.2,1.117q-23.9,0-47.811,0c-.777,0-1.177-.32-1.16-.913.016-.568.392-.844,1.164-.844H58.2V5.194H1.794V48.875H4.246c.957,0,1.914-.01,2.871.005a.873.873,0,1,1,.035,1.743c-2.089.016-4.18.029-6.268-.02-.3-.007-.59-.362-.885-.556V3.992" transform="translate(0 0)" fill="#fff"/>
    <path id="Path_139478" data-name="Path 139478" d="M29.688,46.716a6.342,6.342,0,1,1,6.352-6.306,6.323,6.323,0,0,1-6.352,6.306m.011-1.758a4.584,4.584,0,1,0-4.577-4.565A4.562,4.562,0,0,0,29.7,44.957" transform="translate(0.298 0.434)" fill="#fff"/>
    <path id="Path_139479" data-name="Path 139479" d="M22.4,26.757a6.339,6.339,0,1,1-6.307-6.365A6.34,6.34,0,0,1,22.4,26.757m-1.757.011a4.582,4.582,0,1,0-4.586,4.565,4.593,4.593,0,0,0,4.586-4.565" transform="translate(0.124 0.26)" fill="#fff"/>
    <path id="Path_139480" data-name="Path 139480" d="M36.039,13.082A6.337,6.337,0,1,1,29.688,6.76a6.362,6.362,0,0,1,6.352,6.322m-1.757.026a4.58,4.58,0,1,0-4.562,4.6,4.592,4.592,0,0,0,4.562-4.6" transform="translate(0.298 0.086)" fill="#fff"/>
    <path id="Path_139481" data-name="Path 139481" d="M43.468,33.092a6.367,6.367,0,0,1-6.458-6.617c.028-.647.35-1.036.865-1.043a.908.908,0,0,1,.885,1.078,4.581,4.581,0,1,0,1.5-3.167c-.029.026-.057.054-.085.081-.658.615-1.149.691-1.552.239-.386-.433-.255-.972.379-1.556a6.347,6.347,0,1,1,5.5,10.874c-.381.074-.775.084-1.039.111" transform="translate(0.472 0.26)" fill="#fff"/>
    <path id="Path_139482" data-name="Path 139482" d="M29.707,22.071c1.21,0,2.421-.007,3.633,0,1.1.007,1.554.466,1.566,1.577.008.741.013,1.485,0,2.226a1.34,1.34,0,0,1-1.485,1.495q-3.72.015-7.441,0a1.334,1.334,0,0,1-1.5-1.474c-.017-.781-.016-1.563,0-2.343a1.312,1.312,0,0,1,1.483-1.479c1.25-.013,2.5,0,3.75,0m-3.44,3.522H33.1V23.867H26.267Z" transform="translate(0.312 0.281)" fill="#fff"/>
    <path id="Path_139483" data-name="Path 139483" d="M9.227,14c-1.17,0-2.339,0-3.509,0-1.228,0-1.665-.433-1.668-1.642,0-.722-.005-1.443,0-2.164A1.328,1.328,0,0,1,5.477,8.706q3.8-.021,7.6,0a1.314,1.314,0,0,1,1.4,1.448q.014,1.2,0,2.4a1.3,1.3,0,0,1-1.452,1.442c-1.267.012-2.534,0-3.8,0M12.7,10.5H5.855v1.7H12.7Z" transform="translate(0.052 0.111)" fill="#fff"/>
    <path id="Path_139484" data-name="Path 139484" d="M50.076,14c-1.227,0-2.456.007-3.683,0-1.027-.007-1.491-.483-1.5-1.515-.005-.78-.008-1.56,0-2.339A1.314,1.314,0,0,1,46.31,8.706q3.8-.023,7.6,0a1.317,1.317,0,0,1,1.411,1.44c.011.818.013,1.638,0,2.456a1.281,1.281,0,0,1-1.386,1.389c-1.286.016-2.572,0-3.86.005m-3.4-1.8h6.842v-1.7H46.679Z" transform="translate(0.572 0.111)" fill="#fff"/>
    <path id="Path_139485" data-name="Path 139485" d="M19.123,16.816c-.516-.378-.744-.75-.547-1.244s.637-.571,1.118-.532c.466.038.934.048,1.4.089a.846.846,0,0,1,.842.873c.03.427.058.855.091,1.282.039.489.008.947-.518,1.188s-.876-.055-1.264-.5c-.346.378-.659.749-1.006,1.088a.874.874,0,0,1-1.3.085.9.9,0,0,1,.077-1.34c.161-.17.322-.34.5-.5s.363-.295.608-.491" transform="translate(0.225 0.192)" fill="#fff"/>
    <path id="Path_139486" data-name="Path 139486" d="M38.378,17.329c-.419-.4-.786-.722-1.12-1.076a.875.875,0,1,1,1.22-1.248c.189.168.366.351.54.535s.312.349.5.557c.4-.382.782-.756,1.339-.44.582.329.469.878.424,1.4-.011.136-.015.272-.02.408-.055,1.369-.2,1.51-1.592,1.562-.214.007-.429.006-.642.023-.469.038-.926.02-1.145-.483s-.015-.908.5-1.243" transform="translate(0.471 0.187)" fill="#fff"/>
    <path id="Path_139487" data-name="Path 139487" d="M39.035,35.419c.391-.416.711-.784,1.06-1.121a.874.874,0,1,1,1.233,1.234c-.337.35-.707.668-1.227,1.156.2.09.4.117.431.2.1.294.26.657.164.9a1.021,1.021,0,0,1-.729.54,6.438,6.438,0,0,1-1.912-.125,1.216,1.216,0,0,1-.66-.754,6.112,6.112,0,0,1-.122-1.331c-.04-.487-.02-.957.5-1.2s.892.006,1.264.5" transform="translate(0.475 0.433)" fill="#fff"/>
    <path id="Path_139488" data-name="Path 139488" d="M20.922,36.1c.387.355.76.668,1.1,1.015A.876.876,0,1,1,20.8,38.359c-.35-.337-.669-.706-1.013-1.071a3.732,3.732,0,0,1-.53.445.861.861,0,0,1-1.272-.793,15.5,15.5,0,0,1,.088-1.691.882.882,0,0,1,.881-.851c.406-.037.818-.025,1.224-.064.487-.047.963-.057,1.222.449.27.529.009.93-.481,1.316" transform="translate(0.229 0.437)" fill="#fff"/>
    <path id="Path_139489" data-name="Path 139489" d="M31.571,31.28c-.74,0-1.482.008-2.222,0a.883.883,0,1,1,0-1.751q2.251-.02,4.5,0a.886.886,0,0,1,.988.91c-.016.521-.374.833-.987.841-.76.009-1.52,0-2.281,0" transform="translate(0.361 0.376)" fill="#fff"/>
    <path id="Path_139490" data-name="Path 139490" d="M26.081,31.277c-.252,0-.505.014-.758,0a.8.8,0,0,1-.829-.805.779.779,0,0,1,.714-.907,7.913,7.913,0,0,1,1.8.008.774.774,0,0,1,.688.926.8.8,0,0,1-.8.776c-.27.023-.544,0-.815.005" transform="translate(0.312 0.376)" fill="#fff"/>
  </g>
</svg>
