<svg xmlns="http://www.w3.org/2000/svg" xmlns:xlink="http://www.w3.org/1999/xlink" width="121" height="121" viewBox="0 0 121 121">
  <defs>
    <clipPath id="clip-path">
      <rect id="Rectangle_35108" data-name="Rectangle 35108" width="60.605" height="60" fill="#602207"/>
    </clipPath>
  </defs>
  <g id="Group_124946" data-name="Group 124946" transform="translate(-390 -887)">
    <g id="Group_55930" data-name="Group 55930" transform="translate(390 887)">
      <circle id="Ellipse_4392" data-name="Ellipse 4392" cx="60.5" cy="60.5" r="60.5" fill="#ff5151"/>
      <path id="Path_107120" data-name="Path 107120" d="M53.993,0A53.993,53.993,0,1,1,0,53.993,53.993,53.993,0,0,1,53.993,0Z" transform="translate(7 7)" fill="#fff"/>
    </g>
    <g id="Group_89456" data-name="Group 89456" transform="translate(420.197 920.5)">
      <g id="Group_89456-2" data-name="Group 89456" clip-path="url(#clip-path)">
        <path id="Path_123193" data-name="Path 123193" d="M0,17a2.6,2.6,0,0,1,1.6-1.177c2.892-.973,5.773-1.975,8.658-2.967.2-.069.4-.142.631-.224-.151-.871-.294-1.7-.441-2.534C10.2,8.708,10.614,8.107,12,7.868c3.2-.554,6.4-1.1,9.68-1.669,0-.809,0-1.612,0-2.415,0-.71-.014-1.42,0-2.13A1.532,1.532,0,0,1,23.261.021c.2-.014.394-.008.591-.008q13.7,0,27.393-.012a2.572,2.572,0,0,1,1.95.77c2.217,2.161,4.464,4.291,6.719,6.413a2.034,2.034,0,0,1,.691,1.608q-.022,18.933-.011,37.866c0,1.392-.541,1.939-1.921,1.94-2.485,0-4.978-.125-7.452.041a21.762,21.762,0,0,0-5.668,1C36.056,52.948,26.607,56.4,17.141,59.8c-1.278.46-1.963.137-2.424-1.146Q11.39,49.4,8.064,40.15a3.9,3.9,0,0,1-.144-.449.864.864,0,0,1,.555-1.094.841.841,0,0,1,1.1.531c.378.973.719,1.959,1.072,2.941q2.8,7.781,5.59,15.563c.052.146.116.289.21.522l19.42-6.981-.025-.092q-2.555.434-5.111.868-5.591.959-11.182,1.92a1.494,1.494,0,0,1-1.811-1.341q-.949-5.443-1.878-10.89-1.688-9.843-3.373-19.687c-.426-2.483-.854-4.965-1.3-7.551l-9.336,3.2c.312.88.6,1.709.9,2.535q2.668,7.42,5.338,14.838a2.856,2.856,0,0,1,.166.5.838.838,0,0,1-.564.988.805.805,0,0,1-1.031-.343,3.1,3.1,0,0,1-.274-.651Q3.257,26.787.127,18.09A2.519,2.519,0,0,0,0,17.831V17M58.778,46.8V9.35h-.741c-1.814-.007-3.63.018-5.443-.034a1.992,1.992,0,0,1-2.067-2.172c-.014-1.558-.007-3.116-.012-4.674,0-.209-.019-.417-.029-.63H23.456V2.6q0,11.123,0,22.247c0,.2.007.4-.009.591a.808.808,0,0,1-.83.826.824.824,0,0,1-.909-.748,3.326,3.326,0,0,1-.026-.648q0-8.076,0-16.153V8l-9.5,1.633,7.28,42.461L39.32,48.688l-.008-.091h-.7q-7.514,0-15.029,0c-1.338,0-1.9-.565-1.9-1.914q0-8.372,0-16.745a2.627,2.627,0,0,1,.035-.588.872.872,0,0,1,1.728.113c.015.2.01.394.01.591q0,8.017,0,16.034V46.8ZM52.3,2.395c0,1.693-.01,3.241.018,4.788,0,.126.262.352.405.354,1.593.023,3.187.012,4.781.006.021,0,.041-.056.08-.111L52.3,2.395" transform="translate(0 -0.001)" fill="#602207"/>
        <path id="Path_123194" data-name="Path 123194" d="M189.179,161.411H201.36a3.226,3.226,0,0,1,.59.018.835.835,0,0,1,.75.855.844.844,0,0,1-.779.889,2.43,2.43,0,0,1-.413.012H176.79a2.507,2.507,0,0,1-.472-.015.88.88,0,0,1-.028-1.736,2.788,2.788,0,0,1,.589-.023h12.3" transform="translate(-147.812 -135.888)" fill="#602207"/>
        <path id="Path_123195" data-name="Path 123195" d="M189.132,121.5h12.121c.2,0,.4-.007.591.01a.87.87,0,0,1,.137,1.714,1.773,1.773,0,0,1-.467.049q-12.416,0-24.833,0a1.74,1.74,0,0,1-.634-.1.711.711,0,0,1-.495-.89,1.811,1.811,0,0,1,.7-.748c.15-.1.421-.033.638-.033h12.239" transform="translate(-147.763 -102.273)" fill="#602207"/>
        <path id="Path_123196" data-name="Path 123196" d="M189.121,203.016h-12.18a5.21,5.21,0,0,1-.591-.011.8.8,0,0,1-.765-.766.789.789,0,0,1,.579-.913,2.611,2.611,0,0,1,.757-.082q12.209-.006,24.419,0a2.88,2.88,0,0,1,.7.057.809.809,0,0,1,.66.918.817.817,0,0,1-.811.79c-.176.014-.354.008-.532.008H189.121" transform="translate(-147.818 -169.423)" fill="#602207"/>
        <path id="Path_123197" data-name="Path 123197" d="M189.106,83.433H176.987a5.881,5.881,0,0,1-.591-.014.863.863,0,0,1-.855-.874.875.875,0,0,1,.86-.875,5.176,5.176,0,0,1,.532-.011H201.29c.951,0,1.4.285,1.394.891s-.441.884-1.4.884H189.106" transform="translate(-147.787 -68.746)" fill="#602207"/>
        <path id="Path_123198" data-name="Path 123198" d="M189.149,241.168h12.12a4.871,4.871,0,0,1,.649.02.863.863,0,0,1,.089,1.7,2.827,2.827,0,0,1-.644.056q-12.267,0-24.535,0a2.331,2.331,0,0,1-.7-.079.721.721,0,0,1-.553-.908,1.741,1.741,0,0,1,.7-.748c.15-.1.421-.037.638-.037h12.238" transform="translate(-147.785 -203.021)" fill="#602207"/>
      </g>
    </g>
  </g>
</svg>
