<svg id="Group_89548" data-name="Group 89548" xmlns="http://www.w3.org/2000/svg" xmlns:xlink="http://www.w3.org/1999/xlink" width="71.31" height="50" viewBox="0 0 71.31 50">
  <defs>
    <clipPath id="clip-path">
      <rect id="Rectangle_35442" data-name="Rectangle 35442" width="71.31" height="50" fill="#ff5151"/>
    </clipPath>
  </defs>
  <g id="Group_89547" data-name="Group 89547" clip-path="url(#clip-path)">
    <path id="Path_137370" data-name="Path 137370" d="M62.445,35.181c.811.794,1.659,1.614,2.494,2.446,1.783,1.777,3.573,3.547,5.334,5.347a3.325,3.325,0,0,1,.813,3.628,3.247,3.247,0,0,1-2.8,2.23,3.409,3.409,0,0,1-2.987-1.11q-3.263-3.278-6.534-6.545a6.832,6.832,0,0,1-.524-.669l-.19.091a4.96,4.96,0,0,0-.062.54c-.005,1.593.008,3.186-.006,4.78a3.878,3.878,0,0,1-4.065,4.076q-24.934.009-49.87,0C1.559,49.995.006,48.361,0,45.763Q0,28.147,0,10.531C0,8.4,0,6.267.006,4.135A3.854,3.854,0,0,1,4.149,0Q28.968,0,53.787,0a3.9,3.9,0,0,1,4.2,4.177c.008,4.548-.007,9.1.02,13.645a1.3,1.3,0,0,0,.411.953,12.438,12.438,0,0,1,4.124,16.086,2.318,2.318,0,0,0-.1.318m-6.732,5.691c-5.85,1.534-10.756.221-14.26-4.7a11.433,11.433,0,0,1-.6-13.144c3.362-5.691,8.555-7.26,14.821-5.7V10.2H2.21V45.443c0,1.815.529,2.349,2.327,2.349q24.468,0,48.935,0a4.192,4.192,0,0,0,.919-.055A1.477,1.477,0,0,0,55.7,46.322c.046-1.793.015-3.588.015-5.45m.006-33c0-1.435.048-2.8-.03-4.147a1.645,1.645,0,0,0-.643-1.141,2.969,2.969,0,0,0-1.522-.367Q28.982,2.194,4.443,2.208a4.674,4.674,0,0,0-.768.03,1.491,1.491,0,0,0-1.4,1.336c-.087,1.421-.025,2.852-.025,4.3ZM51.452,39.27A10.148,10.148,0,1,0,41.42,29,10.193,10.193,0,0,0,51.452,39.27m15.285,3.424-5.6-5.614-1.55,1.556c1.866,1.872,3.741,3.755,5.6,5.621l1.552-1.563m1.837,1.765-1.721,1.629c.641.637,1.366.716,1.886.173a1.169,1.169,0,0,0-.165-1.8" fill="#ff5151"/>
    <path id="Path_137371" data-name="Path 137371" d="M17.17,37.764h2.95c0-.819-.007-1.606,0-2.393.01-.953.4-1.441,1.123-1.441s1.116.5,1.126,1.439c.007.719,0,1.439.008,2.158a1.765,1.765,0,0,0,.034.211h2.664c0-.423-.013-.85,0-1.276.032-.833.434-1.29,1.114-1.291s1.1.477,1.12,1.287c.011.409,0,.818,0,1.341.483,0,.935-.016,1.385,0a1.078,1.078,0,0,1,1.134,1.1A1.048,1.048,0,0,1,28.7,40c-1.05.027-2.1.011-3.153.011-2.617,0-5.235.018-7.852-.015-.541-.007-.608.288-.736.673a5.671,5.671,0,1,1-.033-3.63c.085.24.159.485.239.727m-2.175,1.163a3.381,3.381,0,0,0-3.382-3.453,3.442,3.442,0,1,0,3.382,3.453" fill="#ff5151"/>
    <path id="Path_137372" data-name="Path 137372" d="M23.384,16.507H7.673c-.2,0-.411.01-.616-.006A1.138,1.138,0,0,1,5.9,15.4a1.118,1.118,0,0,1,1.125-1.129c.229-.023.462-.011.693-.011q15.672,0,31.344,0a5.168,5.168,0,0,1,.845.036,1.035,1.035,0,0,1,.958,1.111,1.064,1.064,0,0,1-1,1.08,4.79,4.79,0,0,1-.768.02H23.384" fill="#ff5151"/>
    <path id="Path_137373" data-name="Path 137373" d="M21.526,23.292q-7.014,0-14.028,0c-.3,0-.7.042-.887-.125a1.75,1.75,0,0,1-.653-1.075c0-.322.412-.709.734-.937a1.712,1.712,0,0,1,.9-.1q13.95-.006,27.9,0a5.053,5.053,0,0,1,.616.018,1.113,1.113,0,1,1-.092,2.223c-1.49.021-2.98.008-4.47.008H21.526" fill="#ff5151"/>
    <path id="Path_137374" data-name="Path 137374" d="M20.626,30.083q-6.546,0-13.092,0a3.035,3.035,0,0,1-.765-.04,1.049,1.049,0,0,1-.863-1.118A1.006,1.006,0,0,1,6.778,27.9a4.476,4.476,0,0,1,.843-.056q13.014,0,26.029,0a5.147,5.147,0,0,1,.692.028,1.025,1.025,0,0,1,1,1.137,1.057,1.057,0,0,1-1.089,1.068c-.2.02-.411.006-.616.006H20.626" fill="#ff5151"/>
    <path id="Path_137375" data-name="Path 137375" d="M40.683,3.962H51.157a5.966,5.966,0,0,1,.769.024A1.015,1.015,0,0,1,52.9,5.076a1.062,1.062,0,0,1-.987,1.093,2.621,2.621,0,0,1-.461.013H29.809a2.6,2.6,0,0,1-.538-.02,1.051,1.051,0,0,1-.931-1.138,1,1,0,0,1,.946-1.034,5.782,5.782,0,0,1,.768-.027H40.683" fill="#ff5151"/>
    <path id="Path_137376" data-name="Path 137376" d="M16.864,6.227a1.164,1.164,0,0,1-1.2-1.143,1.2,1.2,0,0,1,1.16-1.2,1.215,1.215,0,0,1,1.2,1.158,1.173,1.173,0,0,1-1.165,1.182" fill="#ff5151"/>
    <path id="Path_137377" data-name="Path 137377" d="M8.085,5.1a1.128,1.128,0,0,1-1.2,1.128,1.171,1.171,0,0,1-1.14-1.2A1.194,1.194,0,0,1,6.96,3.887,1.169,1.169,0,0,1,8.085,5.1" fill="#ff5151"/>
    <path id="Path_137378" data-name="Path 137378" d="M11.883,6.227A1.182,1.182,0,0,1,10.7,5.067a1.209,1.209,0,0,1,1.179-1.18,1.181,1.181,0,0,1,1.172,1.175,1.14,1.14,0,0,1-1.166,1.165" fill="#ff5151"/>
    <path id="Path_137379" data-name="Path 137379" d="M59.472,29.218a7.9,7.9,0,1,1-7.786-8,7.916,7.916,0,0,1,7.786,8m-2.234-.1A5.672,5.672,0,1,0,51.553,34.8a5.66,5.66,0,0,0,5.685-5.682" fill="#ff5151"/>
  </g>
</svg>
