<svg xmlns="http://www.w3.org/2000/svg" width="228" height="277" viewBox="0 0 228 277">
  <rect id="Rectángulo_35542" data-name="Rectángulo 35542" width="228" height="277" rx="10" fill="#88e0ef"/>
  <g id="Grupo_89578" data-name="Grupo 89578" transform="translate(-686 -1056)">
    <g id="Trazado_137460" data-name="Trazado 137460" transform="translate(755 1150)" fill="#88e0ef">
      <path d="M 45 85 C 39.59783172607422 85 34.35990142822266 83.94309997558594 29.43173408508301 81.85865020751953 C 24.66914939880371 79.84425354003906 20.39086723327637 76.95941925048828 16.71573257446289 73.28426361083984 C 13.04058361053467 69.609130859375 10.1557502746582 65.33084869384766 8.141349792480469 60.56826782226562 C 6.056900024414062 55.64009857177734 5 50.40216827392578 5 45 C 5 39.59783172607422 6.056900024414062 34.35990142822266 8.141349792480469 29.43173408508301 C 10.1557502746582 24.66914939880371 13.04058361053467 20.39086723327637 16.71573257446289 16.71573257446289 C 20.39086723327637 13.04058361053467 24.66914939880371 10.1557502746582 29.43173408508301 8.141349792480469 C 34.35990142822266 6.056900024414062 39.59783172607422 5 45 5 C 50.40216827392578 5 55.64009857177734 6.056900024414062 60.56826782226562 8.141349792480469 C 65.33084869384766 10.1557502746582 69.609130859375 13.04058361053467 73.28426361083984 16.71573257446289 C 76.95941925048828 20.39086723327637 79.84425354003906 24.66914939880371 81.85865020751953 29.43173408508301 C 83.94309997558594 34.35990142822266 85 39.59783172607422 85 45 C 85 50.40216827392578 83.94309997558594 55.64009857177734 81.85865020751953 60.56826782226562 C 79.84425354003906 65.33084869384766 76.95941925048828 69.609130859375 73.28426361083984 73.28426361083984 C 69.609130859375 76.95941925048828 65.33084869384766 79.84425354003906 60.56826782226562 81.85865020751953 C 55.64009857177734 83.94309997558594 50.40216827392578 85 45 85 Z" stroke="none"/>
      <path d="M 45 10 C 25.70093536376953 10 10 25.70093536376953 10 45 C 10 64.29906463623047 25.70093536376953 80 45 80 C 64.29906463623047 80 80 64.29906463623047 80 45 C 80 25.70093536376953 64.29906463623047 10 45 10 M 45 0 C 69.85280609130859 0 90 20.14719390869141 90 45 C 90 69.85280609130859 69.85280609130859 90 45 90 C 20.14719390869141 90 0 69.85280609130859 0 45 C 0 20.14719390869141 20.14719390869141 0 45 0 Z" stroke="none" fill="#fff"/>
    </g>
    <path id="Trazado_187816" data-name="Trazado 187816" d="M21.964-21.882a6.893,6.893,0,0,1-1.077,3.835,7.841,7.841,0,0,1-2.963,2.666,8.629,8.629,0,0,1,3.384,2.861,7.382,7.382,0,0,1,1.251,4.3A7.814,7.814,0,0,1,19.8-1.907,11.454,11.454,0,0,1,12.2.41a11.663,11.663,0,0,1-7.67-2.328,7.759,7.759,0,0,1-2.81-6.306,7.475,7.475,0,0,1,1.23-4.245,8.367,8.367,0,0,1,3.486-2.912,7.886,7.886,0,0,1-2.994-2.666,6.845,6.845,0,0,1-1.087-3.835A7.662,7.662,0,0,1,5-28.034a10.635,10.635,0,0,1,7.137-2.256,10.7,10.7,0,0,1,7.178,2.256A7.662,7.662,0,0,1,21.964-21.882Zm-6.337,13.1a3.942,3.942,0,0,0-.954-2.84,3.321,3.321,0,0,0-2.512-.995,3.354,3.354,0,0,0-2.522.995,3.916,3.916,0,0,0-.964,2.84,3.95,3.95,0,0,0,.974,2.82A3.343,3.343,0,0,0,12.2-4.922a3.213,3.213,0,0,0,2.481-1.025A4.021,4.021,0,0,0,15.627-8.777ZM12.141-24.958a2.554,2.554,0,0,0-2.123.913,3.961,3.961,0,0,0-.728,2.533,4.2,4.2,0,0,0,.738,2.584,2.547,2.547,0,0,0,2.174.984,2.443,2.443,0,0,0,2.123-.984,4.33,4.33,0,0,0,.708-2.584,3.969,3.969,0,0,0-.728-2.522A2.588,2.588,0,0,0,12.141-24.958Z" transform="translate(788 1211.5)" fill="#fff"/>
  </g>
</svg>

