<svg id="Group_123993" data-name="Group 123993" xmlns="http://www.w3.org/2000/svg" xmlns:xlink="http://www.w3.org/1999/xlink" width="59.982" height="60" viewBox="0 0 59.982 60">
  <defs>
    <clipPath id="clip-path">
      <rect id="Rectangle_37849" data-name="Rectangle 37849" width="59.982" height="60" fill="#fff"/>
    </clipPath>
  </defs>
  <g id="Group_95964" data-name="Group 95964" clip-path="url(#clip-path)">
    <path id="Path_139501" data-name="Path 139501" d="M51.252,15.033h1.956V42.617c0,1.144-.272,1.412-1.432,1.412H8.188c-1.148,0-1.414-.27-1.414-1.428q0-13.575,0-27.148c0-1.152.266-1.416,1.422-1.418h2.4v-.928H5.838V44.951H54.16V14.069h1.922V45c.922,0,1.78,0,2.638,0,.942,0,1.258.324,1.26,1.28,0,1.108,0,2.216,0,3.324a2.913,2.913,0,0,1-3.132,3.134q-15.447,0-30.894,0H3.284A2.946,2.946,0,0,1,0,49.451c0-1.068,0-2.136,0-3.2C.006,45.331.328,45,1.23,45c.86,0,1.722,0,2.64,0V12.607c0-1.23.246-1.474,1.488-1.474h5.284c0-.882,0-1.74,0-2.6,0-.952.318-1.27,1.264-1.272H24.846c.952,0,1.27.32,1.274,1.264,0,.844,0,1.686,0,2.6H34.8v1.922h-8.64v.976h8.626v1.944H26.122v4.886c0,.282.008.564,0,.846a.972.972,0,0,1-1.068,1.042c-.786.014-1.572,0-2.358,0q-5.352,0-10.7,0c-1.06,0-1.346-.292-1.348-1.372V16.013h-1.9V42.045h42.51ZM1.936,46.951v2.354c0,1.262.238,1.5,1.526,1.5H56.528c.2,0,.4.012.6-.008a.863.863,0,0,0,.876-.774c.056-1.016.016-2.036.016-3.068ZM24.16,9.241H12.626V20.775H24.16Z" transform="translate(0 7.263)" fill="#fff"/>
    <path id="Path_139502" data-name="Path 139502" d="M26.125,20.88a2.209,2.209,0,0,1-.242-.112,1.492,1.492,0,0,0-2.32.38.89.89,0,0,1-1.428-.01q-1.32-1.287-2.608-2.608a.91.91,0,0,1,0-1.474,1.437,1.437,0,0,0,.388-2.216,2.592,2.592,0,0,1-.14-.314c-.408,0-.83.006-1.252,0a.978.978,0,0,1-1.1-1.068q-.021-1.845,0-3.69A.97.97,0,0,1,18.485,8.72h.062c1.336-.032,1.342-.03,1.782-1.342a.8.8,0,0,0-.068-.414c-.014-.05-.082-.086-.124-.13-1.336-1.376-1.336-1.4.042-2.78.628-.626,1.25-1.258,1.884-1.878a1.013,1.013,0,0,1,1.626,0c.988.94,1,.95,2.206.276a.6.6,0,0,0,.218-.47C26-.184,26.651-.008,28.143.01c.886.012,1.772,0,2.66.006a.987.987,0,0,1,1.122,1.108c.01.4,0,.806,0,1.234.448.192.88.4,1.328.556a.575.575,0,0,0,.454-.094,8.363,8.363,0,0,0,.648-.63,1.021,1.021,0,0,1,1.668.018q1.227,1.212,2.436,2.438c.554.564.606,1.124,0,1.608a1.3,1.3,0,0,0-.378,2.008,2.253,2.253,0,0,1,.188.458c.438,0,.86-.008,1.282,0a.966.966,0,0,1,1.074,1.036q.024,1.875,0,3.75A.953.953,0,0,1,39.6,14.522c-.442.014-.884,0-1.31,0a2.023,2.023,0,0,1-.1.2c-.534.894-.624,1.672.374,2.374a.873.873,0,0,1,.008,1.384q-1.323,1.368-2.694,2.694a.874.874,0,0,1-1.382-.022,1.463,1.463,0,0,0-2.264-.412,2.593,2.593,0,0,1-.3.14c0,.438.012.88,0,1.322a.953.953,0,0,1-1.02,1.024q-1.875.027-3.75,0a.955.955,0,0,1-1.026-1.022c-.016-.44,0-.884,0-1.326m3.868.39c0-.352,0-.634,0-.916.008-.774.216-1,.952-1.252a17.382,17.382,0,0,0,2-.83c.732-.36,1.012-.354,1.6.244a7.232,7.232,0,0,1,.54.706c.008-.088.016-.176.026-.264l1.46-1.242c-.234-.206-.442-.368-.626-.552-.624-.624-.63-.88-.254-1.65a17.9,17.9,0,0,0,.836-2.06,1.084,1.084,0,0,1,1.142-.866c.334.01.668,0,.986,0V10.656c-.328,0-.61,0-.892,0-.776-.006-1-.212-1.254-.948a17.091,17.091,0,0,0-.83-2c-.36-.738-.356-1.012.242-1.6a7.578,7.578,0,0,1,.7-.548l-.26-.016c-.394-.474-.788-.946-1.228-1.476-.244.274-.434.51-.65.72-.528.52-.828.524-1.508.2a20.6,20.6,0,0,0-2.112-.864,1.083,1.083,0,0,1-.87-1.14c.01-.334,0-.668,0-.99H28.059v.772c0,.934-.164,1.108-1.064,1.412a15.382,15.382,0,0,0-1.884.792c-.716.356-1.012.354-1.556-.2a7.071,7.071,0,0,1-.508-.618l-1.512,1.39c.194.178.392.35.576.536.62.62.628.886.254,1.65a18.03,18.03,0,0,0-.838,2.058,1.082,1.082,0,0,1-1.142.866c-.334-.008-.668,0-.986,0V12.59c.33,0,.612,0,.894,0,.774.008,1,.218,1.254.952a17.207,17.207,0,0,0,.83,2c.358.732.352,1.018-.244,1.6a4.256,4.256,0,0,1-.562.43c.534.592.944,1.046,1.388,1.536.186-.2.372-.412.572-.61.57-.566.846-.574,1.552-.236a20.636,20.636,0,0,0,2.114.864,1.082,1.082,0,0,1,.862,1.144c-.01.334,0,.668,0,1Z" transform="translate(17.411 0)" fill="#fff"/>
    <path id="Path_139503" data-name="Path 139503" d="M20.8,23.712q0,3.234,0,6.47c0,.948-.322,1.268-1.27,1.27H6.591c-.948,0-1.268-.322-1.268-1.272q0-6.468,0-12.94c0-.95.318-1.268,1.268-1.268q6.471,0,12.94,0c.948,0,1.268.32,1.268,1.27q0,3.234,0,6.47M7.283,29.474H18.817V17.938H7.283Z" transform="translate(5.321 15.97)" fill="#fff"/>
    <path id="Path_139504" data-name="Path 139504" d="M26.107,26.675v.846H24.185v-.85L21,25.351c-.136.13-.368.348-.632.6-.41-.47-.816-.932-1.258-1.438.132-.146.356-.388.566-.62-.264-.5-.552-.962-.76-1.458s-.338-1.028-.53-1.626h-.954v-1.93c.322-.014.652-.03.868-.038.45-1.084.872-2.094,1.316-3.16l-.6-.634,1.422-1.4c.18.26.362.526.478.694,1.138-.478,2.144-.9,3.242-1.366v-.85h1.938v.852c1.09.448,2.1.866,3.192,1.316l.632-.6c.408.472.808.938,1.248,1.446l-.5.544,1.32,3.154h.862v1.928c-.324.016-.652.03-.868.04-.452,1.082-.872,2.092-1.316,3.158l.588.618c-.456.448-.9.88-1.424,1.392-.162-.236-.344-.5-.458-.668-1.14.48-2.148.9-3.262,1.37M20.3,19.8a4.835,4.835,0,1,0,4.872-4.814A4.849,4.849,0,0,0,20.3,19.8" transform="translate(17.429 12.121)" fill="#fff"/>
    <path id="Path_139505" data-name="Path 139505" d="M6.871,13.9l1.542-1.15,2.06,2.72c.708-1.13,1.374-2.2,2.044-3.268s1.342-2.142,2.048-3.264c.546.342,1.064.668,1.612,1.01-.094.172-.16.312-.242.442q-2.19,3.5-4.382,7.006c-.63,1.006-1.284,1.03-2,.074-.882-1.17-1.76-2.344-2.678-3.57" transform="translate(6.871 8.942)" fill="#fff"/>
    <path id="Path_139506" data-name="Path 139506" d="M33.372,9.217a6.769,6.769,0,1,1-6.75-6.79,6.791,6.791,0,0,1,6.75,6.79m-1.934.024a4.835,4.835,0,1,0-4.9,4.79,4.847,4.847,0,0,0,4.9-4.79" transform="translate(19.834 2.427)" fill="#fff"/>
    <path id="Path_139507" data-name="Path 139507" d="M10.18,22.146l-1.672-1.6c-.522-.5-1.046-1-1.6-1.528l1.446-1.3,3.02,3.04c1.1-1.11,2.124-2.148,3.186-3.222l1.34,1.512c-.966.932-2.022,1.948-3.09,2.976,1.136,1.116,2.18,2.14,3.224,3.164-.552.5-1.006.916-1.482,1.35-.928-.944-1.954-1.986-3-3.056-1.094,1.126-2.112,2.176-3.124,3.22C7.914,26.15,7.5,25.7,7.06,25.226l3.12-3.08" transform="translate(6.912 17.542)" fill="#fff"/>
    <path id="Path_139508" data-name="Path 139508" d="M27.086,17.9a3.868,3.868,0,1,1-3.892-3.862A3.881,3.881,0,0,1,27.086,17.9M25.15,17.88a1.933,1.933,0,1,0-1.892,1.958A1.947,1.947,0,0,0,25.15,17.88" transform="translate(19.35 14.036)" fill="#fff"/>
  </g>
</svg>
