<svg xmlns="http://www.w3.org/2000/svg" xmlns:xlink="http://www.w3.org/1999/xlink" width="620" height="317" viewBox="0 0 620 317">
  <defs>
    <clipPath id="clip-path">
      <rect id="Rectangle_37888" data-name="Rectangle 37888" width="150.014" height="150" fill="#fff"/>
    </clipPath>
  </defs>
  <g id="Group_124965" data-name="Group 124965" transform="translate(-180 -2427.836)">
    <rect id="Rectangle_37883" data-name="Rectangle 37883" width="620" height="317" transform="translate(180 2427.836)" fill="#ff5151" opacity="0.7"/>
    <g id="Group_123998" data-name="Group 123998" transform="translate(415 2512)">
      <g id="Group_123998-2" data-name="Group 123998" clip-path="url(#clip-path)">
        <path id="Path_187121" data-name="Path 187121" d="M143.85,119.63a7.9,7.9,0,0,0-9.155,4.125c-.181.342-.225.389-.714.389h-.017c-11.452-.018-22.946-.018-34.166,0-.555,0-.549,0-.7-.4a9.824,9.824,0,0,0-6-6c-.4-.145-.4-.145-.391-.691.038-4.072.036-7.208-.007-10.167-.006-.443-.006-.47.48-.669A10.527,10.527,0,0,0,88.987,85.94c-2.644-.014-5.342-.011-7.951-.008l-2.57,0V83.154H86.6q11.742,0,23.484-.012a34.11,34.11,0,0,0,4.133-.253c13.011-1.621,22.547-11.827,23.732-25.4,1.051-12.036-7.125-23.886-19.019-27.562a1.789,1.789,0,0,1-1.392-1.356,24.612,24.612,0,0,0-28.3-16.113c-.579.122-.79.077-1.278-.5C79.822,2.353,69.639-1.5,57.7.521A31.548,31.548,0,0,0,39.54,10.164a33,33,0,0,0-8.374,18.917c-.079.7-.194.844-.885,1.081a27.23,27.23,0,0,0,8.7,52.979c7.4.038,14.927.03,22.2.021,3.242,0,6.482-.013,9.727-.008h.614v2.781H68.986c-2.6,0-5.169,0-7.737,0-5.352.014-9.777,3.442-10.758,8.336-1.032,5.142,1.464,9.769,6.5,12.066a.949.949,0,0,1,.281.387c.049,8.252.049,16.658,0,24.986a2.352,2.352,0,0,1-.529.671c-.321.33-.675.641-1.049.97a11.522,11.522,0,0,0-1.97,2.049c-.427.618-.6.687-1.114.687h-.02c-7.729-.025-15.588-.024-23.187-.024H21.107c-.2,0-.4-.01-.6-.022l-.069-.176A10.53,10.53,0,0,0,0,139.278,10.426,10.426,0,0,0,8.6,149.8a10.036,10.036,0,0,0,1.995.2,10.558,10.558,0,0,0,9.743-6.814c.141-.359.141-.355.742-.358,10.019.011,20.7.02,31.481-.011.653.014.793.075,1.058.582a8.033,8.033,0,0,0,8.461,4.13,8.3,8.3,0,0,0,6.671-6.628,8.023,8.023,0,0,0-4.068-8.494c-.557-.3-.64-.43-.637-1.029.033-6.1.029-12.3.026-18.3l0-5.971H85.951l0,1.479c0,3.039.008,5.912-.044,8.839a1.549,1.549,0,0,1-.4.271,10.545,10.545,0,1,0,13.61,13.593.971.971,0,0,1,.195-.368.84.84,0,0,1,.353-.041h.006c11.112.025,22.658.025,34.316,0,.472.007.513.034.718.416a7.924,7.924,0,0,0,9.172,4.093,8.143,8.143,0,0,0,6.139-7.809,8.05,8.05,0,0,0-6.164-7.953m-.616,7.9a1.4,1.4,0,0,1-.458.992,1.341,1.341,0,0,1-1.01.369,1.406,1.406,0,0,1-1.294-1.446,1.425,1.425,0,0,1,1.381-1.319h.043a1.405,1.405,0,0,1,1.339,1.4m-50.128-.055a3.808,3.808,0,0,1-3.7,3.809h-.057a3.771,3.771,0,1,1-.03-7.542h.005a3.794,3.794,0,0,1,3.778,3.733M56.916,96.445c.019-2.23,1.717-3.733,4.227-3.739q2.81-.007,5.619-.006l4.126,0h8.249q4.872,0,9.745,0c2.473.006,4.211,1.546,4.226,3.746a3.585,3.585,0,0,1-1.027,2.612,4.347,4.347,0,0,1-3.127,1.19c-9.4.012-18.78.012-27.891,0a4.338,4.338,0,0,1-3.121-1.189,3.591,3.591,0,0,1-1.026-2.62m3.749,41.622h.022a1.383,1.383,0,0,1,.061,2.765,1.341,1.341,0,0,1-1-.38,1.375,1.375,0,0,1,.916-2.384M84.2,76.391q-4.533,0-9.065,0-5.524-.007-11.063.005c-8.109.005-16.495.012-24.74-.014A20.489,20.489,0,0,1,34.2,36.021c2.964-.741,3.574-1.495,3.625-4.478A25.141,25.141,0,0,1,55.476,7.874a25.559,25.559,0,0,1,7.579-1.153,25.272,25.272,0,0,1,20.63,10.652c1.765,2.484,2.525,2.756,5.42,1.943a18.145,18.145,0,0,1,14.046,1.722,17.659,17.659,0,0,1,8.376,10.931,4.893,4.893,0,0,0,4.186,4,20.425,20.425,0,0,1,1.133,39.586,23.037,23.037,0,0,1-5.91.8c-8.91.057-17.972.049-26.735.042M10.609,143.223a3.789,3.789,0,0,1-3.822-3.694,3.79,3.79,0,0,1,3.763-3.847h.016a3.771,3.771,0,0,1,.043,7.541" transform="translate(0 0)" fill="#fff"/>
        <path id="Path_187122" data-name="Path 187122" d="M175.507,80.775a4.093,4.093,0,0,0,.908-3.462,45.987,45.987,0,0,0-2.98-7.11,4.219,4.219,0,0,0-3.23-1.8c-1.756-.13-1.981-.492-1.945-1.861a3.465,3.465,0,0,0-1.943-3.523c-1.919-.918-4-1.843-6.541-2.91a3.673,3.673,0,0,0-4.335.99,1.768,1.768,0,0,1-1.209.654h0a1.919,1.919,0,0,1-1.247-.673,3.63,3.63,0,0,0-4.178-1.025c-2.2.869-4.373,1.788-6.459,2.733a3.544,3.544,0,0,0-2.132,3.753,1.716,1.716,0,0,1-.3,1.291,1.974,1.974,0,0,1-1.371.4h-.035c-1.837,0-2.807.3-3.676,2.036-1.131,2.26-2.082,4.569-2.942,6.728A3.5,3.5,0,0,0,133,81.031a1.877,1.877,0,0,1,.755,1.2,2.082,2.082,0,0,1-.781,1.245,3.437,3.437,0,0,0-1.123,3.889,62.074,62.074,0,0,0,3.055,7.036,4.24,4.24,0,0,0,3.235,1.781c1.745.128,1.969.492,1.933,1.87a3.452,3.452,0,0,0,1.955,3.521c2.234,1.054,4.534,2.061,6.836,2.994a3.426,3.426,0,0,0,3.913-.964c1.033-1.023,1.639-1.017,2.7.03a3.861,3.861,0,0,0,2.716,1.214,3.673,3.673,0,0,0,1.348-.265,55.424,55.424,0,0,0,6.736-3.029,4.3,4.3,0,0,0,1.774-3.226c.13-1.753.485-1.978,1.861-1.943a3.453,3.453,0,0,0,3.525-1.951l.193-.41a61.975,61.975,0,0,0,2.809-6.642,4.222,4.222,0,0,0-.97-3.593c-1.195-1.379-1.193-1.576.029-3.017m-36.428,6.171a8.04,8.04,0,0,0-.019-9.326,2.291,2.291,0,0,1,.184-1.607c.316-.773.718-1.1.854-1.132a8.208,8.208,0,0,0,6.687-6.69A2.378,2.378,0,0,1,148,67.329a3.2,3.2,0,0,1,1.145-.258.649.649,0,0,1,.278.043,8.374,8.374,0,0,0,9.466.022,2.149,2.149,0,0,1,1.467.2,2.256,2.256,0,0,1,1.247.963,8.172,8.172,0,0,0,6.562,6.588,4.607,4.607,0,0,1,1.369,2.329c-.125.19-.268.41-.4.634a7.977,7.977,0,0,0,.021,8.917,2,2,0,0,1-.016,1.723,2.132,2.132,0,0,1-1.267,1.312,8.1,8.1,0,0,0-6.263,6.348,2.022,2.022,0,0,1-1.233,1.124,2.1,2.1,0,0,1-1.741.062,8,8,0,0,0-9.055.031,2.154,2.154,0,0,1-1.728-.1,1.965,1.965,0,0,1-1.184-1.024,8.2,8.2,0,0,0-6.5-6.5,2.006,2.006,0,0,1-.953-1.185,2.116,2.116,0,0,1-.13-1.615" transform="translate(-79.157 -35.949)" fill="#fff"/>
        <path id="Path_187123" data-name="Path 187123" d="M125.456,30.7V24.084l-.992-.005a22.008,22.008,0,0,0-16.356,7.1c-4.066,4.348-6.269,10.068-5.893,15.3l.067.925h6.469l.033-.962A15.684,15.684,0,0,1,113.421,35.4,16.087,16.087,0,0,1,124.5,30.738Z" transform="translate(-61.442 -14.48)" fill="#fff"/>
        <rect id="Rectangle_37885" data-name="Rectangle 37885" width="6.626" height="6.6" transform="translate(62.138 93.195)" fill="#fff"/>
        <rect id="Rectangle_37886" data-name="Rectangle 37886" width="6.557" height="6.636" transform="translate(71.747 93.203)" fill="#fff"/>
        <rect id="Rectangle_37887" data-name="Rectangle 37887" width="6.572" height="6.636" transform="translate(81.289 93.158)" fill="#fff"/>
        <path id="Path_187124" data-name="Path 187124" d="M172.155,110.9h.094a10.535,10.535,0,0,0,7.589-17.863,10.542,10.542,0,0,0-18.121,7.175A10.561,10.561,0,0,0,172.155,110.9m-2.568-13.19a3.727,3.727,0,0,1,2.667-1.123h.025a3.77,3.77,0,0,1,.025,7.54h-.026a3.791,3.791,0,0,1-3.787-3.7,3.742,3.742,0,0,1,1.1-2.716" transform="translate(-97.248 -54.011)" fill="#fff"/>
      </g>
    </g>
  </g>
</svg>
