<svg id="Group_95969" data-name="Group 95969" xmlns="http://www.w3.org/2000/svg" xmlns:xlink="http://www.w3.org/1999/xlink" width="60" height="59.968" viewBox="0 0 60 59.968">
  <defs>
    <clipPath id="clip-path">
      <rect id="Rectangle_37864" data-name="Rectangle 37864" width="60" height="59.968" fill="#fff"/>
    </clipPath>
  </defs>
  <g id="Group_95968" data-name="Group 95968" clip-path="url(#clip-path)">
    <path id="Path_139514" data-name="Path 139514" d="M0,73.292a4.43,4.43,0,0,1,2.566-2.569,19.565,19.565,0,0,1,6.2-1.616,35.115,35.115,0,0,1,11.471.434,14,14,0,0,1,4.219,1.51,3.6,3.6,0,0,1,1.972,3.425q-.081,13.7-.005,27.4a3.506,3.506,0,0,1-1.941,3.326,13.824,13.824,0,0,1-4.764,1.524,37.511,37.511,0,0,1-14.931-.42,14.192,14.192,0,0,1-2.359-.849A4.035,4.035,0,0,1,0,102.923ZM1.874,90.885c0,1.317.044,2.583-.016,3.844a1.511,1.511,0,0,0,.917,1.6A15.4,15.4,0,0,0,5.6,97.4a34.814,34.814,0,0,0,14.511.151,17.83,17.83,0,0,0,3.456-1.2c.38-.161.866-.626.89-.98.1-1.467.042-2.945.042-4.466-3.619,1.716-7.444,1.994-11.293,2s-7.676-.286-11.333-2.015m0-7.007c0,1.211.022,2.533-.01,3.854a1.241,1.241,0,0,0,.671,1.262,14.254,14.254,0,0,0,2.729,1.143,34.51,34.51,0,0,0,15.083.195,17.582,17.582,0,0,0,3.472-1.312,1.209,1.209,0,0,0,.653-.824c.066-1.471.03-2.947.03-4.3a34.519,34.519,0,0,1-22.627-.013M24.5,98.073c-3.622,1.721-7.451,2-11.3,2s-7.705-.293-11.325-2.018c0,1.377.024,2.684-.011,3.99a1.29,1.29,0,0,0,.7,1.31,12.974,12.974,0,0,0,2.512,1.072,34.351,34.351,0,0,0,15.144.268,17.235,17.235,0,0,0,3.395-1.2c.364-.156.828-.605.85-.946.094-1.469.04-2.948.04-4.475M1.874,76.681c0,1.244.025,2.551-.011,3.855a1.283,1.283,0,0,0,.7,1.308A13.868,13.868,0,0,0,5.294,82.98a35.375,35.375,0,0,0,15.083.19A9.085,9.085,0,0,0,23.9,81.823a1.351,1.351,0,0,0,.632-1.232c-.026-1.169-.006-2.34-.01-3.51a2.973,2.973,0,0,0-.035-.371,33.306,33.306,0,0,1-22.613-.028M13.447,70.71a27.71,27.71,0,0,0-7.571.848,17.044,17.044,0,0,0-3.373,1.4c-.874.474-.831,1.022,0,1.6a7.9,7.9,0,0,0,1.442.758,20.479,20.479,0,0,0,6.8,1.306,34.029,34.029,0,0,0,9.71-.654,9.116,9.116,0,0,0,3.581-1.508c.639-.49.667-.954.007-1.4a9.281,9.281,0,0,0-2.009-1.045,26.052,26.052,0,0,0-8.587-1.3" transform="translate(0 -58.063)" fill="#fff"/>
    <path id="Path_139515" data-name="Path 139515" d="M261.569,293.87c-.1-.051-.2-.106-.3-.151a2.384,2.384,0,0,1-1.587-2.3q-.014-5.822,0-11.643a2.341,2.341,0,0,1,2.31-2.451c1.558-.061,3.12-.034,4.68-.005A2.533,2.533,0,0,1,268.9,278.7c.469.809.915,1.633,1.421,2.418a.954.954,0,0,0,.672.386c1.775.032,3.55.012,5.325.02a2.47,2.47,0,0,1,2.707,2.731c0,2.126-.058,4.254.02,6.377a2.932,2.932,0,0,1-1.894,3.238Zm.011-10.474c-.013.222-.029.374-.029.527q0,3.6,0,7.2c0,.743.138.875.9.875q6.907,0,13.813,0c.73,0,.885-.158.885-.9q0-3.336,0-6.671c0-.94-.091-1.031-1.043-1.031H261.579m-.028-1.933h6.776c-.4-.684-.721-1.306-1.113-1.883a.968.968,0,0,0-.663-.388c-1.462-.035-2.925-.026-4.387-.015a.564.564,0,0,0-.613.629c0,.544,0,1.088,0,1.656" transform="translate(-219.046 -233.903)" fill="#fff"/>
    <path id="Path_139516" data-name="Path 139516" d="M269.38,16.584q-3.424,0-6.848,0c-1.914,0-2.848-.93-2.848-2.825q0-5.5,0-11A2.467,2.467,0,0,1,262.423.005c1.307,0,2.614.013,3.921,0a2.757,2.757,0,0,1,2.63,1.523c.417.749.873,1.477,1.279,2.231a.792.792,0,0,0,.815.481c1.775-.026,3.55-.015,5.326-.01a2.46,2.46,0,0,1,2.637,2.631q.008,3.54,0,7.08a2.454,2.454,0,0,1-2.626,2.641c-2.341.02-4.682.005-7.023.005M261.586,6.1c-.012.227-.027.38-.027.533q0,3.6,0,7.2c0,.734.143.876.9.876q6.88,0,13.759,0c.8,0,.933-.146.934-.972q0-3.278,0-6.556c0-.988-.091-1.081-1.055-1.082H261.586Zm-.025-1.911h6.787c-.408-.7-.755-1.348-1.164-1.956a.891.891,0,0,0-.63-.335c-1.462-.03-2.924-.021-4.386-.013a.561.561,0,0,0-.607.632c0,.543,0,1.087,0,1.673" transform="translate(-219.055 -0.001)" fill="#fff"/>
    <path id="Path_139517" data-name="Path 139517" d="M269.348,155.23q-3.482,0-6.964,0a2.463,2.463,0,0,1-2.7-2.676q-.008-5.617,0-11.234a2.461,2.461,0,0,1,2.7-2.676c1.326,0,2.653,0,3.979,0a2.752,2.752,0,0,1,2.589,1.495c.439.781.909,1.546,1.337,2.332a.674.674,0,0,0,.688.4c1.755-.016,3.511-.012,5.267-.006a2.51,2.51,0,0,1,2.783,2.788q0,3.423,0,6.846a2.489,2.489,0,0,1-2.713,2.735q-3.482.006-6.964,0m-7.765-10.5c-.013.231-.03.385-.03.538q0,3.6,0,7.2c0,.735.152.884.9.884q6.88,0,13.761,0c.8,0,.939-.15.939-.968q0-3.308,0-6.615c0-.915-.125-1.04-1.049-1.04H261.583Zm6.757-1.906c-.42-.714-.777-1.38-1.2-2a.912.912,0,0,0-.657-.3c-1.423-.026-2.848-.033-4.271.008a.806.806,0,0,0-.615.461,14.118,14.118,0,0,0-.03,1.826Z" transform="translate(-219.049 -116.95)" fill="#fff"/>
    <path id="Path_139518" data-name="Path 139518" d="M190.291,90.417c.931,0,1.827-.006,2.722,0a.91.91,0,0,1,.971.685.833.833,0,0,1-.378,1.016,1.571,1.571,0,0,1-.723.162c-1.093.017-2.186.011-3.279.006-.921,0-1.229-.311-1.23-1.23q0-6.44,0-12.879V70.6c-.855,0-1.686.01-2.517,0a.922.922,0,0,1-1.023-1.006.913.913,0,0,1,.993-.86c.818-.014,1.636,0,2.547,0v-.7q0-9.805,0-19.611c0-1.117.259-1.377,1.375-1.378,1.054,0,2.108-.006,3.162,0,.709.005,1.107.345,1.11.92s-.4.94-1.093.949c-.873.011-1.745,0-2.648,0V68.729h2.01c.234,0,.469-.006.7,0a.932.932,0,0,1,1.027.948c-.008.559-.4.914-1.055.921-.876.01-1.753,0-2.673,0Z" transform="translate(-155.914 -39.679)" fill="#fff"/>
  </g>
</svg>
