<svg id="Group_89555" data-name="Group 89555" xmlns="http://www.w3.org/2000/svg" xmlns:xlink="http://www.w3.org/1999/xlink" width="40.304" height="50" viewBox="0 0 40.304 50">
  <defs>
    <clipPath id="clip-path">
      <rect id="Rectangle_35452" data-name="Rectangle 35452" width="40.304" height="50" fill="#ff5151"/>
    </clipPath>
  </defs>
  <g id="Group_89554" data-name="Group 89554" clip-path="url(#clip-path)">
    <path id="Path_137380" data-name="Path 137380" d="M2.079,50c-.13-.058-.259-.118-.39-.173a2.535,2.535,0,0,1-1.679-2.3C0,47.346,0,47.167,0,46.988Q0,25,0,3.014A4.417,4.417,0,0,1,.081,2,2.566,2.566,0,0,1,2.61.023C4.856.011,7.1.017,9.347.02c.574,0,.913.281.9.728-.012.424-.342.7-.89.7-2.1.007-4.2,0-6.3,0-1.293,0-1.65.358-1.651,1.651V7.119H38.851c.008-.175.022-.333.022-.491q0-1.708,0-3.416c0-1.443-.314-1.762-1.735-1.762H13.415c-.77,0-1.107-.217-1.111-.712s.325-.719,1.1-.719C21.388.019,29.377.04,37.366,0A2.8,2.8,0,0,1,40.3,2.952c-.056,4.571-.017,9.143-.017,13.714,0,.1,0,.2,0,.293-.024.479-.287.773-.694.779-.425.007-.709-.3-.71-.808q-.007-3.855,0-7.711v-.6H1.409V46.991c0,1.194.382,1.577,1.578,1.577H37.3c1.187,0,1.571-.388,1.571-1.584q0-13.08,0-26.16a5.057,5.057,0,0,1,.009-.537.7.7,0,0,1,1.387,0,5.429,5.429,0,0,1,.012.585c0,8.606-.022,17.212.021,25.818.009,1.63-.505,2.77-2.1,3.305Z" fill="#ff5151"/>
    <path id="Path_137381" data-name="Path 137381" d="M10.232,15.958l5.676,3.28a3.466,3.466,0,0,1,.377.224.68.68,0,0,1,.246.937.687.687,0,0,1-.965.279c-.461-.239-.9-.513-1.354-.773L8.685,16.712c-.816-.472-.817-1.045,0-1.517q3.291-1.9,6.582-3.8a2.178,2.178,0,0,1,.387-.2.674.674,0,0,1,.876.32.652.652,0,0,1-.17.875,2.988,2.988,0,0,1-.494.312q-2.553,1.474-5.107,2.945c-.153.088-.3.183-.527.319" fill="#ff5151"/>
    <path id="Path_137382" data-name="Path 137382" d="M29.875,15.957c-.717-.418-1.358-.8-2-1.167-1.293-.748-2.594-1.484-3.878-2.249a1.02,1.02,0,0,1-.481-.557.763.763,0,0,1,.24-.665.962.962,0,0,1,.8-.059c.714.347,1.391.774,2.08,1.171q2.385,1.374,4.77,2.751c.823.476.833,1.057.024,1.525Q28.113,18.622,24.8,20.53c-.084.049-.165.1-.254.145a.713.713,0,0,1-.975-.262.683.683,0,0,1,.272-.965c.427-.268.868-.51,1.306-.761,1.545-.894,3.094-1.786,4.729-2.73" fill="#ff5151"/>
    <path id="Path_137383" data-name="Path 137383" d="M22.091,10.944c-.18.726-.379,1.528-.577,2.331q-.979,3.969-1.958,7.939c-.093.377-.263.67-.7.695a.638.638,0,0,1-.7-.479.936.936,0,0,1,0-.473q1.243-5.082,2.5-10.161c.121-.488.412-.7.828-.643a.721.721,0,0,1,.6.791" fill="#ff5151"/>
    <path id="Path_137384" data-name="Path 137384" d="M22.992,34.486c1.22,0,2.441,0,3.661,0,.571,0,.913.286.9.731-.011.428-.338.7-.885.7q-3.71.009-7.42,0c-.551,0-.864-.274-.869-.712,0-.458.316-.721.9-.723,1.237,0,2.473,0,3.71,0" fill="#ff5151"/>
    <path id="Path_137385" data-name="Path 137385" d="M22.728,45.142c-1.235,0-2.47.011-3.7-.006-.607-.008-.97-.565-.656-1.022a.952.952,0,0,1,.673-.362c2.486-.026,4.97-.019,7.456-.014a.684.684,0,0,1,.778.684c.01.437-.278.714-.8.718-1.25.009-2.5,0-3.751,0" fill="#ff5151"/>
    <path id="Path_137386" data-name="Path 137386" d="M12.291,34.486c1.025,0,2.05,0,3.074,0,.582,0,.907.267.9.721s-.329.714-.915.715q-3.075.008-6.149,0c-.587,0-.9-.269-.9-.727s.318-.707.913-.709c1.024,0,2.049,0,3.074,0" fill="#ff5151"/>
    <path id="Path_137387" data-name="Path 137387" d="M12.318,25.26c1.024,0,2.049,0,3.073,0,.569,0,.869.249.877.689.008.463-.3.723-.893.724q-3.1,0-6.195,0c-.567,0-.864-.245-.874-.691-.011-.468.289-.719.89-.722,1.041-.006,2.081,0,3.122,0" fill="#ff5151"/>
    <path id="Path_137388" data-name="Path 137388" d="M15.269,32.831c-.941,0-1.884,0-2.825,0-.541,0-.869-.276-.871-.7s.325-.7.868-.7q2.826-.008,5.649,0c.549,0,.869.271.869.7s-.326.7-.867.7c-.941.006-1.883,0-2.823,0" fill="#ff5151"/>
    <path id="Path_137389" data-name="Path 137389" d="M11.005,40.641c.617,0,1.235-.007,1.853,0,.541.008.854.286.845.73-.007.424-.311.7-.825.7q-1.877.015-3.755,0c-.514,0-.814-.281-.819-.707-.005-.447.3-.72.847-.727.618-.008,1.236,0,1.854,0" fill="#ff5151"/>
    <path id="Path_137390" data-name="Path 137390" d="M32.17,35.924c-.551,0-1.1.011-1.653,0s-.837-.3-.819-.753c.017-.424.316-.677.837-.68q1.629-.01,3.259,0c.533,0,.86.29.854.723a.745.745,0,0,1-.825.71c-.55.014-1.1,0-1.653,0" fill="#ff5151"/>
    <path id="Path_137391" data-name="Path 137391" d="M32.134,43.736c.568,0,1.136-.01,1.7,0a.7.7,0,0,1,.752.714.69.69,0,0,1-.733.683q-1.752.019-3.5,0a.7.7,0,0,1-.73-.688.709.709,0,0,1,.76-.708c.584-.013,1.168,0,1.752,0" fill="#ff5151"/>
    <path id="Path_137392" data-name="Path 137392" d="M13.9,29.768c-.487,0-.974.009-1.461,0-.538-.013-.868-.3-.868-.722s.332-.707.868-.71q1.485-.007,2.971,0c.547,0,.856.267.857.711s-.308.708-.857.721c-.5.011-1.007,0-1.51,0" fill="#ff5151"/>
    <path id="Path_137393" data-name="Path 137393" d="M20.676,28.332c.5,0,1.007-.009,1.51,0a.726.726,0,0,1,.779.7.7.7,0,0,1-.711.718q-1.63.037-3.262,0a.682.682,0,0,1-.719-.749c.019-.409.31-.663.8-.672.535-.009,1.071,0,1.607,0" fill="#ff5151"/>
    <path id="Path_137394" data-name="Path 137394" d="M23.522,32.829c-.552,0-1.1.011-1.656,0a.7.7,0,0,1-.749-.719.675.675,0,0,1,.734-.679q1.68-.021,3.362,0a.7.7,0,0,1,.753.716.714.714,0,0,1-.787.686c-.552.011-1.105,0-1.657,0" fill="#ff5151"/>
    <path id="Path_137395" data-name="Path 137395" d="M27.328,26.676c-.537,0-1.074.008-1.611,0-.51-.01-.8-.285-.8-.72s.279-.683.777-.689q1.635-.018,3.27,0a.674.674,0,0,1,.75.714.7.7,0,0,1-.777.692c-.537.012-1.074,0-1.611,0" fill="#ff5151"/>
    <path id="Path_137396" data-name="Path 137396" d="M20.585,26.675c-.5,0-1.006.008-1.509,0s-.805-.274-.8-.71a.674.674,0,0,1,.761-.7q1.583-.019,3.164,0a.7.7,0,0,1,.766.7.72.72,0,0,1-.773.7c-.535.012-1.071,0-1.606,0" fill="#ff5151"/>
    <path id="Path_137397" data-name="Path 137397" d="M13.908,38.985c-.519,0-1.038.01-1.557,0a.718.718,0,0,1-.777-.695.707.707,0,0,1,.765-.7q1.581-.017,3.162,0a.7.7,0,1,1,.013,1.4c-.535.014-1.071,0-1.606,0" fill="#ff5151"/>
    <path id="Path_137398" data-name="Path 137398" d="M13.893,45.141c-.519,0-1.038.011-1.557,0a.7.7,0,1,1,.017-1.4q1.581-.013,3.163,0a.675.675,0,0,1,.751.707c-.005.419-.282.68-.768.692-.535.013-1.071,0-1.606,0" fill="#ff5151"/>
    <path id="Path_137399" data-name="Path 137399" d="M20.58,38.985c-.519,0-1.039.01-1.557,0a.676.676,0,0,1-.75-.708c0-.427.273-.686.766-.691q1.581-.015,3.164,0a.7.7,0,0,1,.761.706.717.717,0,0,1-.778.694c-.535.012-1.071,0-1.606,0" fill="#ff5151"/>
    <path id="Path_137400" data-name="Path 137400" d="M18.061,42.08c-.406,0-.813.008-1.219,0-.535-.012-.858-.3-.848-.734.008-.418.322-.7.83-.7q1.292-.015,2.584,0a.723.723,0,1,1,.018,1.433c-.454.014-.91,0-1.365,0" fill="#ff5151"/>
    <path id="Path_137401" data-name="Path 137401" d="M5.051,40.644c.275,0,.551-.018.825,0a.7.7,0,0,1,.694.724.667.667,0,0,1-.673.692,15.248,15.248,0,0,1-1.7,0,.709.709,0,0,1,.026-1.416c.273-.025.55,0,.825,0" fill="#ff5151"/>
    <path id="Path_137402" data-name="Path 137402" d="M5.071,35.915a8.469,8.469,0,0,1-.873-.006.681.681,0,0,1-.664-.746.664.664,0,0,1,.693-.668c.549-.025,1.1-.026,1.649,0a.671.671,0,0,1,.692.673.687.687,0,0,1-.673.742,8.083,8.083,0,0,1-.824.005" fill="#ff5151"/>
    <path id="Path_137403" data-name="Path 137403" d="M5.07,29.762c-.275,0-.551.019-.824,0a.711.711,0,1,1,.03-1.422c.517-.014,1.035-.015,1.552,0a.708.708,0,0,1,.743.676.694.694,0,0,1-.677.739,7.8,7.8,0,0,1-.824.006v0" fill="#ff5151"/>
    <path id="Path_137404" data-name="Path 137404" d="M5.033,45.137c-.276,0-.554.015-.829,0a.642.642,0,0,1-.668-.687.628.628,0,0,1,.65-.7c.585-.024,1.172-.026,1.755,0a.625.625,0,0,1,.624.678.632.632,0,0,1-.606.695,8.662,8.662,0,0,1-.926.007v.006" fill="#ff5151"/>
    <path id="Path_137405" data-name="Path 137405" d="M5.1,25.271c.276,0,.555-.021.828,0a.695.695,0,0,1,0,1.385,16.842,16.842,0,0,1-1.755,0,.7.7,0,0,1,0-1.385c.306-.027.617,0,.926,0" fill="#ff5151"/>
    <path id="Path_137406" data-name="Path 137406" d="M12.684,3.236A1.094,1.094,0,1,1,11.57,4.347a1.109,1.109,0,0,1,1.114-1.111" fill="#ff5151"/>
    <path id="Path_137407" data-name="Path 137407" d="M5.014,38.982c-.26,0-.521.014-.78,0a.668.668,0,0,1-.7-.71.64.64,0,0,1,.673-.682c.568-.018,1.138-.022,1.706,0a.632.632,0,0,1,.652.7.65.65,0,0,1-.673.686c-.292.019-.585,0-.878,0" fill="#ff5151"/>
    <path id="Path_137408" data-name="Path 137408" d="M4.747,5.423a1.093,1.093,0,1,1,1.121-1.1,1.107,1.107,0,0,1-1.121,1.1" fill="#ff5151"/>
    <path id="Path_137409" data-name="Path 137409" d="M5.039,32.826c-.276,0-.554.015-.829,0a.646.646,0,0,1-.673-.684.624.624,0,0,1,.645-.7c.584-.026,1.171-.025,1.755,0a.622.622,0,0,1,.628.673.649.649,0,0,1-.649.709c-.29.026-.584.005-.877.005v0" fill="#ff5151"/>
    <path id="Path_137410" data-name="Path 137410" d="M8.755,3.238A1.094,1.094,0,1,1,7.627,4.269,1.086,1.086,0,0,1,8.755,3.238" fill="#ff5151"/>
  </g>
</svg>
