<svg id="Group_89564" data-name="Group 89564" xmlns="http://www.w3.org/2000/svg" xmlns:xlink="http://www.w3.org/1999/xlink" width="50.859" height="50" viewBox="0 0 50.859 50">
  <defs>
    <clipPath id="clip-path">
      <rect id="Rectangle_35506" data-name="Rectangle 35506" width="50.859" height="50" fill="#ff5151"/>
    </clipPath>
  </defs>
  <g id="Group_89563" data-name="Group 89563" clip-path="url(#clip-path)">
    <path id="Path_137429" data-name="Path 137429" d="M32.7,25.325v4.688H44.445v4.942l.1.043.672-.886.735.874-2.02,1.981-2-2.02.664-.647.793.742V31.054H31.644V25.3H26.417V35.05c.309-.294.566-.54.817-.781l.651.661-2.01,1.994c-.622-.623-1.309-1.312-2.017-2.02l.67-.6.778.742V25.249H19.239v5.8H7.469v4c.317-.3.581-.544.833-.78l.629.678L6.914,36.966,4.883,34.932l.7-.633.829.777V30.018H18.153V25.206c-.28-.015-.559-.035-.837-.044A45.4,45.4,0,0,1,12.656,25a7.183,7.183,0,0,1-6.089-7.112,7.3,7.3,0,0,1,6.041-7.175.721.721,0,0,0,.624-.476,7.633,7.633,0,0,1,9.159-4.1.443.443,0,0,0,.631-.242,7.665,7.665,0,0,1,14.256,3,16.455,16.455,0,0,1,.009,1.847c.489.078.989.13,1.475.241a7.261,7.261,0,0,1-1.536,14.339c-1.487.014-2.975,0-4.522,0M35.972,11.8a6.633,6.633,0,0,0-.314-4.866A6.687,6.687,0,0,0,27.615,3.4a6.91,6.91,0,0,0-4.28,4.185c-.182-.069-.323-.119-.46-.177a6.517,6.517,0,0,0-8.816,3.574,1.009,1.009,0,0,1-.972.727,6.2,6.2,0,0,0-.294,12.269,36.775,36.775,0,0,0,4.2.132q10.073.1,20.144.177a6.221,6.221,0,0,0,1.391-12.284,18.734,18.734,0,0,0-2.56-.209" fill="#ff5151"/>
    <path id="Path_137430" data-name="Path 137430" d="M13.832,50H0V38.588H13.832ZM12.8,39.633H1.062v9.323H12.8Z" fill="#ff5151"/>
    <path id="Path_137431" data-name="Path 137431" d="M18.956,38.574H32.775V50H18.956Zm12.8,1.058H19.993v9.326H31.751Z" fill="#ff5151"/>
    <path id="Path_137432" data-name="Path 137432" d="M50.859,50H37.027V38.589H50.859ZM49.807,39.632H38.065v9.34H49.807Z" fill="#ff5151"/>
    <path id="Path_137433" data-name="Path 137433" d="M39.023,7.132c-.192.062-.349.118-.51.162-.143.04-.29.065-.467.1A8.782,8.782,0,0,0,27,1.426C26.9,1.1,26.811.8,26.719.5a9.679,9.679,0,0,1,12.3,6.63" fill="#ff5151"/>
    <path id="Path_137434" data-name="Path 137434" d="M9.337,9.687c.12.208.222.381.32.557.057.1.1.206.17.344a8.535,8.535,0,0,0-4,5.08L4.831,15.4A9.468,9.468,0,0,1,9.337,9.687" fill="#ff5151"/>
    <path id="Path_137435" data-name="Path 137435" d="M20.147,3.729V4.753A8.93,8.93,0,0,0,14.309,7.03C14.2,6.876,14.1,6.74,14,6.61s-.19-.231-.323-.391a9.762,9.762,0,0,1,6.47-2.49" fill="#ff5151"/>
    <path id="Path_137436" data-name="Path 137436" d="M45.273,16.4a8.533,8.533,0,0,0-2.261-4.2l.785-.656a9.082,9.082,0,0,1,2.477,4.621l-1,.23" fill="#ff5151"/>
    <rect id="Rectangle_35478" data-name="Rectangle 35478" width="3.369" height="0.956" transform="translate(35.63 32.142)" fill="#ff5151"/>
    <rect id="Rectangle_35479" data-name="Rectangle 35479" width="3.344" height="0.956" transform="translate(10.504 32.136)" fill="#ff5151"/>
    <rect id="Rectangle_35480" data-name="Rectangle 35480" width="3.037" height="0.976" transform="translate(39.519 28.106)" fill="#ff5151"/>
    <rect id="Rectangle_35481" data-name="Rectangle 35481" width="3.037" height="0.961" transform="translate(14.374 28.099)" fill="#ff5151"/>
    <path id="Path_137437" data-name="Path 137437" d="M25.46,2.042c-.633.465-1.215.891-1.829,1.34l-.741-.733,2.06-1.508.51.9" fill="#ff5151"/>
    <path id="Path_137438" data-name="Path 137438" d="M12.39,9.46l-.915-.475L12.9,6.9l.768.7L12.39,9.46" fill="#ff5151"/>
    <rect id="Rectangle_35482" data-name="Rectangle 35482" width="1.616" height="0.981" transform="translate(11.245 28.094)" fill="#ff5151"/>
    <rect id="Rectangle_35483" data-name="Rectangle 35483" width="1.601" height="0.97" transform="translate(36.417 28.099)" fill="#ff5151"/>
    <path id="Path_137439" data-name="Path 137439" d="M42.271,11.532l-1.114-.756.5-.9,1.27.841-.657.812" fill="#ff5151"/>
    <rect id="Rectangle_35484" data-name="Rectangle 35484" width="1.365" height="0.976" transform="translate(33.362 32.126)" fill="#ff5151"/>
    <rect id="Rectangle_35485" data-name="Rectangle 35485" width="1.344" height="0.982" transform="translate(8.213 32.114)" fill="#ff5151"/>
    <path id="Path_137440" data-name="Path 137440" d="M36.572,16.578H39.7v4.115H36.572Zm1.059,3.078h1.041V17.609H37.631Z" fill="#ff5151"/>
    <path id="Path_137441" data-name="Path 137441" d="M17.339,20.717H14.2V16.583h3.134Zm-1.062-3.1H15.235v2.046h1.042Z" fill="#ff5151"/>
    <path id="Path_137442" data-name="Path 137442" d="M27.444,9.465h3.131V13.59H27.444Zm2.092,1.043H28.487v2.053h1.049Z" fill="#ff5151"/>
    <path id="Path_137443" data-name="Path 137443" d="M29.1,16.581h3.142V20.7H29.1Zm2.1,1.043h-1.07v2.034H31.2Z" fill="#ff5151"/>
    <path id="Path_137444" data-name="Path 137444" d="M21.654,16.58H24.78v4.127H21.654Zm2.1,1.03H22.7v2.054h1.057Z" fill="#ff5151"/>
    <rect id="Rectangle_35486" data-name="Rectangle 35486" width="0.958" height="4.013" transform="translate(18.744 16.629)" fill="#ff5151"/>
    <rect id="Rectangle_35487" data-name="Rectangle 35487" width="0.982" height="4.009" transform="translate(11.266 16.618)" fill="#ff5151"/>
    <rect id="Rectangle_35488" data-name="Rectangle 35488" width="0.962" height="4.023" transform="translate(33.651 16.618)" fill="#ff5151"/>
    <rect id="Rectangle_35489" data-name="Rectangle 35489" width="0.942" height="4.036" transform="translate(32.17 9.492)" fill="#ff5151"/>
    <rect id="Rectangle_35490" data-name="Rectangle 35490" width="0.958" height="4.009" transform="translate(24.553 9.51)" fill="#ff5151"/>
    <rect id="Rectangle_35491" data-name="Rectangle 35491" width="0.973" height="4.006" transform="translate(20.761 9.521)" fill="#ff5151"/>
    <rect id="Rectangle_35492" data-name="Rectangle 35492" width="0.966" height="4.024" transform="translate(16.951 9.509)" fill="#ff5151"/>
    <rect id="Rectangle_35493" data-name="Rectangle 35493" width="0.97" height="4.006" transform="translate(26.184 16.617)" fill="#ff5151"/>
    <rect id="Rectangle_35494" data-name="Rectangle 35494" width="5.285" height="0.975" transform="translate(5.566 42.011)" fill="#ff5151"/>
    <rect id="Rectangle_35495" data-name="Rectangle 35495" width="5.154" height="0.972" transform="translate(3.001 45.615)" fill="#ff5151"/>
    <rect id="Rectangle_35496" data-name="Rectangle 35496" width="1.431" height="0.988" transform="translate(9.414 45.613)" fill="#ff5151"/>
    <rect id="Rectangle_35497" data-name="Rectangle 35497" width="1.445" height="0.958" transform="translate(3.008 42.01)" fill="#ff5151"/>
    <rect id="Rectangle_35498" data-name="Rectangle 35498" width="5.198" height="0.975" transform="translate(21.934 45.619)" fill="#ff5151"/>
    <rect id="Rectangle_35499" data-name="Rectangle 35499" width="5.272" height="0.98" transform="translate(24.52 41.999)" fill="#ff5151"/>
    <rect id="Rectangle_35500" data-name="Rectangle 35500" width="1.455" height="0.972" transform="translate(21.932 42.009)" fill="#ff5151"/>
    <rect id="Rectangle_35501" data-name="Rectangle 35501" width="1.434" height="0.98" transform="translate(28.356 45.62)" fill="#ff5151"/>
    <rect id="Rectangle_35502" data-name="Rectangle 35502" width="5.205" height="0.956" transform="translate(39.995 45.63)" fill="#ff5151"/>
    <rect id="Rectangle_35503" data-name="Rectangle 35503" width="5.28" height="0.958" transform="translate(42.576 42.016)" fill="#ff5151"/>
    <rect id="Rectangle_35504" data-name="Rectangle 35504" width="1.447" height="0.965" transform="translate(39.998 42.003)" fill="#ff5151"/>
    <rect id="Rectangle_35505" data-name="Rectangle 35505" width="1.435" height="0.975" transform="translate(46.434 45.614)" fill="#ff5151"/>
  </g>
</svg>
