<svg id="Group_123995" data-name="Group 123995" xmlns="http://www.w3.org/2000/svg" xmlns:xlink="http://www.w3.org/1999/xlink" width="60.002" height="60" viewBox="0 0 60.002 60">
  <defs>
    <clipPath id="clip-path">
      <rect id="Rectangle_37863" data-name="Rectangle 37863" width="60.002" height="60" fill="#fff"/>
    </clipPath>
  </defs>
  <g id="Group_95966" data-name="Group 95966" clip-path="url(#clip-path)">
    <path id="Path_139509" data-name="Path 139509" d="M19.362,34.742a16.143,16.143,0,0,1-7.554-.83C4.958,31.34.918,26.424.106,19.138a17.382,17.382,0,0,1,33.474-8.1.8.8,0,0,0,.916.6c5.546-.014,11.092,0,16.638-.016a1.208,1.208,0,0,1,.95.386c2.512,2.534,5.048,5.048,7.556,7.588a1.309,1.309,0,0,1,.348.826Q60.012,39.93,60,59.442V60H19.362Zm1.96-.266V58.048H58.038V21.3H50.3V13.606H34.56a44.74,44.74,0,0,1,.208,4.85,45.029,45.029,0,0,1-.78,4.806h4.684V36.756H25.15V33.11l-3.828,1.366m5.786-5.054A15.346,15.346,0,0,0,32.17,12.75a15.492,15.492,0,0,0-29.758.778,15.28,15.28,0,0,0,5.3,15.878c.038-.164.082-.316.1-.468a8.758,8.758,0,0,1,5.2-6.94c.434-.2.914-.306,1.36-.488a.743.743,0,0,0,.352-.344.376.376,0,0,0-.138-.336A4.071,4.071,0,0,1,12.7,18.438c-.092-.016-.15-.03-.21-.036A2.9,2.9,0,0,1,10.01,14.11,1.141,1.141,0,0,0,10,13.38a7.316,7.316,0,0,1,3.51-8.624,7.22,7.22,0,0,1,9.144,1.9,3.158,3.158,0,0,0,.6.576,4.377,4.377,0,0,1,1.806,2.832,7.482,7.482,0,0,1-.276,3.4,1.15,1.15,0,0,0,.05.724,2.9,2.9,0,0,1-2.3,4.19c-.342.04-.426.2-.594.454-.43.64-.952,1.218-1.44,1.818-.14.17-.292.33-.44.492a2.317,2.317,0,0,0,.576.412,8.874,8.874,0,0,1,6.056,6,19.132,19.132,0,0,1,.412,1.87m8.308-.712c-1.524,1.522-3.014,3.014-4.588,4.588-.746-.784-1.532-1.61-2.31-2.426-.432.316-.812.58-1.174.87a.609.609,0,0,0-.244.37c-.02.9-.01,1.8-.01,2.708h9.634V25.18c-1.172,0-2.3-.018-3.424.018-.176,0-.394.218-.51.39-.588.864-1.13,1.76-1.728,2.618-.328.472-.734.892-1.056,1.276.352.366.668.692,1.04,1.08l3.112-3.13c.442.448.864.878,1.258,1.278m-12.4-16.118c.046-.214.126-.48.16-.754A2.853,2.853,0,0,0,21.72,8.56a1.618,1.618,0,0,1-.43-.492,5.07,5.07,0,0,0-5.406-2.116,5.157,5.157,0,0,0-4.12,3.964,4.243,4.243,0,0,0,.1,2.764c.27-.046.484-.082.686-.118.024-.062.042-.1.052-.136a3.135,3.135,0,0,1,6.012-.792,1.713,1.713,0,0,0,1.622.956c.9.008,1.806,0,2.778,0m-2.726,1.956a3.724,3.724,0,0,1-3.518-2.266,1.1,1.1,0,0,0-1.314-.622,1.171,1.171,0,0,0-.944,1.178c-.016,1.552-.024,3.106,0,4.658a1.9,1.9,0,0,0,1.854,1.866c.706.028,1.412.03,2.118,0a1.838,1.838,0,0,0,1.784-1.6c.08-1.056.018-2.126.018-3.21m.7,17.924a13.835,13.835,0,0,0,3.968-1.552.606.606,0,0,0,.188-.45,6.9,6.9,0,0,0-2.518-5.706,4.017,4.017,0,0,0-.394-.272v4.54l-2.4-1.79c.4,1.814.77,3.476,1.16,5.23m-8.406-7.986a4.528,4.528,0,0,0-.384.27,6.88,6.88,0,0,0-2.452,4.31c-.264,1.68-.216,1.82,1.33,2.476.874.372,1.788.658,2.734,1,.4-1.81.77-3.48,1.172-5.3l-2.4,1.784Zm6.5,8.352c-.554-2.484-1.084-4.854-1.612-7.224-.048.006-.1.012-.144.02-.526,2.37-1.052,4.74-1.6,7.2Zm37.368-13.5c-1.392-1.4-2.788-2.8-4.156-4.168V19.34ZM16.742,21.32c-.244.726-.122.962.734,1.444.328-.42,1.08-.664.572-1.444Zm5.53-4.9c.636-.106.98-.448.932-.964a.93.93,0,0,0-.932-.916Zm-9.732-1.9c-.614.124-.942.44-.926,1a.9.9,0,0,0,.926.928ZM16,24.054c-.3-.244-.5-.434-.73-.6a.368.368,0,0,0-.63.29c-.026.408-.006.818-.006,1.324.464-.346.844-.63,1.366-1.018m2.766-.03,1.43,1.05a3.753,3.753,0,0,0,0-.6c-.07-.366-.166-.726-.252-1.088-.344.186-.688.37-1.174.634" transform="translate(0 0)" fill="#fff"/>
    <path id="Path_139510" data-name="Path 139510" d="M17.915,1.942V0h.636q3.387,0,6.774,0a2.907,2.907,0,0,1,3.2,3.18,1.162,1.162,0,0,0,.65,1.232,2.755,2.755,0,0,1,1.166,3.218,2.9,2.9,0,0,1-5.572-.114,2.845,2.845,0,0,1,1.276-3.186,1.4,1.4,0,0,0,.51-1.684c-.184-.574-.628-.718-1.186-.716-2.258.012-4.516.006-6.774.006h-.678m9.674,3.876a.963.963,0,1,0,.94.988.97.97,0,0,0-.94-.988" transform="translate(17.915 0.004)" fill="#fff"/>
    <path id="Path_139511" data-name="Path 139511" d="M12.543,24.207v1.914c-.144.008-.26.02-.376.02-2.116,0-4.234.014-6.35,0a2.891,2.891,0,0,1-2.924-2.916,2.97,2.97,0,0,1,0-.422.856.856,0,0,0-.526-.994,2.772,2.772,0,0,1-1.3-3.216,2.895,2.895,0,0,1,5.586.016,2.868,2.868,0,0,1-1.306,3.232,1.379,1.379,0,0,0-.484,1.64,1.049,1.049,0,0,0,1.174.734c1.936-.012,3.872,0,5.808,0h.7M3.889,20.329A.963.963,0,1,0,2.9,19.4a.975.975,0,0,0,.992.934" transform="translate(0.961 16.463)" fill="#fff"/>
    <rect id="Rectangle_37850" data-name="Rectangle 37850" width="1.878" height="1.868" transform="translate(15.494 40.708)" fill="#fff"/>
    <rect id="Rectangle_37851" data-name="Rectangle 37851" width="1.85" height="1.882" transform="translate(31.976 0.052)" fill="#fff"/>
    <path id="Path_139512" data-name="Path 139512" d="M12.6,20.347H26.075V33.825H12.6ZM24.143,22.3H14.537v9.606h9.606Z" transform="translate(12.597 20.347)" fill="#fff"/>
    <rect id="Rectangle_37852" data-name="Rectangle 37852" width="13.476" height="1.866" transform="translate(40.668 23.272)" fill="#fff"/>
    <rect id="Rectangle_37853" data-name="Rectangle 37853" width="13.498" height="1.86" transform="translate(40.668 52.328)" fill="#fff"/>
    <rect id="Rectangle_37854" data-name="Rectangle 37854" width="13.476" height="1.868" transform="translate(40.67 31.016)" fill="#fff"/>
    <rect id="Rectangle_37855" data-name="Rectangle 37855" width="13.476" height="1.864" transform="translate(40.688 40.71)" fill="#fff"/>
    <rect id="Rectangle_37856" data-name="Rectangle 37856" width="13.476" height="1.864" transform="translate(40.69 44.582)" fill="#fff"/>
    <rect id="Rectangle_37857" data-name="Rectangle 37857" width="9.622" height="1.85" transform="translate(44.558 27.152)" fill="#fff"/>
    <rect id="Rectangle_37858" data-name="Rectangle 37858" width="9.604" height="1.862" transform="translate(40.69 34.902)" fill="#fff"/>
    <rect id="Rectangle_37859" data-name="Rectangle 37859" width="9.592" height="1.884" transform="translate(40.69 48.434)" fill="#fff"/>
    <rect id="Rectangle_37860" data-name="Rectangle 37860" width="1.84" height="1.882" transform="translate(52.302 34.9)" fill="#fff"/>
    <rect id="Rectangle_37861" data-name="Rectangle 37861" width="1.862" height="1.86" transform="translate(52.306 48.456)" fill="#fff"/>
    <rect id="Rectangle_37862" data-name="Rectangle 37862" width="1.878" height="1.868" transform="translate(40.664 27.154)" fill="#fff"/>
    <path id="Path_139513" data-name="Path 139513" d="M15.633,24.428c.3.35.654.76,1.038,1.208,1.074-1.112,2.092-2.164,3.14-3.248.492.564.9,1.026,1.27,1.452-1.408,1.4-2.9,2.894-4.354,4.34-.776-.784-1.622-1.634-2.482-2.5l1.388-1.25" transform="translate(14.245 22.388)" fill="#fff"/>
  </g>
</svg>
