<svg xmlns="http://www.w3.org/2000/svg" width="59.527" height="75.433" viewBox="0 0 59.527 75.433">
  <g id="Group_124891" data-name="Group 124891" transform="translate(556.065 -1508.639)">
    <path id="Path_179858" data-name="Path 179858" d="M-509.07,1508.639c1.8,1.4,3.423,3,5.128,4.5,2.207,1.95,4.378,3.942,6.585,5.892a2.2,2.2,0,0,1,.819,1.786q-.02,26.223-.011,52.446a3.147,3.147,0,0,1-3.373,3.419c-1.154.01-2.309.028-3.461-.01-.473-.016-.569.138-.558.578.03,1.178.02,2.357.008,3.536a3.116,3.116,0,0,1-3.283,3.282q-22.8.006-45.592,0a3.087,3.087,0,0,1-3.253-3.227q-.007-30.79,0-61.58a3.105,3.105,0,0,1,3.252-3.236c1.2-.013,2.406-.021,3.609.007.422.01.535-.12.525-.532-.027-1.1.013-2.21-.015-3.314a3.242,3.242,0,0,1,2.014-3.354c.076-.034.126-.128.187-.194Zm-11.871,66.574c.251-1.138.658-1.473,1.822-1.473,6.285,0,12.571-.009,18.856.012.6,0,.783-.138.782-.765q-.027-25.23,0-50.459c0-.512-.114-.65-.637-.644-2.529.03-5.058.018-7.587.012a3.09,3.09,0,0,1-3.287-3.26c-.009-2.112-.021-4.224.01-6.335.008-.551-.1-.733-.7-.732q-16.646.031-33.293,0c-.611,0-.772.154-.772.769q.025,30.313,0,60.625c0,.6.133.793.763.789,3.977-.029,7.955-.016,11.933-.014,1.231,0,1.607.3,1.9,1.482-.326,1.153-.731,1.463-1.945,1.463q-5.928,0-11.855,0c-2.551,0-3.729-1.181-3.729-3.736v-53.02a4.757,4.757,0,0,1,0-.515c.04-.362-.121-.458-.465-.451-1.006.018-2.012,0-3.019.007-1.078.005-.95-.11-.95.934q0,30.155-.019,60.31c0,.729.151.93.911.928q22.2-.039,44.4-.019a4,4,0,0,1,.442,0c.385.043.517-.119.51-.5-.019-1.08-.047-2.162.009-3.239.032-.612-.194-.712-.742-.709-3.829.022-7.658.015-11.487.01A1.584,1.584,0,0,1-520.94,1575.213Zm12.9-61.786c0,1.813,0,3.473,0,5.132,0,.213.019.389.3.389,1.9,0,3.795,0,5.852,0Z" fill="#010101"/>
    <path id="Path_179859" data-name="Path 179859" d="M-489.083,1587.18c-.291-1.185-.668-1.482-1.9-1.482-3.978,0-7.955-.015-11.933.014-.631,0-.764-.193-.763-.789q.022-30.313,0-60.625c0-.615.161-.77.772-.769q16.646.028,33.293,0c.6,0,.713.18.7.732-.031,2.111-.02,4.223-.01,6.335a3.09,3.09,0,0,0,3.287,3.26c2.529.006,5.058.018,7.587-.012.522-.006.637.132.636.644q-.022,25.23,0,50.459c0,.626-.183.767-.782.765-6.285-.021-12.571-.014-18.856-.012-1.164,0-1.571.334-1.822,1.472l-3.593.01c-.284-1.084-.745-1.513-1.587-1.481-.786.031-1.24.5-1.419,1.476Zm8.578-29.079a13.317,13.317,0,0,0,13.256-13.4,13.274,13.274,0,0,0-13.405-13.227,13.275,13.275,0,0,0-13.18,13.375A13.321,13.321,0,0,0-480.505,1558.1Zm6.439,4.023h-2.577c-2.7,0-5.4-.008-8.1.005a1.446,1.446,0,0,0-1.557,1.691c.112.79.765,1.25,1.8,1.251q10.344,0,20.687,0a2.875,2.875,0,0,0,.728-.068,1.438,1.438,0,0,0,1.024-1.89,1.52,1.52,0,0,0-1.626-.993C-467.146,1562.131-470.606,1562.124-474.066,1562.124Zm-12.9,6.349q-5.154,0-10.308,0a3,3,0,0,0-.8.069,1.461,1.461,0,0,0-1.032,1.588,1.544,1.544,0,0,0,1.7,1.285q10.455.005,20.91,0a2.929,2.929,0,0,0,.441-.017,1.448,1.448,0,0,0,1.266-1.615,1.457,1.457,0,0,0-1.649-1.312Q-481.7,1568.468-486.962,1568.473Zm12.893,6.34h-7.141c-1.2,0-2.405-.017-3.607.008a1.433,1.433,0,0,0-1.492,1.48,1.453,1.453,0,0,0,1.517,1.458c.1,0,.2,0,.295,0h20.687a4.384,4.384,0,0,0,.515-.011,1.456,1.456,0,0,0,1.311-1.437,1.454,1.454,0,0,0-1.264-1.478,5.188,5.188,0,0,0-.735-.02Zm-21.1-12.685v0h-2.277c-.049,0-.1,0-.147,0a1.458,1.458,0,0,0-1.513,1.46,1.453,1.453,0,0,0,1.437,1.469c1.64.036,3.282.038,4.921,0a1.463,1.463,0,0,0,1.413-1.5,1.475,1.475,0,0,0-1.484-1.421C-493.605,1562.11-494.389,1562.128-495.173,1562.128Zm29.355,6.344c-.783,0-1.567-.011-2.35,0a1.479,1.479,0,0,0-1.563,1.486,1.471,1.471,0,0,0,1.531,1.451q2.349.032,4.7,0a1.447,1.447,0,0,0,1.517-1.455,1.447,1.447,0,0,0-1.558-1.482C-464.3,1568.462-465.059,1568.473-465.818,1568.473Zm-29.454,9.288c.784,0,1.568.011,2.351,0a1.5,1.5,0,0,0,1.58-1.483,1.486,1.486,0,0,0-1.534-1.454q-2.351-.03-4.7,0a1.465,1.465,0,0,0-1.533,1.446,1.475,1.475,0,0,0,1.561,1.491C-496.79,1577.772-496.031,1577.76-495.271,1577.76Z" transform="translate(-42.071 -11.958)" fill="#f6f6f6"/>
    <path id="Path_179860" data-name="Path 179860" d="M-519.2,1617.341l3.616,0a1.514,1.514,0,0,0,.959,1.342c.926.367,1.684-.13,2.046-1.338l3.593-.01a1.584,1.584,0,0,0,1.85,1.472c3.829,0,7.658.012,11.486-.01.549,0,.774.1.742.709-.056,1.077-.028,2.16-.009,3.239.007.385-.125.546-.51.5a4.035,4.035,0,0,0-.442,0q-22.2,0-44.4.019c-.76,0-.912-.2-.911-.928q.032-30.155.019-60.31c0-1.044-.127-.928.95-.934,1.006,0,2.013.011,3.019-.007.344-.006.505.09.465.452a4.736,4.736,0,0,0,0,.515v53.02c0,2.554,1.178,3.735,3.729,3.736q5.927,0,11.855,0C-519.932,1618.8-519.528,1618.493-519.2,1617.341Z" transform="translate(-11.953 -42.119)" fill="#592fe6"/>
    <path id="Path_179861" data-name="Path 179861" d="M-312.149,1532.96l6.153,5.519c-2.057,0-3.954,0-5.852,0-.283,0-.3-.176-.3-.389C-312.148,1536.432-312.149,1534.773-312.149,1532.96Z" transform="translate(-195.894 -19.533)" fill="#ede8ff"/>
    <path id="Path_179862" data-name="Path 179862" d="M-440.341,1590.531a13.321,13.321,0,0,1-13.329-13.248,13.275,13.275,0,0,1,13.18-13.375,13.274,13.274,0,0,1,13.4,13.227A13.317,13.317,0,0,1-440.341,1590.531Zm-.017-2.953a10.352,10.352,0,0,0,10.323-10.371,10.319,10.319,0,0,0-10.4-10.351,10.322,10.322,0,0,0-10.285,10.392A10.354,10.354,0,0,0-440.357,1587.578Z" transform="translate(-82.236 -44.388)" fill="#030303"/>
    <path id="Path_179863" data-name="Path 179863" d="M-403.232,1719.549c3.46,0,6.92.007,10.38-.005a1.52,1.52,0,0,1,1.626.993,1.438,1.438,0,0,1-1.024,1.89,2.881,2.881,0,0,1-.728.068q-10.344,0-20.687,0c-1.035,0-1.688-.46-1.8-1.251a1.447,1.447,0,0,1,1.557-1.691c2.7-.014,5.4-.005,8.1-.005Z" transform="translate(-112.906 -169.383)" fill="#030303"/>
    <path id="Path_179864" data-name="Path 179864" d="M-468.336,1751.817q5.265,0,10.529,0a1.457,1.457,0,0,1,1.649,1.312,1.448,1.448,0,0,1-1.266,1.616,2.945,2.945,0,0,1-.441.017q-10.455,0-20.911,0a1.544,1.544,0,0,1-1.7-1.285,1.46,1.46,0,0,1,1.032-1.588,2.994,2.994,0,0,1,.8-.069Q-473.49,1751.814-468.336,1751.817Z" transform="translate(-60.697 -195.302)" fill="#010101"/>
    <path id="Path_179865" data-name="Path 179865" d="M-403.2,1784h10.086a5.188,5.188,0,0,1,.735.02,1.453,1.453,0,0,1,1.264,1.478,1.456,1.456,0,0,1-1.311,1.437,4.385,4.385,0,0,1-.515.011h-20.687c-.1,0-.2,0-.295,0a1.453,1.453,0,0,1-1.518-1.458,1.433,1.433,0,0,1,1.492-1.48c1.2-.025,2.4-.008,3.607-.008Z" transform="translate(-112.935 -221.146)" fill="#010101"/>
    <path id="Path_179866" data-name="Path 179866" d="M-476.531,1719.564c.784,0,1.568-.018,2.35,0a1.475,1.475,0,0,1,1.484,1.422,1.463,1.463,0,0,1-1.413,1.5c-1.64.042-3.282.039-4.921,0a1.453,1.453,0,0,1-1.437-1.469,1.458,1.458,0,0,1,1.513-1.46c.049,0,.1,0,.147,0h2.277Z" transform="translate(-60.714 -169.394)" fill="#030303"/>
    <path id="Path_179867" data-name="Path 179867" d="M-327.326,1751.8c.759,0,1.518-.011,2.276,0a1.447,1.447,0,0,1,1.558,1.482,1.447,1.447,0,0,1-1.517,1.455q-2.349.034-4.7,0a1.472,1.472,0,0,1-1.531-1.452,1.478,1.478,0,0,1,1.563-1.486C-328.892,1751.79-328.109,1751.8-327.326,1751.8Z" transform="translate(-180.563 -195.287)" fill="#030303"/>
    <path id="Path_179868" data-name="Path 179868" d="M-476.629,1786.938c-.759,0-1.519.012-2.278,0a1.475,1.475,0,0,1-1.561-1.491,1.465,1.465,0,0,1,1.533-1.446q2.351-.029,4.7,0a1.486,1.486,0,0,1,1.534,1.454,1.5,1.5,0,0,1-1.58,1.483C-475.062,1786.949-475.846,1786.938-476.629,1786.938Z" transform="translate(-60.714 -221.135)" fill="#030303"/>
    <path id="Path_179869" data-name="Path 179869" d="M-408.167,1840.8c-.362,1.207-1.12,1.7-2.046,1.338a1.514,1.514,0,0,1-.959-1.342c.178-.973.633-1.446,1.419-1.476C-408.912,1839.285-408.452,1839.714-408.167,1840.8Z" transform="translate(-116.366 -265.575)" fill="#030303"/>
    <path id="Path_179870" data-name="Path 179870" d="M-428.33,1599.6a10.354,10.354,0,0,1-10.364-10.33,10.322,10.322,0,0,1,10.285-10.392,10.319,10.319,0,0,1,10.4,10.351A10.352,10.352,0,0,1-428.33,1599.6Zm1.449-7.551c0-.881.009-1.763,0-2.644a1.5,1.5,0,0,0-1.444-1.613,1.487,1.487,0,0,0-1.5,1.566q-.025,2.68,0,5.361a1.491,1.491,0,0,0,1.447,1.542,1.487,1.487,0,0,0,1.489-1.569C-426.869,1593.817-426.881,1592.935-426.881,1592.054Zm-1.485-9.834a1.481,1.481,0,0,0-1.458,1.444,1.466,1.466,0,0,0,1.487,1.481,1.456,1.456,0,0,0,1.451-1.511A1.465,1.465,0,0,0-428.366,1582.22Z" transform="translate(-94.263 -56.415)" fill="#ede8ff"/>
    <path id="Path_179871" data-name="Path 179871" d="M-390.745,1628.416c0,.881.012,1.763,0,2.644a1.487,1.487,0,0,1-1.489,1.569,1.49,1.49,0,0,1-1.447-1.542q-.03-2.68,0-5.361a1.487,1.487,0,0,1,1.5-1.566,1.5,1.5,0,0,1,1.444,1.613C-390.736,1626.653-390.745,1627.534-390.745,1628.416Z" transform="translate(-130.399 -92.776)" fill="#030303"/>
    <path id="Path_179872" data-name="Path 179872" d="M-392.182,1595.832a1.465,1.465,0,0,1,1.48,1.413,1.456,1.456,0,0,1-1.451,1.511,1.466,1.466,0,0,1-1.487-1.481A1.481,1.481,0,0,1-392.182,1595.832Z" transform="translate(-130.447 -70.027)" fill="#030303"/>
  </g>
</svg>
