<svg xmlns="http://www.w3.org/2000/svg" width="229" height="277" viewBox="0 0 229 277">
  <rect id="Rectángulo_35543" data-name="Rectángulo 35543" width="229" height="277" rx="10" fill="#88e0ef"/>
  <g id="Grupo_89579" data-name="Grupo 89579" transform="translate(-938 -1056)">
    <g id="Trazado_137461" data-name="Trazado 137461" transform="translate(1008 1150)" fill="#88e0ef">
      <path d="M 45 85 C 39.59783172607422 85 34.35990142822266 83.94309997558594 29.43173408508301 81.85865020751953 C 24.66914939880371 79.84425354003906 20.39086723327637 76.95941925048828 16.71573257446289 73.28426361083984 C 13.04058361053467 69.609130859375 10.1557502746582 65.33084869384766 8.141349792480469 60.56826782226562 C 6.056900024414062 55.64009857177734 5 50.40216827392578 5 45 C 5 39.59783172607422 6.056900024414062 34.35990142822266 8.141349792480469 29.43173408508301 C 10.1557502746582 24.66914939880371 13.04058361053467 20.39086723327637 16.71573257446289 16.71573257446289 C 20.39086723327637 13.04058361053467 24.66914939880371 10.1557502746582 29.43173408508301 8.141349792480469 C 34.35990142822266 6.056900024414062 39.59783172607422 5 45 5 C 50.40216827392578 5 55.64009857177734 6.056900024414062 60.56826782226562 8.141349792480469 C 65.33084869384766 10.1557502746582 69.609130859375 13.04058361053467 73.28426361083984 16.71573257446289 C 76.95941925048828 20.39086723327637 79.84425354003906 24.66914939880371 81.85865020751953 29.43173408508301 C 83.94309997558594 34.35990142822266 85 39.59783172607422 85 45 C 85 50.40216827392578 83.94309997558594 55.64009857177734 81.85865020751953 60.56826782226562 C 79.84425354003906 65.33084869384766 76.95941925048828 69.609130859375 73.28426361083984 73.28426361083984 C 69.609130859375 76.95941925048828 65.33084869384766 79.84425354003906 60.56826782226562 81.85865020751953 C 55.64009857177734 83.94309997558594 50.40216827392578 85 45 85 Z" stroke="none"/>
      <path d="M 45 10 C 25.70093536376953 10 10 25.70093536376953 10 45 C 10 64.29906463623047 25.70093536376953 80 45 80 C 64.29906463623047 80 80 64.29906463623047 80 45 C 80 25.70093536376953 64.29906463623047 10 45 10 M 45 0 C 69.85280609130859 0 90 20.14719390869141 90 45 C 90 69.85280609130859 69.85280609130859 90 45 90 C 20.14719390869141 90 0 69.85280609130859 0 45 C 0 20.14719390869141 20.14719390869141 0 45 0 Z" stroke="none" fill="#fff"/>
    </g>
    <path id="Trazado_187817" data-name="Trazado 187817" d="M15.442-11.546a7.3,7.3,0,0,1-5,2.01A8.08,8.08,0,0,1,4-12.284,10.827,10.827,0,0,1,1.62-19.626a11.019,11.019,0,0,1,1.333-5.332,10,10,0,0,1,3.743-3.9,10.2,10.2,0,0,1,5.322-1.436A9.906,9.906,0,0,1,17.36-28.8a10.011,10.011,0,0,1,3.722,4.2,14.441,14.441,0,0,1,1.374,6.265v2.646a17.95,17.95,0,0,1-1.938,8.572,13.379,13.379,0,0,1-5.527,5.578A17.27,17.27,0,0,1,6.624.41H6.193V-5.127l1.313-.021Q14.643-5.5,15.442-11.546ZM12.3-14.52a3.365,3.365,0,0,0,3.24-1.948v-2.871a7.465,7.465,0,0,0-.964-4.245,3.023,3.023,0,0,0-2.6-1.374A2.857,2.857,0,0,0,9.536-23.4a6.924,6.924,0,0,0-.984,3.773,6.208,6.208,0,0,0,1,3.722A3.214,3.214,0,0,0,12.3-14.52Z" transform="translate(1041 1211.5)" fill="#fff"/>
  </g>
</svg>
