<svg id="Group_124804" data-name="Group 124804" xmlns="http://www.w3.org/2000/svg" xmlns:xlink="http://www.w3.org/1999/xlink" width="313.465" height="324" viewBox="0 0 313.465 324">
  <defs>
    <clipPath id="clip-path">
      <rect id="Rectangle_38476" data-name="Rectangle 38476" width="313.465" height="324" fill="none"/>
    </clipPath>
    <clipPath id="clip-path-2">
      <rect id="Rectangle_38442" data-name="Rectangle 38442" width="313.464" height="324" fill="none"/>
    </clipPath>
    <clipPath id="clip-path-3">
      <path id="Path_187646" data-name="Path 187646" d="M1817.328,1009.927c1.066,25.578-12.668,19.531-29.255,24.228-22.645,6.413-3.9,26.946-12.654,37.365-2.965,3.529-4.456,3.892-8.437,5.648-.947,1.308-7.476,2.478-7.6,3.928-.735,8.492,9.052,20.029,13.858,26.5a15.091,15.091,0,0,0,6.214,3.471c1.767-12.24,27.318-19.066,37.359-19.087,12.468-.025,39.274-2.368,34.108-19.894-4.3-14.59-12.742-21.848,3.675-30.536s23.213-21.037,16.067-36.462c-7.52-16.233,8.784-37.51-6.406-48.157a21.315,21.315,0,0,0-12.31-4.3c-20.494,0-35.512,35.825-34.617,57.29" transform="translate(-1759.341 -952.637)" fill="#88e0ef"/>
    </clipPath>
    <clipPath id="clip-path-4">
      <path id="Path_187652" data-name="Path 187652" d="M1784.129,1009.886c1.078,25.542-12.711,19.645-29.248,24.21-22.577,6.232-4.083,27.426-12.593,37.163-6.671,7.634-11.721,6.067-20.161,7.5,3.556,12.071,6.677,24.5,10.193,36.676,7.138.777,15.554,1.517,17.379-7.236,2.538-12.169,23.9-16.3,33.93-16.264,12.417.041,39.262-2.366,34.088-19.875-4.308-14.577-12.742-21.85,3.675-30.534s23.208-21.035,16.066-36.462c-7.516-16.235,8.782-37.5-6.406-48.156a21.316,21.316,0,0,0-12.309-4.3c-20.5,0-35.518,35.847-34.614,57.283" transform="translate(-1722.127 -952.603)" fill="none"/>
    </clipPath>
    <clipPath id="clip-path-5">
      <path id="Path_187653" data-name="Path 187653" d="M1904.036,124.695a19.889,19.889,0,0,0-5.059.841l-.027.008-.041.012c-.192.058-.383.118-.575.182h0l-.049.016c-11.438,3.52-22.773,17.383-22.765,29.942a19.3,19.3,0,0,0,.379,3.843,145.778,145.778,0,0,1,1.288,24.229c-.395,20.51-5.066,38.452-17.618,36.316-5.423-1.052-9.474.022-12.309,2.48-4.276,4.163-5.81,10.952-5.049,18.407a42.7,42.7,0,0,0,.966,5.57,47.34,47.34,0,0,0,1.9,6.009c2.406,6.923,8.36,16.689,8.358,28.158,0,7.535-2.572,15.806-10.407,24.49-6.153,6.962-7.2,17.708-7.057,24.9a39.04,39.04,0,0,0,.7,7.536q14.7,2.66,29.446,4.645c10.406-10.125,14.648-18.812,14.641-27.7a38.507,38.507,0,0,0-3.536-15.088,16.76,16.76,0,0,1-1.352-6.4c-.007-11.379,13.389-19.323,24.312-29.679,4.63-4.156,6.084-8.165,6.085-12.163,0-6.744-4.133-13.455-4.134-20.778a17.45,17.45,0,0,1,2.056-8.3c7.2-13.764,25.388-30.1,25.389-54.861a53.378,53.378,0,0,0-1.122-10.783l-.013-.085c-3.332-20.709-11.9-30.339-21.577-31.616a17.348,17.348,0,0,0-2.268-.148c-.186,0-.373,0-.559.009" transform="translate(-1835.955 -124.686)" fill="none"/>
    </clipPath>
    <clipPath id="clip-path-6">
      <path id="Path_187661" data-name="Path 187661" d="M1898.284,125.755c-12.622,3.885-25.117,20.362-22.385,33.784,3.344,27.6,1.137,63.517-16.33,60.545-17.934-3.48-20.85,16.3-14.495,32.467,3.988,11.471,17.712,30.746-2.049,52.649-9.99,11.3-6.516,32.583-6.359,32.437q14.7,2.66,29.446,4.645c16.121-15.686,17.447-27.919,11.106-42.785-6.179-15.039,10.1-23.887,22.96-36.076,15.294-13.728-4.062-25.858,4.008-41.24,8.2-15.669,30.633-34.668,24.268-65.644-3.579-22.376-13.255-31.849-23.858-31.849a19.958,19.958,0,0,0-6.311,1.069" transform="translate(-1835.955 -124.686)" fill="none"/>
    </clipPath>
    <clipPath id="clip-path-7">
      <path id="Path_187662" data-name="Path 187662" d="M391.034,267.2V522.147c0,5.664,4.309,10.02,9.587,9.712l177.723-10.373c4.607-.269,8.343-4.771,8.343-10.037V274.411c0-5.266-3.736-9.7-8.343-9.888l-177.723-7.2c-.123-.005-.244-.007-.366-.007-5.11,0-9.221,4.359-9.221,9.891" transform="translate(-391.034 -257.313)" fill="none"/>
    </clipPath>
    <linearGradient id="linear-gradient" x1="0.075" y1="0.974" x2="0.076" y2="0.974" gradientUnits="objectBoundingBox">
      <stop offset="0" stop-color="#26264f"/>
      <stop offset="0.004" stop-color="#26264f"/>
      <stop offset="1" stop-color="#444b8c"/>
    </linearGradient>
    <clipPath id="clip-path-8">
      <path id="Path_187663" data-name="Path 187663" d="M439.453,267.2V522.147c0,5.664,4.309,10.02,9.587,9.712l177.723-10.373c4.607-.269,8.343-4.771,8.343-10.037V274.411c0-5.266-3.736-9.7-8.343-9.888l-177.723-7.2c-.123-.005-.244-.007-.366-.007-5.11,0-9.221,4.359-9.221,9.891" transform="translate(-439.453 -257.313)" fill="none"/>
    </clipPath>
    <linearGradient id="linear-gradient-2" x1="-0.214" y1="1.067" x2="-0.214" y2="1.067" gradientUnits="objectBoundingBox">
      <stop offset="0" stop-color="#444b8c"/>
      <stop offset="0.996" stop-color="#26264f"/>
      <stop offset="1" stop-color="#26264f"/>
    </linearGradient>
    <clipPath id="clip-path-9">
      <path id="Path_187664" data-name="Path 187664" d="M480.942,306.851V561.385a4.963,4.963,0,0,0,5.116,5.191l140.56-7.963,37.163-2.105c2.469-.14,4.466-2.542,4.466-5.365V313.751c0-2.823-2-5.19-4.466-5.286l-38.5-1.494-139.218-5.4c-.063,0-.126,0-.188,0a5.082,5.082,0,0,0-4.928,5.286" transform="translate(-480.942 -301.565)" fill="none"/>
    </clipPath>
    <linearGradient id="linear-gradient-3" x1="0.051" y1="1.008" x2="0.051" y2="1.008" xlink:href="#linear-gradient-2"/>
    <clipPath id="clip-path-11">
      <path id="Path_187666" data-name="Path 187666" d="M1218.588,2602.527l-36.142,1.9a3.576,3.576,0,0,0-3.5,3.369v.132a3.143,3.143,0,0,0,3.5,2.993l36.142-1.988a3.5,3.5,0,0,0,3.4-3.322v-.13a3.055,3.055,0,0,0-3.2-2.961c-.065,0-.131,0-.2.005" transform="translate(-1178.945 -2602.522)" fill="none"/>
    </clipPath>
    <linearGradient id="linear-gradient-4" x1="-10.084" y1="1.397" x2="-10.076" y2="1.397" xlink:href="#linear-gradient-2"/>
    <clipPath id="clip-path-12">
      <path id="Path_187667" data-name="Path 187667" d="M1363.057,320.532a1.865,1.865,0,0,0,1.852,1.768,1.7,1.7,0,0,0,1.85-1.624,1.865,1.865,0,0,0-1.85-1.768l-.081,0a1.69,1.69,0,0,0-1.771,1.625" transform="translate(-1363.057 -318.907)" fill="none"/>
    </clipPath>
    <linearGradient id="linear-gradient-5" x1="-28.966" y1="57.745" x2="-28.944" y2="57.745" gradientUnits="objectBoundingBox">
      <stop offset="0" stop-color="#ff9085"/>
      <stop offset="1" stop-color="#fb6fbb"/>
    </linearGradient>
    <clipPath id="clip-path-14">
      <rect id="Rectangle_38451" data-name="Rectangle 38451" width="171.517" height="274.561" fill="none"/>
    </clipPath>
    <clipPath id="clip-path-15">
      <path id="Path_187669" data-name="Path 187669" d="M594.169,547.737,754.1,535.942v-226l-159.069-3.8Z" transform="translate(-594.169 -306.14)" fill="#592fe6"/>
    </clipPath>
    <clipPath id="clip-path-17">
      <rect id="Rectangle_38454" data-name="Rectangle 38454" width="116.153" height="241.597" fill="#592fe6"/>
    </clipPath>
    <clipPath id="clip-path-18">
      <path id="Path_187678" data-name="Path 187678" d="M646.339,423.392l95.986-7.08,63.854-4.713v-226l-99.734-2.383-59.292-1.417Z" transform="translate(-646.339 -181.795)" fill="#ccbff8"/>
    </clipPath>
    <clipPath id="clip-path-20">
      <rect id="Rectangle_38457" data-name="Rectangle 38457" width="116.153" height="241.597" fill="none"/>
    </clipPath>
    <clipPath id="clip-path-21">
      <rect id="Rectangle_38459" data-name="Rectangle 38459" width="72.452" height="20.882" fill="#592fe6"/>
    </clipPath>
    <clipPath id="clip-path-22">
      <path id="Path_187680" data-name="Path 187680" d="M819.035,323.31l-72.42-.752.064-20.13,72.388,1.341Z" transform="translate(-746.615 -302.428)" fill="#592fe6"/>
    </clipPath>
    <clipPath id="clip-path-23">
      <rect id="Rectangle_38461" data-name="Rectangle 38461" width="23.298" height="25.39" fill="#592fe6"/>
    </clipPath>
    <clipPath id="clip-path-24">
      <path id="Path_187681" data-name="Path 187681" d="M958.711,776.727l-23.243.25.069-25.39,23.229,0Z" transform="translate(-935.469 -751.586)" fill="#592fe6"/>
    </clipPath>
    <clipPath id="clip-path-25">
      <rect id="Rectangle_38462" data-name="Rectangle 38462" width="81.742" height="12.603" fill="#592fe6"/>
    </clipPath>
    <clipPath id="clip-path-26">
      <rect id="Rectangle_38464" data-name="Rectangle 38464" width="23.325" height="25.953" fill="#592fe6"/>
    </clipPath>
    <clipPath id="clip-path-27">
      <path id="Path_187683" data-name="Path 187683" d="M957.441,1247.114l-23.269.76.069-25.446,23.256-.506Z" transform="translate(-934.172 -1221.922)" fill="#592fe6"/>
    </clipPath>
    <clipPath id="clip-path-28">
      <rect id="Rectangle_38465" data-name="Rectangle 38465" width="81.83" height="14.351" fill="#592fe6"/>
    </clipPath>
    <clipPath id="clip-path-29">
      <rect id="Rectangle_38467" data-name="Rectangle 38467" width="23.352" height="26.519" fill="#592fe6"/>
    </clipPath>
    <clipPath id="clip-path-30">
      <path id="Path_187685" data-name="Path 187685" d="M956.168,1718.488l-23.3,1.273.069-25.5,23.282-1.018Z" transform="translate(-932.873 -1693.242)" fill="#592fe6"/>
    </clipPath>
    <clipPath id="clip-path-31">
      <rect id="Rectangle_38468" data-name="Rectangle 38468" width="81.918" height="16.107" fill="#592fe6"/>
    </clipPath>
    <clipPath id="clip-path-32">
      <path id="Path_187687" data-name="Path 187687" d="M129.548,1984.034l.151.166c-.124-.078-.186-.137-.151-.166m18.911-5.064c-14.353-7.287-19.591-25.793-11.7-41.334s25.922-22.232,40.275-14.945,19.591,25.793,11.7,41.334c-5.724,11.274-16.788,17.891-27.91,17.892a27.184,27.184,0,0,1-12.365-2.948m5.191-73.8c0,.246.026.487.05.726a45.947,45.947,0,0,0-6.647,2.467c-.1-.21-.209-.419-.331-.622a7.7,7.7,0,0,0-11.218-2.127,9.1,9.1,0,0,0-2.755,11.917c.12.2.251.385.384.568a50.158,50.158,0,0,0-4.788,5.555c-.191-.12-.385-.237-.59-.341-3.953-2.007-8.919-.164-11.093,4.116s-.73,9.378,3.223,11.385c.2.1.414.191.624.275a50.12,50.12,0,0,0-1.66,7.144c-.227,0-.454,0-.685.025a9.1,9.1,0,0,0-8,9.257,7.7,7.7,0,0,0,8.337,7.8c.236-.021.467-.058.7-.1a46,46,0,0,0,1.931,6.822c-.207.121-.414.247-.615.388a9.1,9.1,0,0,0-2.755,11.917c2.226,3.695,9.353,5.5,13.358,3.331a40.89,40.89,0,0,0,3.431,3.028c-.127.209-.252.42-.364.642-2.173,4.281-.73,9.377,3.223,11.385s8.919.164,11.093-4.116c.112-.222.21-.447.3-.672a40.763,40.763,0,0,0,6.724,1.284c-.014.238-.025.476-.02.718a7.7,7.7,0,0,0,8.337,7.8,9.1,9.1,0,0,0,8-9.257c0-.246-.025-.487-.05-.726a45.939,45.939,0,0,0,6.647-2.467c.1.21.209.419.332.622a7.7,7.7,0,0,0,11.218,2.128,9.1,9.1,0,0,0,2.756-11.917c-.12-.2-.251-.385-.384-.568a50.142,50.142,0,0,0,4.788-5.555c.191.12.385.237.59.341,3.953,2.007,8.919.164,11.093-4.116s.73-9.377-3.223-11.385c-.2-.1-.414-.191-.624-.275a50.108,50.108,0,0,0,1.66-7.144c.227,0,.454,0,.685-.025a9.1,9.1,0,0,0,8-9.257,7.7,7.7,0,0,0-8.337-7.8c-.236.021-.467.058-.7.1a45.968,45.968,0,0,0-1.931-6.822c.207-.122.414-.247.616-.388a9.1,9.1,0,0,0,2.755-11.917,7.7,7.7,0,0,0-11.218-2.128c-.2.139-.384.288-.568.44a40.772,40.772,0,0,0-5-4.671c.127-.208.251-.42.364-.641,2.173-4.281,5.013-8.956,1.029-10.9-9.216-4.5-13.171-.648-15.344,3.633-.113.222-.21.447-.3.673a40.732,40.732,0,0,0-6.724-1.284c.014-.238.025-.476.02-.718-.095-4.71,1.3-7.26-3.224-7.347-.213,0-.425-.006-.632-.006-9.384,0-12.569,4.2-12.477,8.81" transform="translate(-110.166 -1896.364)" fill="none"/>
    </clipPath>
    <linearGradient id="linear-gradient-6" x1="-0.028" y1="1.048" x2="-0.027" y2="1.048" xlink:href="#linear-gradient-2"/>
    <clipPath id="clip-path-33">
      <path id="Path_187688" data-name="Path 187688" d="M529.157,1998.434c11.45,8.39,15.1,24.925,7.938,39.022-6.065,11.945-18.121,18.653-29.893,17.813-.525,1.362-1.041,2.731-1.6,4.08-1.526,3.66-3.259,7.245-5,10.825q1.638.309,3.288.483c-.014.238-.025.477-.02.718.094,4.71,2.954,8.712,11.128,8.279,4.521-.24,5.3-5.024,5.2-9.735-.005-.246-.025-.487-.05-.726a45.878,45.878,0,0,0,6.647-2.467c.1.21.209.419.332.622,2.337,3.879,10.443,5.526,14.3,2.823s2.008-8.734-.329-12.612c-.12-.2-.251-.384-.384-.568a50.161,50.161,0,0,0,4.788-5.555c.191.12.385.237.59.341,3.953,2.007,8.919.164,11.093-4.116s.73-9.377-3.223-11.385c-.2-.1-.414-.191-.624-.275a50.131,50.131,0,0,0,1.66-7.143c.227,0,.454-.005.685-.025a9.1,9.1,0,0,0,8-9.257,7.7,7.7,0,0,0-8.337-7.8c-.236.021-.467.059-.7.1a45.967,45.967,0,0,0-1.931-6.822c.208-.121.414-.247.616-.388,3.859-2.7,8.632-9.235,5.91-12.853-5.167-6.867-10.514-3.895-14.372-1.191-.2.139-.384.288-.568.44a40.749,40.749,0,0,0-5-4.671c.127-.208.252-.42.364-.641a8.98,8.98,0,0,0,.506-7.082q-5.59,9.84-11.015,19.77" transform="translate(-500.604 -1978.664)" fill="none"/>
    </clipPath>
    <linearGradient id="linear-gradient-7" x1="-0.289" y1="1.298" x2="-0.288" y2="1.298" xlink:href="#linear-gradient-2"/>
    <clipPath id="clip-path-34">
      <path id="Path_187689" data-name="Path 187689" d="M187.913,1979.492c-14.353-7.287-19.591-25.793-11.7-41.334s25.922-22.232,40.275-14.945,19.591,25.793,11.7,41.334c-5.724,11.275-16.788,17.892-27.911,17.893a27.187,27.187,0,0,1-12.364-2.948m13.186-83.053a9.1,9.1,0,0,0-8,9.257c0,.246.026.487.05.726a45.976,45.976,0,0,0-6.647,2.467c-.1-.21-.209-.419-.332-.622a7.7,7.7,0,0,0-11.218-2.127,9.1,9.1,0,0,0-2.755,11.917c.12.2.251.385.384.568a50.116,50.116,0,0,0-4.788,5.555c-.191-.12-.385-.237-.59-.341-3.953-2.007-8.919-.164-11.093,4.116s-.73,9.377,3.223,11.384c.2.1.414.191.624.275a50.1,50.1,0,0,0-1.66,7.143c-.227,0-.454,0-.685.025a9.1,9.1,0,0,0-8,9.257,7.7,7.7,0,0,0,8.337,7.8c.236-.021.467-.058.7-.1a45.956,45.956,0,0,0,1.931,6.822c-.207.121-.414.247-.615.388a9.1,9.1,0,0,0-2.755,11.917A7.7,7.7,0,0,0,168.434,1985c.2-.139.384-.288.568-.44a40.738,40.738,0,0,0,5,4.671c-.127.208-.252.42-.364.641-2.173,4.281-.73,9.377,3.223,11.385s8.919.164,11.093-4.116c.113-.221.21-.447.3-.672a40.762,40.762,0,0,0,6.724,1.283c-.014.238-.025.477-.02.718a7.7,7.7,0,0,0,8.337,7.8,9.1,9.1,0,0,0,8-9.257c0-.246-.026-.487-.05-.726a45.964,45.964,0,0,0,6.647-2.466c.1.21.209.419.332.621a7.7,7.7,0,0,0,11.218,2.128,9.1,9.1,0,0,0,2.755-11.918c-.12-.2-.251-.384-.384-.567a50.126,50.126,0,0,0,4.788-5.555c.191.12.385.237.59.341,3.953,2.007,8.919.164,11.093-4.116s.73-9.377-3.223-11.385c-.2-.1-.414-.191-.623-.275a50.164,50.164,0,0,0,1.66-7.143c.227,0,.454,0,.685-.025a9.1,9.1,0,0,0,8-9.257,7.7,7.7,0,0,0-8.337-7.8c-.236.021-.467.058-.7.1a45.947,45.947,0,0,0-1.931-6.821c.207-.122.414-.247.615-.388a9.1,9.1,0,0,0,2.755-11.917,7.7,7.7,0,0,0-11.218-2.127c-.2.139-.384.288-.568.44a40.728,40.728,0,0,0-5-4.671c.127-.208.252-.42.364-.642,2.173-4.28.73-9.377-3.223-11.384s-8.919-.164-11.093,4.116c-.113.222-.21.447-.3.672a40.761,40.761,0,0,0-6.724-1.283c.014-.238.025-.476.02-.718a7.723,7.723,0,0,0-7.633-7.833q-.349,0-.7.032" transform="translate(-149.62 -1896.407)" fill="#ff5151"/>
    </clipPath>
    <clipPath id="clip-path-35">
      <path id="Path_187690" data-name="Path 187690" d="M21.556,1282.437l.095.1c-.077-.049-.117-.086-.095-.1m11.853-3.174c-9-4.568-12.279-16.166-7.334-25.907s16.247-13.934,25.243-9.367,12.279,16.166,7.334,25.907a19.951,19.951,0,0,1-17.493,11.214,17.037,17.037,0,0,1-7.75-1.847m3.253-46.253c0,.154.016.305.031.455a28.785,28.785,0,0,0-4.166,1.546c-.064-.132-.131-.262-.208-.39a4.827,4.827,0,0,0-7.031-1.333,5.7,5.7,0,0,0-1.727,7.469c.075.125.157.241.241.356a31.438,31.438,0,0,0-3,3.482c-.12-.075-.242-.149-.37-.214A5.465,5.465,0,0,0,15.5,1254.1c.128.065.259.12.391.172a31.415,31.415,0,0,0-1.04,4.477c-.142,0-.285,0-.429.016a5.7,5.7,0,0,0-5.011,5.8,4.827,4.827,0,0,0,5.226,4.889c.148-.013.293-.036.437-.062a28.838,28.838,0,0,0,1.21,4.276c-.13.076-.259.155-.386.243a5.7,5.7,0,0,0-1.727,7.469c1.4,2.316,5.862,3.45,8.373,2.088a25.675,25.675,0,0,0,2.15,1.9c-.08.13-.158.263-.228.4a5.252,5.252,0,0,0,2.02,7.135,5.252,5.252,0,0,0,6.953-2.58c.07-.139.131-.28.19-.422a25.518,25.518,0,0,0,4.214.8c-.009.149-.016.3-.013.45a4.828,4.828,0,0,0,5.226,4.89,5.7,5.7,0,0,0,5.011-5.8c0-.154-.016-.305-.031-.455a28.8,28.8,0,0,0,4.166-1.546c.064.132.131.262.208.389a4.827,4.827,0,0,0,7.031,1.333,5.7,5.7,0,0,0,1.727-7.469c-.075-.124-.157-.241-.241-.356a31.406,31.406,0,0,0,3-3.482c.12.075.241.149.37.214a5.465,5.465,0,0,0,4.933-9.715c-.128-.065-.259-.12-.391-.172a31.436,31.436,0,0,0,1.04-4.477c.142,0,.285,0,.429-.016a5.7,5.7,0,0,0,5.011-5.8,4.827,4.827,0,0,0-5.226-4.889c-.148.013-.293.036-.437.062a28.822,28.822,0,0,0-1.21-4.276c.13-.076.259-.155.386-.243a5.7,5.7,0,0,0,1.727-7.469,4.827,4.827,0,0,0-7.031-1.334c-.124.087-.241.181-.356.276a25.533,25.533,0,0,0-3.136-2.928c.08-.131.158-.263.228-.4,1.362-2.683,3.142-5.613.645-6.832-5.776-2.82-8.255-.406-9.617,2.277-.07.139-.131.28-.19.422a25.516,25.516,0,0,0-4.214-.8c.009-.149.016-.3.013-.45-.059-2.952.817-4.55-2.021-4.605-.134,0-.266,0-.4,0-5.881,0-7.878,2.633-7.82,5.521" transform="translate(-9.408 -1227.488)" fill="none"/>
    </clipPath>
    <linearGradient id="linear-gradient-8" x1="0.056" y1="2.624" x2="0.057" y2="2.624" xlink:href="#linear-gradient-2"/>
    <clipPath id="clip-path-36">
      <path id="Path_187691" data-name="Path 187691" d="M272.016,1291.461c7.177,5.259,9.461,15.622,4.976,24.458-3.8,7.487-11.358,11.691-18.736,11.165-.329.854-.652,1.712-1,2.557-.956,2.294-2.043,4.541-3.131,6.784q1.026.193,2.061.3c-.009.149-.016.3-.013.45.059,2.952,1.852,5.461,6.975,5.189,2.834-.15,3.321-3.149,3.262-6.1,0-.154-.016-.3-.031-.455a28.834,28.834,0,0,0,4.166-1.546c.064.132.131.263.208.39,1.465,2.431,6.546,3.464,8.964,1.769s1.258-5.474-.206-7.905c-.075-.125-.157-.241-.241-.356a31.367,31.367,0,0,0,3-3.482c.12.075.241.149.37.214a5.465,5.465,0,0,0,4.933-9.715c-.128-.065-.259-.12-.391-.172a31.442,31.442,0,0,0,1.04-4.477c.142,0,.284,0,.429-.016a5.7,5.7,0,0,0,5.011-5.8,4.827,4.827,0,0,0-5.226-4.889c-.148.013-.293.036-.437.062a28.824,28.824,0,0,0-1.21-4.276c.13-.076.26-.155.386-.243,2.418-1.694,5.41-5.789,3.7-8.056-3.238-4.3-6.59-2.441-9.008-.747-.124.087-.24.18-.356.276a25.553,25.553,0,0,0-3.136-2.928c.08-.131.158-.263.228-.4a5.628,5.628,0,0,0,.317-4.438q-3.5,6.167-6.9,12.391" transform="translate(-254.12 -1279.07)" fill="none"/>
    </clipPath>
    <linearGradient id="linear-gradient-9" x1="-0.194" y1="3.772" x2="-0.192" y2="3.772" xlink:href="#linear-gradient-2"/>
    <clipPath id="clip-path-37">
      <path id="Path_187692" data-name="Path 187692" d="M58.136,1279.59c-9-4.568-12.279-16.166-7.334-25.907s16.247-13.934,25.243-9.367,12.279,16.166,7.334,25.907a19.951,19.951,0,0,1-17.493,11.214,17.039,17.039,0,0,1-7.75-1.847m8.264-52.055a5.7,5.7,0,0,0-5.011,5.8c0,.154.016.305.031.455a28.855,28.855,0,0,0-4.166,1.546c-.064-.131-.131-.262-.208-.39a4.827,4.827,0,0,0-7.031-1.333,5.7,5.7,0,0,0-1.727,7.469c.075.125.157.241.241.356a31.43,31.43,0,0,0-3,3.482c-.12-.075-.241-.149-.37-.214a5.465,5.465,0,0,0-4.933,9.715c.128.065.26.12.391.172a31.411,31.411,0,0,0-1.04,4.477c-.142,0-.285,0-.429.015a5.7,5.7,0,0,0-5.011,5.8,4.827,4.827,0,0,0,5.226,4.89c.148-.013.293-.036.437-.062a28.807,28.807,0,0,0,1.21,4.276c-.13.076-.259.155-.386.243a5.7,5.7,0,0,0-1.727,7.469,4.827,4.827,0,0,0,7.031,1.333c.124-.087.241-.181.356-.276a25.554,25.554,0,0,0,3.136,2.928c-.08.131-.158.263-.228.4a5.047,5.047,0,1,0,8.972,4.555c.071-.139.131-.28.19-.421a25.517,25.517,0,0,0,4.214.8c-.009.149-.016.3-.013.45a4.827,4.827,0,0,0,5.226,4.889,5.7,5.7,0,0,0,5.011-5.8c0-.154-.016-.305-.031-.455a28.853,28.853,0,0,0,4.166-1.546c.064.132.131.263.208.39a4.828,4.828,0,0,0,7.031,1.333,5.7,5.7,0,0,0,1.727-7.47c-.075-.124-.157-.241-.241-.356a31.436,31.436,0,0,0,3-3.482c.12.075.241.148.37.214a5.465,5.465,0,0,0,4.933-9.715c-.128-.065-.259-.12-.391-.172a31.4,31.4,0,0,0,1.04-4.477c.142,0,.285,0,.429-.016a5.7,5.7,0,0,0,5.011-5.8,4.827,4.827,0,0,0-5.226-4.889c-.148.013-.293.036-.437.062a28.8,28.8,0,0,0-1.21-4.276c.13-.076.26-.155.386-.243a5.7,5.7,0,0,0,1.727-7.469,4.827,4.827,0,0,0-7.031-1.333c-.124.087-.241.181-.356.276a25.541,25.541,0,0,0-3.136-2.928c.08-.13.158-.263.228-.4a5.047,5.047,0,1,0-8.972-4.555c-.071.139-.131.28-.19.421a25.554,25.554,0,0,0-4.214-.8c.009-.149.016-.3.013-.45a4.84,4.84,0,0,0-4.784-4.909q-.219,0-.441.02" transform="translate(-34.135 -1227.515)" fill="#ff5151"/>
    </clipPath>
  </defs>
  <g id="Group_124887" data-name="Group 124887" clip-path="url(#clip-path)">
    <g id="Group_124806" data-name="Group 124806" transform="translate(0 0)">
      <g id="Group_124805" data-name="Group 124805" clip-path="url(#clip-path-2)">
        <path id="Path_187645" data-name="Path 187645" d="M95.343,3.311A79.548,79.548,0,0,0,28.1,96.257C40.271,162.943-70.884,299.586,80.027,319.7s228.438-34.245,232.046-83.737c3.438-47.169,17.273-265.3-216.73-232.654" transform="translate(0 0.004)" fill="#f4f7fa"/>
      </g>
    </g>
    <g id="Group_124808" data-name="Group 124808" transform="translate(189.6 102.663)">
      <g id="Group_124807" data-name="Group 124807" clip-path="url(#clip-path-3)">
        <path id="Path_187693" data-name="Path 187693" d="M0,0H120.8V158.434H0Z" transform="translate(-0.696 -0.001)" fill="#0ed6f8"/>
      </g>
    </g>
    <g id="Group_124810" data-name="Group 124810" transform="translate(185.589 102.66)">
      <g id="Group_124809" data-name="Group 124809" clip-path="url(#clip-path-4)">
        <path id="Path_187647" data-name="Path 187647" d="M1824.577,1064.84l-.164-.36a148.9,148.9,0,0,0,66.174-59.331c15.087-25.088,23.643-54.97,24.743-86.415l.4.014c-1.1,31.512-9.678,61.459-24.8,86.6a149.3,149.3,0,0,1-66.349,59.488" transform="translate(-1813.39 -922.384)" fill="#fcfdfe"/>
        <path id="Path_187648" data-name="Path 187648" d="M2155.167,2083.524c-15.435-5.54-41.485-6.4-58.068-1.91l-.1-.382c16.65-4.5,42.8-3.643,58.3,1.919Z" transform="translate(-2056.596 -1957.027)" fill="#fcfdfe"/>
        <path id="Path_187649" data-name="Path 187649" d="M1922.761,1753.766l-.257-.3c6.791-5.8,10.389-14.807,10.7-26.776.225-8.776-1.293-18.91-4.512-30.121l.38-.109c3.23,11.249,4.753,21.423,4.528,30.24-.309,12.085-3.954,21.192-10.834,27.066" transform="translate(-1900.91 -1616.296)" fill="#fcfdfe"/>
        <path id="Path_187650" data-name="Path 187650" d="M2457.975,1565.942l-.272-.287c12.24-11.59,29.757-14.3,42.3-14.528l.007.4c-12.469.229-29.884,2.917-42.032,14.42" transform="translate(-2378.432 -1486.625)" fill="#fcfdfe"/>
        <path id="Path_187651" data-name="Path 187651" d="M2474.374,990.284l-.393-.039c.813-8.109-.046-24.65-14.927-44.315l.314-.239c14.963,19.773,15.824,36.427,15,44.593" transform="translate(-2379.637 -946.436)" fill="#fcfdfe"/>
      </g>
    </g>
    <g id="Group_124812" data-name="Group 124812" transform="translate(197.856 13.437)">
      <g id="Group_124811" data-name="Group 124811" clip-path="url(#clip-path-5)">
        <rect id="Rectangle_38444" data-name="Rectangle 38444" width="230.338" height="129.277" transform="translate(-36.48 211.343) rotate(-80.241)" fill="#88e0ef"/>
      </g>
    </g>
    <g id="Group_124814" data-name="Group 124814" transform="translate(197.856 13.437)">
      <g id="Group_124813" data-name="Group 124813" clip-path="url(#clip-path-6)">
        <path id="Path_187654" data-name="Path 187654" d="M1990.939,290.06h-.4c-.005-.189,8.819-45.146,24.451-89,2.146-7.095,4.483-14.253,6.744-21.174,6.054-18.536,12.315-37.7,15.167-56.747,3.188-21.286,1.727-40.405-4.467-58.45l.374-.128c6.215,18.106,7.681,37.286,4.484,58.636-2.857,19.076-9.123,38.259-15.182,56.811-2.26,6.92-4.6,14.075-6.745,21.175-14.907,41.82-24.321,87.477-24.432,88.878" transform="translate(-1973.884 -71.039)" fill="#fcfdfe"/>
        <path id="Path_187655" data-name="Path 187655" d="M2382.318,414.648l-.3-.261c10.786-12.282,23.769-29.707,30.744-39.069,5.61-7.53,5.647-7.522,5.877-7.488l-.055.391.028-.2.083.175c-.286.2-2.638,3.358-5.615,7.354-6.978,9.366-19.967,26.8-30.764,39.093" transform="translate(-2323.173 -341.623)" fill="#fcfdfe"/>
        <path id="Path_187656" data-name="Path 187656" d="M2224.792,342.734c-2.432-13.9-8.277-22.986-12.753-28.163-4.945-5.72-9.461-8.181-9.92-8.231a.151.151,0,0,0,.093-.029l-.224-.326c.1-.068.216-.053.481.059,1.216.511,5.773,3.284,10.592,9.125a59.107,59.107,0,0,1,12.12,27.5Z" transform="translate(-2162.542 -286.41)" fill="#fcfdfe"/>
        <path id="Path_187657" data-name="Path 187657" d="M1923.188,1065.661l-.393-.042c1.385-12.973-1.8-26.87-9.476-41.305a120.529,120.529,0,0,0-15.086-21.88c-.436-.506-.589-.686-.637-.768l.34-.2c.036.058.283.347.6.712a120.908,120.908,0,0,1,15.135,21.952c7.71,14.506,10.913,28.48,9.52,41.533" transform="translate(-1890.953 -906.976)" fill="#fcfdfe"/>
        <path id="Path_187658" data-name="Path 187658" d="M2171.741,1297.025l-.339-.2c11.534-19.151,36.312-20.765,36.517-20.7l.149.183-.133.2-.065-.184-.014.193h0c-.325,0-24.75,1.649-36.113,20.516m36.064-20.9.065.186Z" transform="translate(-2135.252 -1152.032)" fill="#fcfdfe"/>
        <path id="Path_187659" data-name="Path 187659" d="M1893.31,1842.374l-.4-.01c.139-5.643-1.995-15.232-12.944-28.873-.594-.739-.594-.739-.579-.851l.392.052-.2-.026.18-.076c.031.056.254.333.511.654,11.024,13.734,13.171,23.422,13.031,29.13" transform="translate(-1874.707 -1630.689)" fill="#fcfdfe"/>
        <path id="Path_187660" data-name="Path 187660" d="M2027.331,1812.784l-.381-.105c1.191-4.3,5.981-12.769,24.683-21.091.258-.115.425-.189.484-.22l.185.349c-.063.033-.237.111-.509.232-18.553,8.256-23.29,16.6-24.463,20.835" transform="translate(-2006.367 -1611.753)" fill="#fcfdfe"/>
      </g>
    </g>
    <g id="Group_124816" data-name="Group 124816" transform="translate(42.141 27.73)">
      <g id="Group_124815" data-name="Group 124815" clip-path="url(#clip-path-7)">
        <rect id="Rectangle_38445" data-name="Rectangle 38445" width="329.595" height="335.021" transform="matrix(0.741, -0.672, 0.672, 0.741, -136.782, 124.128)" fill="url(#linear-gradient)"/>
      </g>
    </g>
    <g id="Group_124818" data-name="Group 124818" transform="translate(47.359 27.73)">
      <g id="Group_124817" data-name="Group 124817" clip-path="url(#clip-path-8)">
        <rect id="Rectangle_38446" data-name="Rectangle 38446" width="203.233" height="280.197" transform="translate(-7.653 0.213) rotate(-1.596)" fill="url(#linear-gradient-2)"/>
      </g>
    </g>
    <g id="Group_124820" data-name="Group 124820" transform="translate(51.83 32.499)">
      <g id="Group_124819" data-name="Group 124819" clip-path="url(#clip-path-9)">
        <rect id="Rectangle_38447" data-name="Rectangle 38447" width="323.84" height="312.883" transform="matrix(0.633, -0.774, 0.774, 0.633, -129.96, 158.84)" fill="url(#linear-gradient-3)"/>
      </g>
    </g>
    <g id="Group_124822" data-name="Group 124822" transform="translate(0 0)">
      <g id="Group_124821" data-name="Group 124821" clip-path="url(#clip-path-2)">
        <path id="Path_187665" data-name="Path 187665" d="M689.181,567.753a2.015,2.015,0,0,1-1.877,2l-177.993,9.1a1.973,1.973,0,0,1-2.146-1.928V334.444a2,2,0,0,1,2.146-1.958L687.3,339.18a1.982,1.982,0,0,1,1.877,1.975Z" transform="translate(-452.509 -296.653)" fill="#d8dee8"/>
      </g>
    </g>
    <g id="Group_124824" data-name="Group 124824" transform="translate(127.052 280.467)">
      <g id="Group_124823" data-name="Group 124823" clip-path="url(#clip-path-11)">
        <rect id="Rectangle_38449" data-name="Rectangle 38449" width="14.038" height="43.784" transform="translate(-1.098 8.362) rotate(-82.519)" fill="url(#linear-gradient-4)"/>
      </g>
    </g>
    <g id="Group_124826" data-name="Group 124826" transform="translate(146.893 34.368)">
      <g id="Group_124825" data-name="Group 124825" clip-path="url(#clip-path-12)">
        <rect id="Rectangle_38450" data-name="Rectangle 38450" width="5.048" height="5.03" transform="translate(-1.708 1.55) rotate(-42.223)" fill="url(#linear-gradient-5)"/>
      </g>
    </g>
    <g id="Group_124831" data-name="Group 124831" transform="translate(0 0)">
      <g id="Group_124830" data-name="Group 124830" clip-path="url(#clip-path-2)">
        <g id="Group_124829" data-name="Group 124829" transform="translate(47.359 27.73)" opacity="0.3" style="mix-blend-mode: screen;isolation: isolate">
          <g id="Group_124828" data-name="Group 124828">
            <g id="Group_124827" data-name="Group 124827" clip-path="url(#clip-path-14)">
              <path id="Path_187668" data-name="Path 187668" d="M588.065,494.764c-.724-15.535,16.548-24.646,14.889-46.561-.15-1.977-1.693-18.936-15.342-30.431-12.257-10.323-22.559-6.439-45.244-14.672-15.9-5.77-33.773-12.258-41-25.274-14.356-25.848,26.667-51.666,18.271-85.128-2.406-9.588-9.2-21.342-27.141-33.616l-43.455-1.761c-5.278-.214-9.587,4.219-9.587,9.883V522.147c0,5.664,4.309,10.02,9.587,9.712l161.93-9.451c-17.248-9.971-22.527-19.55-22.9-27.644" transform="translate(-439.453 -257.314)" fill="#fff"/>
            </g>
          </g>
        </g>
      </g>
    </g>
    <g id="Group_124833" data-name="Group 124833" transform="translate(64.032 32.992)">
      <g id="Group_124832" data-name="Group 124832" clip-path="url(#clip-path-15)">
        <rect id="Rectangle_38453" data-name="Rectangle 38453" width="263.548" height="195.587" transform="matrix(0.156, -0.988, 0.988, 0.156, -37.15, 235.743)" fill="#592fe6"/>
      </g>
    </g>
    <g id="Group_124838" data-name="Group 124838" transform="translate(0 0)">
      <g id="Group_124837" data-name="Group 124837" clip-path="url(#clip-path-2)">
        <path id="Path_187670" data-name="Path 187670" d="M766.064,447.657l-72.42-.752.064-20.13,72.388,1.341Z" transform="translate(-618.891 -380.782)" fill="#fff"/>
        <path id="Path_187671" data-name="Path 187671" d="M890.605,885.53l-23.243.25.069-25.391,23.23,0Z" transform="translate(-773.889 -767.667)" fill="#fff"/>
        <path id="Path_187672" data-name="Path 187672" d="M1233.9,871.54l-81.738.5.026-12.533,81.716-.07Z" transform="translate(-1027.995 -766.813)" fill="#fff"/>
        <path id="Path_187673" data-name="Path 187673" d="M889.335,1355.918l-23.269.76.069-25.446,23.256-.506Z" transform="translate(-772.732 -1187.317)" fill="#fff"/>
        <path id="Path_187674" data-name="Path 187674" d="M1233.012,1324.693l-81.826,2.219.026-12.56,81.8-1.791Z" transform="translate(-1027.126 -1171.109)" fill="#fff"/>
        <path id="Path_187675" data-name="Path 187675" d="M888.062,1827.291l-23.3,1.273.069-25.5,23.282-1.018Z" transform="translate(-771.573 -1607.843)" fill="#fff"/>
        <path id="Path_187676" data-name="Path 187676" d="M1232.123,1778.785l-81.914,3.949.026-12.587,81.892-3.52Z" transform="translate(-1026.254 -1576.242)" fill="#fff"/>
        <g id="Group_124836" data-name="Group 124836" transform="translate(64.12 32.583)" opacity="0.3" style="mix-blend-mode: soft-light;isolation: isolate">
          <g id="Group_124835" data-name="Group 124835">
            <g id="Group_124834" data-name="Group 124834" clip-path="url(#clip-path-17)">
              <path id="Path_187677" data-name="Path 187677" d="M690.974,536.854l-95.986,7.08.814-241.6,59.292,1.417c-11.594,19.941-25.741,59.773,14.716,97.1,41.117,37.941,57.6,95.944,21.163,136" transform="translate(-594.988 -302.337)" fill="#592fe6"/>
            </g>
          </g>
        </g>
      </g>
    </g>
    <g id="Group_124840" data-name="Group 124840" transform="translate(69.654 19.592)">
      <g id="Group_124839" data-name="Group 124839" clip-path="url(#clip-path-18)">
        <rect id="Rectangle_38456" data-name="Rectangle 38456" width="286.684" height="247.581" transform="translate(-93.165 197.692) rotate(-64.767)" fill="#ccbff8"/>
      </g>
    </g>
    <g id="Group_124874" data-name="Group 124874" transform="translate(0 0)">
      <g id="Group_124873" data-name="Group 124873" clip-path="url(#clip-path-2)">
        <g id="Group_124843" data-name="Group 124843" transform="translate(69.654 19.592)" opacity="0.5" style="mix-blend-mode: soft-light;isolation: isolate">
          <g id="Group_124842" data-name="Group 124842">
            <g id="Group_124841" data-name="Group 124841" clip-path="url(#clip-path-20)">
              <path id="Path_187679" data-name="Path 187679" d="M742.324,416.312l-95.986,7.08.814-241.6,59.292,1.417c-11.594,19.941-25.741,59.773,14.716,97.1,41.117,37.941,57.6,95.944,21.163,136" transform="translate(-646.338 -181.794)" fill="#fff"/>
            </g>
          </g>
        </g>
        <g id="Group_124848" data-name="Group 124848" transform="translate(80.461 32.593)" opacity="0.6" style="mix-blend-mode: multiply;isolation: isolate">
          <g id="Group_124847" data-name="Group 124847">
            <g id="Group_124846" data-name="Group 124846" clip-path="url(#clip-path-21)">
              <g id="Group_124845" data-name="Group 124845" transform="translate(0 0)">
                <g id="Group_124844" data-name="Group 124844" clip-path="url(#clip-path-22)">
                  <rect id="Rectangle_38458" data-name="Rectangle 38458" width="72.452" height="20.882" transform="translate(0)" fill="#592fe6"/>
                </g>
              </g>
            </g>
          </g>
        </g>
        <g id="Group_124853" data-name="Group 124853" transform="translate(100.813 80.997)" opacity="0.6" style="mix-blend-mode: multiply;isolation: isolate">
          <g id="Group_124852" data-name="Group 124852">
            <g id="Group_124851" data-name="Group 124851" clip-path="url(#clip-path-23)">
              <g id="Group_124850" data-name="Group 124850" transform="translate(0 0)">
                <g id="Group_124849" data-name="Group 124849" clip-path="url(#clip-path-24)">
                  <rect id="Rectangle_38460" data-name="Rectangle 38460" width="23.299" height="25.39" transform="translate(0 0)" fill="#592fe6"/>
                </g>
              </g>
            </g>
          </g>
        </g>
        <g id="Group_124856" data-name="Group 124856" transform="translate(131.506 80.894)" opacity="0.5">
          <g id="Group_124855" data-name="Group 124855">
            <g id="Group_124854" data-name="Group 124854" clip-path="url(#clip-path-25)">
              <path id="Path_187682" data-name="Path 187682" d="M1302,762.736l-81.738.5.026-12.533,81.716-.07Z" transform="translate(-1220.267 -750.629)" fill="#592fe6"/>
            </g>
          </g>
        </g>
        <g id="Group_124861" data-name="Group 124861" transform="translate(100.673 131.684)" opacity="0.6" style="mix-blend-mode: multiply;isolation: isolate">
          <g id="Group_124860" data-name="Group 124860">
            <g id="Group_124859" data-name="Group 124859" clip-path="url(#clip-path-26)">
              <g id="Group_124858" data-name="Group 124858" transform="translate(0 0)">
                <g id="Group_124857" data-name="Group 124857" clip-path="url(#clip-path-27)">
                  <rect id="Rectangle_38463" data-name="Rectangle 38463" width="23.325" height="25.952" transform="translate(0)" fill="#592fe6"/>
                </g>
              </g>
            </g>
          </g>
        </g>
        <g id="Group_124864" data-name="Group 124864" transform="translate(131.4 129.727)" opacity="0.5">
          <g id="Group_124863" data-name="Group 124863">
            <g id="Group_124862" data-name="Group 124862" clip-path="url(#clip-path-28)">
              <path id="Path_187684" data-name="Path 187684" d="M1301.119,1215.888l-81.826,2.219.026-12.56,81.8-1.792Z" transform="translate(-1219.292 -1203.757)" fill="#592fe6"/>
            </g>
          </g>
        </g>
        <g id="Group_124869" data-name="Group 124869" transform="translate(100.533 182.477)" opacity="0.6" style="mix-blend-mode: multiply;isolation: isolate">
          <g id="Group_124868" data-name="Group 124868">
            <g id="Group_124867" data-name="Group 124867" clip-path="url(#clip-path-29)">
              <g id="Group_124866" data-name="Group 124866" transform="translate(0 0)">
                <g id="Group_124865" data-name="Group 124865" clip-path="url(#clip-path-30)">
                  <rect id="Rectangle_38466" data-name="Rectangle 38466" width="23.352" height="26.519" transform="translate(0 0)" fill="#592fe6"/>
                </g>
              </g>
            </g>
          </g>
        </g>
        <g id="Group_124872" data-name="Group 124872" transform="translate(131.295 178.66)" opacity="0.5">
          <g id="Group_124871" data-name="Group 124871">
            <g id="Group_124870" data-name="Group 124870" clip-path="url(#clip-path-31)">
              <path id="Path_187686" data-name="Path 187686" d="M1300.229,1669.981l-81.914,3.949.026-12.587,81.892-3.52Z" transform="translate(-1218.316 -1657.823)" fill="#592fe6"/>
            </g>
          </g>
        </g>
      </g>
    </g>
    <g id="Group_124876" data-name="Group 124876" transform="translate(11.872 204.367)">
      <g id="Group_124875" data-name="Group 124875" clip-path="url(#clip-path-32)">
        <rect id="Rectangle_38470" data-name="Rectangle 38470" width="122.001" height="118.148" transform="translate(-13.604 108.093) rotate(-82.875)" fill="url(#linear-gradient-6)"/>
      </g>
    </g>
    <g id="Group_124878" data-name="Group 124878" transform="translate(53.949 213.236)">
      <g id="Group_124877" data-name="Group 124877" clip-path="url(#clip-path-33)">
        <rect id="Rectangle_38471" data-name="Rectangle 38471" width="108.475" height="75.268" transform="translate(-12.483 99.862) rotate(-82.875)" fill="url(#linear-gradient-7)"/>
      </g>
    </g>
    <g id="Group_124880" data-name="Group 124880" transform="translate(16.124 204.371)">
      <g id="Group_124879" data-name="Group 124879" clip-path="url(#clip-path-34)">
        <rect id="Rectangle_38472" data-name="Rectangle 38472" width="151.006" height="151.818" transform="matrix(0.785, -0.62, 0.62, 0.785, -53.718, 42.336)" fill="#ff5151"/>
      </g>
    </g>
    <g id="Group_124882" data-name="Group 124882" transform="translate(1.014 132.283)">
      <g id="Group_124881" data-name="Group 124881" clip-path="url(#clip-path-35)">
        <rect id="Rectangle_38473" data-name="Rectangle 38473" width="76.466" height="74.051" transform="matrix(0.124, -0.992, 0.992, 0.124, -8.527, 67.749)" fill="url(#linear-gradient-8)"/>
      </g>
    </g>
    <g id="Group_124884" data-name="Group 124884" transform="translate(27.386 137.842)">
      <g id="Group_124883" data-name="Group 124883" clip-path="url(#clip-path-36)">
        <rect id="Rectangle_38474" data-name="Rectangle 38474" width="67.989" height="47.175" transform="translate(-7.824 62.59) rotate(-82.875)" fill="url(#linear-gradient-9)"/>
      </g>
    </g>
    <g id="Group_124886" data-name="Group 124886" transform="translate(3.679 132.286)">
      <g id="Group_124885" data-name="Group 124885" clip-path="url(#clip-path-37)">
        <rect id="Rectangle_38475" data-name="Rectangle 38475" width="94.646" height="95.155" transform="matrix(0.785, -0.62, 0.62, 0.785, -33.669, 26.535)" fill="#ff5151"/>
      </g>
    </g>
  </g>
</svg>
